<ttFont>
    <TTGlyph name="A" xMin="0" yMin="-87" xMax="626" yMax="722">
      <contour>
        <pt x="0" y="-25" on="1"/>
        <pt x="0" y="49" on="0"/>
        <pt x="147" y="275" on="1"/>
        <pt x="87" y="279" on="0"/>
        <pt x="0" y="279" on="1"/>
        <pt x="24" y="344" on="0"/>
        <pt x="116" y="344" on="1"/>
        <pt x="136" y="344" on="0"/>
        <pt x="190" y="338" on="1"/>
        <pt x="302" y="500" on="0"/>
        <pt x="496" y="722" on="0"/>
        <pt x="528" y="722" on="1"/>
        <pt x="554" y="722" on="0"/>
        <pt x="596" y="683" on="1"/>
        <pt x="563" y="658" on="0"/>
        <pt x="440" y="229" on="0"/>
        <pt x="440" y="108" on="1"/>
        <pt x="440" y="29" on="0"/>
        <pt x="475" y="29" on="1"/>
        <pt x="529" y="29" on="0"/>
        <pt x="608" y="178" on="1"/>
        <pt x="626" y="159" on="1"/>
        <pt x="594" y="74" on="0"/>
        <pt x="494" y="-29" on="0"/>
        <pt x="440" y="-29" on="1"/>
        <pt x="352" y="-29" on="0"/>
        <pt x="352" y="126" on="1"/>
        <pt x="352" y="175" on="0"/>
        <pt x="365" y="250" on="1"/>
        <pt x="314" y="258" on="0"/>
        <pt x="222" y="269" on="1"/>
        <pt x="129" y="104" on="0"/>
        <pt x="46" y="-87" on="1"/>
        <pt x="0" y="-63" on="0"/>
      </contour>
      <contour>
        <pt x="254" y="326" on="1"/>
        <pt x="277" y="321" on="0"/>
        <pt x="364" y="301" on="0"/>
        <pt x="375" y="299" on="1"/>
        <pt x="411" y="471" on="0"/>
        <pt x="481" y="634" on="1"/>
        <pt x="392" y="564" on="0"/>
      </contour>
    </TTGlyph>
    <TTGlyph name="AE" xMin="-1" yMin="-87" xMax="861" yMax="722">
      <contour>
        <pt x="-1" y="-26" on="1"/>
        <pt x="-1" y="49" on="0"/>
        <pt x="146" y="275" on="1"/>
        <pt x="86" y="279" on="0"/>
        <pt x="46" y="279" on="1"/>
        <pt x="-1" y="279" on="1"/>
        <pt x="23" y="344" on="0"/>
        <pt x="116" y="344" on="1"/>
        <pt x="135" y="344" on="0"/>
        <pt x="189" y="338" on="1"/>
        <pt x="300" y="498" on="0"/>
        <pt x="494" y="722" on="0"/>
        <pt x="528" y="722" on="1"/>
        <pt x="683" y="722" on="0"/>
        <pt x="861" y="699" on="1"/>
        <pt x="843" y="650" on="0"/>
        <pt x="675" y="650" on="1"/>
        <pt x="637" y="650" on="0"/>
        <pt x="571" y="652" on="1"/>
        <pt x="532" y="574" on="0"/>
        <pt x="493" y="423" on="1"/>
        <pt x="550" y="421" on="0"/>
        <pt x="709" y="399" on="0"/>
        <pt x="711" y="399" on="1"/>
        <pt x="692" y="350" on="0"/>
        <pt x="525" y="350" on="1"/>
        <pt x="489" y="350" on="0"/>
        <pt x="474" y="351" on="1"/>
        <pt x="439" y="194" on="0"/>
        <pt x="439" y="100" on="1"/>
        <pt x="439" y="94" on="0"/>
        <pt x="442" y="67" on="1"/>
        <pt x="478" y="62" on="0"/>
        <pt x="697" y="44" on="0"/>
        <pt x="730" y="36" on="1"/>
        <pt x="713" y="-12" on="0"/>
        <pt x="545" y="-12" on="1"/>
        <pt x="429" y="-12" on="0"/>
        <pt x="387" y="-8" on="1"/>
        <pt x="350" y="25" on="0"/>
        <pt x="350" y="126" on="1"/>
        <pt x="350" y="173" on="0"/>
        <pt x="364" y="250" on="1"/>
        <pt x="313" y="258" on="0"/>
        <pt x="221" y="269" on="1"/>
        <pt x="128" y="104" on="0"/>
        <pt x="45" y="-87" on="1"/>
        <pt x="-1" y="-63" on="0"/>
      </contour>
      <contour>
        <pt x="253" y="326" on="1"/>
        <pt x="275" y="322" on="0"/>
        <pt x="358" y="302" on="0"/>
        <pt x="374" y="299" on="1"/>
        <pt x="410" y="471" on="0"/>
        <pt x="480" y="634" on="1"/>
        <pt x="391" y="564" on="0"/>
      </contour>
    </TTGlyph>
    <TTGlyph name="Aacute" xMin="0" yMin="-87" xMax="688" yMax="946">
      <contour>
        <pt x="0" y="-25" on="1"/>
        <pt x="0" y="49" on="0"/>
        <pt x="147" y="275" on="1"/>
        <pt x="87" y="279" on="0"/>
        <pt x="0" y="279" on="1"/>
        <pt x="24" y="344" on="0"/>
        <pt x="116" y="344" on="1"/>
        <pt x="136" y="344" on="0"/>
        <pt x="190" y="338" on="1"/>
        <pt x="302" y="500" on="0"/>
        <pt x="496" y="722" on="0"/>
        <pt x="528" y="722" on="1"/>
        <pt x="554" y="722" on="0"/>
        <pt x="596" y="683" on="1"/>
        <pt x="563" y="658" on="0"/>
        <pt x="440" y="229" on="0"/>
        <pt x="440" y="108" on="1"/>
        <pt x="440" y="29" on="0"/>
        <pt x="475" y="29" on="1"/>
        <pt x="529" y="29" on="0"/>
        <pt x="608" y="178" on="1"/>
        <pt x="626" y="159" on="1"/>
        <pt x="594" y="74" on="0"/>
        <pt x="494" y="-29" on="0"/>
        <pt x="440" y="-29" on="1"/>
        <pt x="352" y="-29" on="0"/>
        <pt x="352" y="126" on="1"/>
        <pt x="352" y="175" on="0"/>
        <pt x="365" y="250" on="1"/>
        <pt x="314" y="258" on="0"/>
        <pt x="222" y="269" on="1"/>
        <pt x="129" y="104" on="0"/>
        <pt x="46" y="-87" on="1"/>
        <pt x="0" y="-63" on="0"/>
      </contour>
      <contour>
        <pt x="254" y="326" on="1"/>
        <pt x="277" y="321" on="0"/>
        <pt x="364" y="301" on="0"/>
        <pt x="375" y="299" on="1"/>
        <pt x="411" y="471" on="0"/>
        <pt x="481" y="634" on="1"/>
        <pt x="392" y="564" on="0"/>
      </contour>
      <contour>
        <pt x="555" y="831" on="1"/>
        <pt x="555" y="851" on="0"/>
        <pt x="630" y="946" on="0"/>
        <pt x="658" y="946" on="1"/>
        <pt x="684" y="946" on="0"/>
        <pt x="688" y="911" on="1"/>
        <pt x="603" y="829" on="0"/>
        <pt x="579" y="798" on="1"/>
        <pt x="568" y="803" on="0"/>
        <pt x="555" y="824" on="0"/>
      </contour>
    </TTGlyph>
    <TTGlyph name="Acircumflex" xMin="0" yMin="-87" xMax="677" yMax="938">
      <contour>
        <pt x="0" y="-25" on="1"/>
        <pt x="0" y="49" on="0"/>
        <pt x="147" y="275" on="1"/>
        <pt x="87" y="279" on="0"/>
        <pt x="0" y="279" on="1"/>
        <pt x="24" y="344" on="0"/>
        <pt x="116" y="344" on="1"/>
        <pt x="136" y="344" on="0"/>
        <pt x="190" y="338" on="1"/>
        <pt x="302" y="500" on="0"/>
        <pt x="496" y="722" on="0"/>
        <pt x="528" y="722" on="1"/>
        <pt x="554" y="722" on="0"/>
        <pt x="596" y="683" on="1"/>
        <pt x="563" y="658" on="0"/>
        <pt x="440" y="229" on="0"/>
        <pt x="440" y="108" on="1"/>
        <pt x="440" y="29" on="0"/>
        <pt x="475" y="29" on="1"/>
        <pt x="529" y="29" on="0"/>
        <pt x="608" y="178" on="1"/>
        <pt x="626" y="159" on="1"/>
        <pt x="594" y="74" on="0"/>
        <pt x="494" y="-29" on="0"/>
        <pt x="440" y="-29" on="1"/>
        <pt x="352" y="-29" on="0"/>
        <pt x="352" y="126" on="1"/>
        <pt x="352" y="175" on="0"/>
        <pt x="365" y="250" on="1"/>
        <pt x="314" y="258" on="0"/>
        <pt x="222" y="269" on="1"/>
        <pt x="129" y="104" on="0"/>
        <pt x="46" y="-87" on="1"/>
        <pt x="0" y="-63" on="0"/>
      </contour>
      <contour>
        <pt x="254" y="326" on="1"/>
        <pt x="277" y="321" on="0"/>
        <pt x="364" y="301" on="0"/>
        <pt x="375" y="299" on="1"/>
        <pt x="411" y="471" on="0"/>
        <pt x="481" y="634" on="1"/>
        <pt x="392" y="564" on="0"/>
      </contour>
      <contour>
        <pt x="465" y="852" on="1"/>
        <pt x="465" y="879" on="0"/>
        <pt x="555" y="938" on="0"/>
        <pt x="581" y="938" on="1"/>
        <pt x="606" y="938" on="0"/>
        <pt x="677" y="862" on="0"/>
        <pt x="677" y="832" on="1"/>
        <pt x="677" y="806" on="0"/>
        <pt x="652" y="793" on="1"/>
        <pt x="629" y="832" on="0"/>
        <pt x="580" y="876" on="1"/>
        <pt x="534" y="861" on="0"/>
        <pt x="478" y="824" on="1"/>
        <pt x="465" y="832" on="0"/>
      </contour>
    </TTGlyph>
    <TTGlyph name="Adieresis" xMin="0" yMin="-87" xMax="685" yMax="905">
      <contour>
        <pt x="0" y="-25" on="1"/>
        <pt x="0" y="49" on="0"/>
        <pt x="147" y="275" on="1"/>
        <pt x="87" y="279" on="0"/>
        <pt x="0" y="279" on="1"/>
        <pt x="24" y="344" on="0"/>
        <pt x="116" y="344" on="1"/>
        <pt x="136" y="344" on="0"/>
        <pt x="190" y="338" on="1"/>
        <pt x="302" y="500" on="0"/>
        <pt x="496" y="722" on="0"/>
        <pt x="528" y="722" on="1"/>
        <pt x="554" y="722" on="0"/>
        <pt x="596" y="683" on="1"/>
        <pt x="563" y="658" on="0"/>
        <pt x="440" y="229" on="0"/>
        <pt x="440" y="108" on="1"/>
        <pt x="440" y="29" on="0"/>
        <pt x="475" y="29" on="1"/>
        <pt x="529" y="29" on="0"/>
        <pt x="608" y="178" on="1"/>
        <pt x="626" y="159" on="1"/>
        <pt x="594" y="74" on="0"/>
        <pt x="494" y="-29" on="0"/>
        <pt x="440" y="-29" on="1"/>
        <pt x="352" y="-29" on="0"/>
        <pt x="352" y="126" on="1"/>
        <pt x="352" y="175" on="0"/>
        <pt x="365" y="250" on="1"/>
        <pt x="314" y="258" on="0"/>
        <pt x="222" y="269" on="1"/>
        <pt x="129" y="104" on="0"/>
        <pt x="46" y="-87" on="1"/>
        <pt x="0" y="-63" on="0"/>
      </contour>
      <contour>
        <pt x="254" y="326" on="1"/>
        <pt x="277" y="321" on="0"/>
        <pt x="364" y="301" on="0"/>
        <pt x="375" y="299" on="1"/>
        <pt x="411" y="471" on="0"/>
        <pt x="481" y="634" on="1"/>
        <pt x="392" y="564" on="0"/>
      </contour>
      <contour>
        <pt x="436" y="857" on="1"/>
        <pt x="436" y="875" on="0"/>
        <pt x="480" y="905" on="0"/>
        <pt x="503" y="905" on="1"/>
        <pt x="539" y="905" on="0"/>
        <pt x="539" y="873" on="1"/>
        <pt x="539" y="855" on="0"/>
        <pt x="501" y="823" on="0"/>
        <pt x="479" y="823" on="1"/>
        <pt x="461" y="823" on="0"/>
        <pt x="436" y="840" on="0"/>
      </contour>
      <contour>
        <pt x="581" y="837" on="1"/>
        <pt x="581" y="856" on="0"/>
        <pt x="624" y="885" on="0"/>
        <pt x="648" y="885" on="1"/>
        <pt x="685" y="885" on="0"/>
        <pt x="685" y="852" on="1"/>
        <pt x="685" y="834" on="0"/>
        <pt x="646" y="803" on="0"/>
        <pt x="623" y="803" on="1"/>
        <pt x="606" y="803" on="0"/>
        <pt x="581" y="821" on="0"/>
      </contour>
    </TTGlyph>
    <TTGlyph name="Agrave" xMin="0" yMin="-87" xMax="626" yMax="946">
      <contour>
        <pt x="0" y="-25" on="1"/>
        <pt x="0" y="49" on="0"/>
        <pt x="147" y="275" on="1"/>
        <pt x="87" y="279" on="0"/>
        <pt x="0" y="279" on="1"/>
        <pt x="24" y="344" on="0"/>
        <pt x="116" y="344" on="1"/>
        <pt x="136" y="344" on="0"/>
        <pt x="190" y="338" on="1"/>
        <pt x="302" y="500" on="0"/>
        <pt x="496" y="722" on="0"/>
        <pt x="528" y="722" on="1"/>
        <pt x="554" y="722" on="0"/>
        <pt x="596" y="683" on="1"/>
        <pt x="563" y="658" on="0"/>
        <pt x="440" y="229" on="0"/>
        <pt x="440" y="108" on="1"/>
        <pt x="440" y="29" on="0"/>
        <pt x="475" y="29" on="1"/>
        <pt x="529" y="29" on="0"/>
        <pt x="608" y="178" on="1"/>
        <pt x="626" y="159" on="1"/>
        <pt x="594" y="74" on="0"/>
        <pt x="494" y="-29" on="0"/>
        <pt x="440" y="-29" on="1"/>
        <pt x="352" y="-29" on="0"/>
        <pt x="352" y="126" on="1"/>
        <pt x="352" y="175" on="0"/>
        <pt x="365" y="250" on="1"/>
        <pt x="314" y="258" on="0"/>
        <pt x="222" y="269" on="1"/>
        <pt x="129" y="104" on="0"/>
        <pt x="46" y="-87" on="1"/>
        <pt x="0" y="-63" on="0"/>
      </contour>
      <contour>
        <pt x="254" y="326" on="1"/>
        <pt x="277" y="321" on="0"/>
        <pt x="364" y="301" on="0"/>
        <pt x="375" y="299" on="1"/>
        <pt x="411" y="471" on="0"/>
        <pt x="481" y="634" on="1"/>
        <pt x="392" y="564" on="0"/>
      </contour>
      <contour>
        <pt x="420" y="907" on="1"/>
        <pt x="421" y="926" on="0"/>
        <pt x="440" y="946" on="0"/>
        <pt x="452" y="946" on="1"/>
        <pt x="480" y="946" on="0"/>
        <pt x="562" y="854" on="0"/>
        <pt x="562" y="833" on="1"/>
        <pt x="562" y="824" on="0"/>
        <pt x="548" y="802" on="0"/>
        <pt x="537" y="797" on="1"/>
        <pt x="488" y="855" on="0"/>
      </contour>
    </TTGlyph>
    <TTGlyph name="Aring" xMin="0" yMin="-87" xMax="705" yMax="950">
      <contour>
        <pt x="0" y="-25" on="1"/>
        <pt x="0" y="49" on="0"/>
        <pt x="147" y="275" on="1"/>
        <pt x="87" y="279" on="0"/>
        <pt x="0" y="279" on="1"/>
        <pt x="24" y="344" on="0"/>
        <pt x="116" y="344" on="1"/>
        <pt x="136" y="344" on="0"/>
        <pt x="190" y="338" on="1"/>
        <pt x="302" y="500" on="0"/>
        <pt x="496" y="722" on="0"/>
        <pt x="528" y="722" on="1"/>
        <pt x="554" y="722" on="0"/>
        <pt x="596" y="683" on="1"/>
        <pt x="563" y="658" on="0"/>
        <pt x="440" y="229" on="0"/>
        <pt x="440" y="108" on="1"/>
        <pt x="440" y="29" on="0"/>
        <pt x="475" y="29" on="1"/>
        <pt x="529" y="29" on="0"/>
        <pt x="608" y="178" on="1"/>
        <pt x="626" y="159" on="1"/>
        <pt x="594" y="74" on="0"/>
        <pt x="494" y="-29" on="0"/>
        <pt x="440" y="-29" on="1"/>
        <pt x="352" y="-29" on="0"/>
        <pt x="352" y="126" on="1"/>
        <pt x="352" y="175" on="0"/>
        <pt x="365" y="250" on="1"/>
        <pt x="314" y="258" on="0"/>
        <pt x="222" y="269" on="1"/>
        <pt x="129" y="104" on="0"/>
        <pt x="46" y="-87" on="1"/>
        <pt x="0" y="-63" on="0"/>
      </contour>
      <contour>
        <pt x="254" y="326" on="1"/>
        <pt x="277" y="321" on="0"/>
        <pt x="364" y="301" on="0"/>
        <pt x="375" y="299" on="1"/>
        <pt x="411" y="471" on="0"/>
        <pt x="481" y="634" on="1"/>
        <pt x="392" y="564" on="0"/>
      </contour>
      <contour>
        <pt x="499" y="841" on="1"/>
        <pt x="499" y="878" on="0"/>
        <pt x="573" y="950" on="0"/>
        <pt x="623" y="950" on="1"/>
        <pt x="664" y="950" on="0"/>
        <pt x="705" y="918" on="0"/>
        <pt x="705" y="893" on="1"/>
        <pt x="705" y="855" on="0"/>
        <pt x="628" y="784" on="0"/>
        <pt x="577" y="784" on="1"/>
        <pt x="538" y="784" on="0"/>
        <pt x="499" y="816" on="0"/>
      </contour>
      <contour>
        <pt x="551" y="847" on="1"/>
        <pt x="552" y="836" on="0"/>
        <pt x="569" y="819" on="0"/>
        <pt x="585" y="819" on="1"/>
        <pt x="610" y="819" on="0"/>
        <pt x="654" y="864" on="0"/>
        <pt x="654" y="886" on="1"/>
        <pt x="654" y="912" on="0"/>
        <pt x="619" y="912" on="1"/>
        <pt x="594" y="912" on="0"/>
        <pt x="551" y="869" on="0"/>
      </contour>
    </TTGlyph>
    <TTGlyph name="Atilde" xMin="0" yMin="-87" xMax="723" yMax="859">
      <contour>
        <pt x="0" y="-25" on="1"/>
        <pt x="0" y="49" on="0"/>
        <pt x="147" y="275" on="1"/>
        <pt x="87" y="279" on="0"/>
        <pt x="0" y="279" on="1"/>
        <pt x="24" y="344" on="0"/>
        <pt x="116" y="344" on="1"/>
        <pt x="136" y="344" on="0"/>
        <pt x="190" y="338" on="1"/>
        <pt x="302" y="500" on="0"/>
        <pt x="496" y="722" on="0"/>
        <pt x="528" y="722" on="1"/>
        <pt x="554" y="722" on="0"/>
        <pt x="596" y="683" on="1"/>
        <pt x="563" y="658" on="0"/>
        <pt x="440" y="229" on="0"/>
        <pt x="440" y="108" on="1"/>
        <pt x="440" y="29" on="0"/>
        <pt x="475" y="29" on="1"/>
        <pt x="529" y="29" on="0"/>
        <pt x="608" y="178" on="1"/>
        <pt x="626" y="159" on="1"/>
        <pt x="594" y="74" on="0"/>
        <pt x="494" y="-29" on="0"/>
        <pt x="440" y="-29" on="1"/>
        <pt x="352" y="-29" on="0"/>
        <pt x="352" y="126" on="1"/>
        <pt x="352" y="175" on="0"/>
        <pt x="365" y="250" on="1"/>
        <pt x="314" y="258" on="0"/>
        <pt x="222" y="269" on="1"/>
        <pt x="129" y="104" on="0"/>
        <pt x="46" y="-87" on="1"/>
        <pt x="0" y="-63" on="0"/>
      </contour>
      <contour>
        <pt x="254" y="326" on="1"/>
        <pt x="277" y="321" on="0"/>
        <pt x="364" y="301" on="0"/>
        <pt x="375" y="299" on="1"/>
        <pt x="411" y="471" on="0"/>
        <pt x="481" y="634" on="1"/>
        <pt x="392" y="564" on="0"/>
      </contour>
      <contour>
        <pt x="378" y="802" on="1"/>
        <pt x="397" y="824" on="0"/>
        <pt x="449" y="859" on="0"/>
        <pt x="468" y="859" on="1"/>
        <pt x="497" y="859" on="0"/>
        <pt x="621" y="819" on="0"/>
        <pt x="655" y="819" on="1"/>
        <pt x="682" y="819" on="0"/>
        <pt x="723" y="826" on="1"/>
        <pt x="672" y="772" on="0"/>
        <pt x="631" y="772" on="1"/>
        <pt x="600" y="772" on="0"/>
        <pt x="469" y="810" on="0"/>
        <pt x="440" y="810" on="1"/>
        <pt x="424" y="810" on="0"/>
      </contour>
    </TTGlyph>
    <TTGlyph name="B" xMin="41" yMin="-87" xMax="617" yMax="720">
      <contour>
        <pt x="41" y="-1" on="1"/>
        <pt x="41" y="9" on="0"/>
        <pt x="52" y="9" on="1"/>
        <pt x="55" y="9" on="0"/>
        <pt x="76" y="4" on="0"/>
        <pt x="120" y="0" on="0"/>
        <pt x="150" y="0" on="1"/>
        <pt x="322" y="0" on="0"/>
        <pt x="555" y="134" on="0"/>
        <pt x="555" y="222" on="1"/>
        <pt x="555" y="341" on="0"/>
        <pt x="298" y="341" on="1"/>
        <pt x="297" y="341" on="0"/>
        <pt x="296" y="341" on="1"/>
        <pt x="283" y="341" on="0"/>
        <pt x="233" y="340" on="0"/>
        <pt x="222" y="340" on="1"/>
        <pt x="206" y="286" on="0"/>
        <pt x="149" y="71" on="0"/>
        <pt x="135" y="24" on="1"/>
        <pt x="105" y="24" on="0"/>
        <pt x="61" y="56" on="0"/>
        <pt x="61" y="79" on="1"/>
        <pt x="61" y="97" on="0"/>
        <pt x="71" y="125" on="1"/>
        <pt x="75" y="137" on="1"/>
        <pt x="77" y="142" on="0"/>
        <pt x="95" y="198" on="1"/>
        <pt x="131" y="306" on="1"/>
        <pt x="174" y="428" on="1"/>
        <pt x="199" y="497" on="0"/>
        <pt x="253" y="628" on="0"/>
        <pt x="278" y="676" on="1"/>
        <pt x="243" y="668" on="0"/>
        <pt x="185" y="642" on="0"/>
        <pt x="154" y="625" on="0"/>
        <pt x="148" y="625" on="1"/>
        <pt x="138" y="625" on="0"/>
        <pt x="108" y="654" on="0"/>
        <pt x="108" y="664" on="1"/>
        <pt x="154" y="683" on="0"/>
        <pt x="211" y="702" on="0"/>
        <pt x="308" y="720" on="0"/>
        <pt x="360" y="720" on="1"/>
        <pt x="393" y="720" on="0"/>
        <pt x="453" y="714" on="0"/>
        <pt x="525" y="693" on="0"/>
        <pt x="576" y="659" on="0"/>
        <pt x="611" y="598" on="0"/>
        <pt x="611" y="557" on="1"/>
        <pt x="611" y="418" on="0"/>
        <pt x="402" y="368" on="1"/>
        <pt x="515" y="353" on="0"/>
        <pt x="617" y="261" on="0"/>
        <pt x="617" y="207" on="1"/>
        <pt x="617" y="138" on="0"/>
        <pt x="522" y="21" on="0"/>
        <pt x="380" y="-49" on="0"/>
        <pt x="229" y="-87" on="0"/>
        <pt x="165" y="-87" on="1"/>
        <pt x="42" y="-87" on="0"/>
      </contour>
      <contour>
        <pt x="232" y="378" on="1"/>
        <pt x="292" y="380" on="0"/>
        <pt x="394" y="402" on="0"/>
        <pt x="484" y="444" on="0"/>
        <pt x="535" y="516" on="0"/>
        <pt x="535" y="565" on="1"/>
        <pt x="535" y="685" on="0"/>
        <pt x="347" y="685" on="1"/>
        <pt x="291" y="577" on="0"/>
      </contour>
    </TTGlyph>
    <TTGlyph name="C" xMin="32" yMin="-87" xMax="577" yMax="719">
      <contour>
        <pt x="32" y="160" on="1"/>
        <pt x="32" y="289" on="0"/>
        <pt x="158" y="551" on="0"/>
        <pt x="357" y="719" on="0"/>
        <pt x="457" y="719" on="1"/>
        <pt x="561" y="719" on="0"/>
        <pt x="561" y="628" on="1"/>
        <pt x="561" y="563" on="0"/>
        <pt x="481" y="411" on="0"/>
        <pt x="438" y="411" on="1"/>
        <pt x="413" y="411" on="0"/>
        <pt x="397" y="442" on="1"/>
        <pt x="435" y="484" on="0"/>
        <pt x="506" y="600" on="0"/>
        <pt x="506" y="636" on="1"/>
        <pt x="506" y="675" on="0"/>
        <pt x="461" y="675" on="1"/>
        <pt x="391" y="675" on="0"/>
        <pt x="233" y="505" on="0"/>
        <pt x="129" y="257" on="0"/>
        <pt x="129" y="151" on="1"/>
        <pt x="129" y="71" on="0"/>
        <pt x="201" y="-39" on="0"/>
        <pt x="274" y="-39" on="1"/>
        <pt x="352" y="-39" on="0"/>
        <pt x="509" y="87" on="0"/>
        <pt x="551" y="175" on="1"/>
        <pt x="577" y="158" on="1"/>
        <pt x="520" y="50" on="0"/>
        <pt x="351" y="-87" on="0"/>
        <pt x="250" y="-87" on="1"/>
        <pt x="143" y="-87" on="0"/>
        <pt x="32" y="58" on="0"/>
      </contour>
    </TTGlyph>
    <TTGlyph name="Ccedilla" xMin="32" yMin="-265" xMax="577" yMax="719">
      <contour>
        <pt x="32" y="160" on="1"/>
        <pt x="32" y="289" on="0"/>
        <pt x="158" y="551" on="0"/>
        <pt x="357" y="719" on="0"/>
        <pt x="457" y="719" on="1"/>
        <pt x="561" y="719" on="0"/>
        <pt x="561" y="628" on="1"/>
        <pt x="561" y="563" on="0"/>
        <pt x="481" y="411" on="0"/>
        <pt x="438" y="411" on="1"/>
        <pt x="413" y="411" on="0"/>
        <pt x="397" y="442" on="1"/>
        <pt x="435" y="484" on="0"/>
        <pt x="506" y="600" on="0"/>
        <pt x="506" y="636" on="1"/>
        <pt x="506" y="675" on="0"/>
        <pt x="461" y="675" on="1"/>
        <pt x="391" y="675" on="0"/>
        <pt x="233" y="505" on="0"/>
        <pt x="129" y="257" on="0"/>
        <pt x="129" y="151" on="1"/>
        <pt x="129" y="71" on="0"/>
        <pt x="201" y="-39" on="0"/>
        <pt x="274" y="-39" on="1"/>
        <pt x="352" y="-39" on="0"/>
        <pt x="509" y="87" on="0"/>
        <pt x="551" y="175" on="1"/>
        <pt x="577" y="158" on="1"/>
        <pt x="534" y="77" on="0"/>
        <pt x="416" y="-43" on="0"/>
        <pt x="345" y="-69" on="1"/>
        <pt x="322" y="-107" on="1"/>
        <pt x="355" y="-95" on="0"/>
        <pt x="376" y="-95" on="1"/>
        <pt x="400" y="-95" on="0"/>
        <pt x="430" y="-121" on="0"/>
        <pt x="430" y="-145" on="1"/>
        <pt x="430" y="-187" on="0"/>
        <pt x="349" y="-265" on="0"/>
        <pt x="298" y="-265" on="1"/>
        <pt x="270" y="-265" on="0"/>
        <pt x="232" y="-239" on="0"/>
        <pt x="232" y="-224" on="1"/>
        <pt x="232" y="-203" on="0"/>
        <pt x="264" y="-181" on="1"/>
        <pt x="277" y="-226" on="0"/>
        <pt x="304" y="-226" on="1"/>
        <pt x="328" y="-226" on="0"/>
        <pt x="385" y="-166" on="0"/>
        <pt x="385" y="-143" on="1"/>
        <pt x="385" y="-127" on="0"/>
        <pt x="369" y="-127" on="1"/>
        <pt x="356" y="-127" on="0"/>
        <pt x="298" y="-164" on="0"/>
        <pt x="282" y="-164" on="0"/>
        <pt x="269" y="-147" on="0"/>
        <pt x="269" y="-139" on="1"/>
        <pt x="269" y="-137" on="0"/>
        <pt x="298" y="-95" on="0"/>
        <pt x="311" y="-80" on="1"/>
        <pt x="276" y="-87" on="0"/>
        <pt x="250" y="-87" on="1"/>
        <pt x="143" y="-87" on="0"/>
        <pt x="32" y="58" on="0"/>
      </contour>
    </TTGlyph>
    <TTGlyph name="D" xMin="70" yMin="-87" xMax="686" yMax="720">
      <contour>
        <pt x="70" y="-37" on="1"/>
        <pt x="78" y="27" on="0"/>
        <pt x="212" y="462" on="0"/>
        <pt x="241" y="537" on="1"/>
        <pt x="248" y="555" on="0"/>
        <pt x="265" y="591" on="0"/>
        <pt x="305" y="634" on="0"/>
        <pt x="326" y="634" on="1"/>
        <pt x="343" y="634" on="0"/>
        <pt x="364" y="620" on="1"/>
        <pt x="304" y="483" on="0"/>
        <pt x="183" y="103" on="0"/>
        <pt x="151" y="-44" on="1"/>
        <pt x="168" y="-50" on="0"/>
        <pt x="201" y="-50" on="1"/>
        <pt x="279" y="-50" on="0"/>
        <pt x="428" y="48" on="0"/>
        <pt x="533" y="196" on="0"/>
        <pt x="597" y="372" on="0"/>
        <pt x="597" y="450" on="1"/>
        <pt x="597" y="566" on="0"/>
        <pt x="481" y="679" on="0"/>
        <pt x="384" y="679" on="1"/>
        <pt x="286" y="679" on="0"/>
        <pt x="156" y="576" on="0"/>
        <pt x="156" y="499" on="1"/>
        <pt x="156" y="472" on="0"/>
        <pt x="165" y="451" on="1"/>
        <pt x="85" y="451" on="0"/>
        <pt x="85" y="515" on="1"/>
        <pt x="85" y="589" on="0"/>
        <pt x="283" y="720" on="0"/>
        <pt x="417" y="720" on="1"/>
        <pt x="555" y="720" on="0"/>
        <pt x="686" y="566" on="0"/>
        <pt x="686" y="440" on="1"/>
        <pt x="686" y="336" on="0"/>
        <pt x="600" y="139" on="0"/>
        <pt x="461" y="-2" on="0"/>
        <pt x="281" y="-87" on="0"/>
        <pt x="191" y="-87" on="1"/>
        <pt x="108" y="-87" on="0"/>
      </contour>
    </TTGlyph>
    <TTGlyph name="E" xMin="-4" yMin="-87" xMax="540" yMax="719">
      <contour>
        <pt x="-4" y="101" on="1"/>
        <pt x="-4" y="191" on="0"/>
        <pt x="143" y="344" on="0"/>
        <pt x="251" y="359" on="1"/>
        <pt x="179" y="422" on="0"/>
        <pt x="179" y="510" on="1"/>
        <pt x="179" y="593" on="0"/>
        <pt x="302" y="719" on="0"/>
        <pt x="396" y="719" on="1"/>
        <pt x="457" y="719" on="0"/>
        <pt x="523" y="660" on="0"/>
        <pt x="523" y="604" on="1"/>
        <pt x="523" y="547" on="0"/>
        <pt x="466" y="450" on="0"/>
        <pt x="437" y="450" on="1"/>
        <pt x="412" y="450" on="0"/>
        <pt x="389" y="491" on="1"/>
        <pt x="477" y="563" on="0"/>
        <pt x="477" y="625" on="1"/>
        <pt x="477" y="654" on="0"/>
        <pt x="438" y="686" on="0"/>
        <pt x="405" y="686" on="1"/>
        <pt x="341" y="686" on="0"/>
        <pt x="268" y="575" on="0"/>
        <pt x="268" y="501" on="1"/>
        <pt x="268" y="396" on="0"/>
        <pt x="342" y="339" on="1"/>
        <pt x="238" y="323" on="0"/>
        <pt x="106" y="178" on="0"/>
        <pt x="106" y="99" on="1"/>
        <pt x="106" y="45" on="0"/>
        <pt x="170" y="-42" on="0"/>
        <pt x="236" y="-42" on="1"/>
        <pt x="315" y="-42" on="0"/>
        <pt x="470" y="86" on="0"/>
        <pt x="513" y="175" on="1"/>
        <pt x="540" y="158" on="1"/>
        <pt x="481" y="47" on="0"/>
        <pt x="311" y="-87" on="0"/>
        <pt x="209" y="-87" on="1"/>
        <pt x="115" y="-87" on="0"/>
        <pt x="-4" y="21" on="0"/>
      </contour>
    </TTGlyph>
    <TTGlyph name="Eacute" xMin="-4" yMin="-87" xMax="599" yMax="946">
      <contour>
        <pt x="-4" y="101" on="1"/>
        <pt x="-4" y="191" on="0"/>
        <pt x="143" y="344" on="0"/>
        <pt x="251" y="359" on="1"/>
        <pt x="179" y="422" on="0"/>
        <pt x="179" y="510" on="1"/>
        <pt x="179" y="593" on="0"/>
        <pt x="302" y="719" on="0"/>
        <pt x="396" y="719" on="1"/>
        <pt x="457" y="719" on="0"/>
        <pt x="523" y="660" on="0"/>
        <pt x="523" y="604" on="1"/>
        <pt x="523" y="547" on="0"/>
        <pt x="466" y="450" on="0"/>
        <pt x="437" y="450" on="1"/>
        <pt x="412" y="450" on="0"/>
        <pt x="389" y="491" on="1"/>
        <pt x="477" y="563" on="0"/>
        <pt x="477" y="625" on="1"/>
        <pt x="477" y="654" on="0"/>
        <pt x="438" y="686" on="0"/>
        <pt x="405" y="686" on="1"/>
        <pt x="341" y="686" on="0"/>
        <pt x="268" y="575" on="0"/>
        <pt x="268" y="501" on="1"/>
        <pt x="268" y="396" on="0"/>
        <pt x="342" y="339" on="1"/>
        <pt x="238" y="323" on="0"/>
        <pt x="106" y="178" on="0"/>
        <pt x="106" y="99" on="1"/>
        <pt x="106" y="45" on="0"/>
        <pt x="170" y="-42" on="0"/>
        <pt x="236" y="-42" on="1"/>
        <pt x="315" y="-42" on="0"/>
        <pt x="470" y="86" on="0"/>
        <pt x="513" y="175" on="1"/>
        <pt x="540" y="158" on="1"/>
        <pt x="481" y="47" on="0"/>
        <pt x="311" y="-87" on="0"/>
        <pt x="209" y="-87" on="1"/>
        <pt x="115" y="-87" on="0"/>
        <pt x="-4" y="21" on="0"/>
      </contour>
      <contour>
        <pt x="466" y="831" on="1"/>
        <pt x="466" y="851" on="0"/>
        <pt x="541" y="946" on="0"/>
        <pt x="569" y="946" on="1"/>
        <pt x="595" y="946" on="0"/>
        <pt x="599" y="911" on="1"/>
        <pt x="514" y="829" on="0"/>
        <pt x="490" y="798" on="1"/>
        <pt x="479" y="803" on="0"/>
        <pt x="466" y="824" on="0"/>
      </contour>
    </TTGlyph>
    <TTGlyph name="Ecircumflex" xMin="-4" yMin="-87" xMax="594" yMax="938">
      <contour>
        <pt x="-4" y="101" on="1"/>
        <pt x="-4" y="191" on="0"/>
        <pt x="143" y="344" on="0"/>
        <pt x="251" y="359" on="1"/>
        <pt x="179" y="422" on="0"/>
        <pt x="179" y="510" on="1"/>
        <pt x="179" y="593" on="0"/>
        <pt x="302" y="719" on="0"/>
        <pt x="396" y="719" on="1"/>
        <pt x="457" y="719" on="0"/>
        <pt x="523" y="660" on="0"/>
        <pt x="523" y="604" on="1"/>
        <pt x="523" y="547" on="0"/>
        <pt x="466" y="450" on="0"/>
        <pt x="437" y="450" on="1"/>
        <pt x="412" y="450" on="0"/>
        <pt x="389" y="491" on="1"/>
        <pt x="477" y="563" on="0"/>
        <pt x="477" y="625" on="1"/>
        <pt x="477" y="654" on="0"/>
        <pt x="438" y="686" on="0"/>
        <pt x="405" y="686" on="1"/>
        <pt x="341" y="686" on="0"/>
        <pt x="268" y="575" on="0"/>
        <pt x="268" y="501" on="1"/>
        <pt x="268" y="396" on="0"/>
        <pt x="342" y="339" on="1"/>
        <pt x="238" y="323" on="0"/>
        <pt x="106" y="178" on="0"/>
        <pt x="106" y="99" on="1"/>
        <pt x="106" y="45" on="0"/>
        <pt x="170" y="-42" on="0"/>
        <pt x="236" y="-42" on="1"/>
        <pt x="315" y="-42" on="0"/>
        <pt x="470" y="86" on="0"/>
        <pt x="513" y="175" on="1"/>
        <pt x="540" y="158" on="1"/>
        <pt x="481" y="47" on="0"/>
        <pt x="311" y="-87" on="0"/>
        <pt x="209" y="-87" on="1"/>
        <pt x="115" y="-87" on="0"/>
        <pt x="-4" y="21" on="0"/>
      </contour>
      <contour>
        <pt x="382" y="852" on="1"/>
        <pt x="382" y="879" on="0"/>
        <pt x="472" y="938" on="0"/>
        <pt x="498" y="938" on="1"/>
        <pt x="523" y="938" on="0"/>
        <pt x="594" y="862" on="0"/>
        <pt x="594" y="832" on="1"/>
        <pt x="594" y="806" on="0"/>
        <pt x="569" y="793" on="1"/>
        <pt x="546" y="832" on="0"/>
        <pt x="497" y="876" on="1"/>
        <pt x="451" y="861" on="0"/>
        <pt x="395" y="824" on="1"/>
        <pt x="382" y="832" on="0"/>
      </contour>
    </TTGlyph>
    <TTGlyph name="Edieresis" xMin="-4" yMin="-87" xMax="606" yMax="905">
      <contour>
        <pt x="-4" y="101" on="1"/>
        <pt x="-4" y="191" on="0"/>
        <pt x="143" y="344" on="0"/>
        <pt x="251" y="359" on="1"/>
        <pt x="179" y="422" on="0"/>
        <pt x="179" y="510" on="1"/>
        <pt x="179" y="593" on="0"/>
        <pt x="302" y="719" on="0"/>
        <pt x="396" y="719" on="1"/>
        <pt x="457" y="719" on="0"/>
        <pt x="523" y="660" on="0"/>
        <pt x="523" y="604" on="1"/>
        <pt x="523" y="547" on="0"/>
        <pt x="466" y="450" on="0"/>
        <pt x="437" y="450" on="1"/>
        <pt x="412" y="450" on="0"/>
        <pt x="389" y="491" on="1"/>
        <pt x="477" y="563" on="0"/>
        <pt x="477" y="625" on="1"/>
        <pt x="477" y="654" on="0"/>
        <pt x="438" y="686" on="0"/>
        <pt x="405" y="686" on="1"/>
        <pt x="341" y="686" on="0"/>
        <pt x="268" y="575" on="0"/>
        <pt x="268" y="501" on="1"/>
        <pt x="268" y="396" on="0"/>
        <pt x="342" y="339" on="1"/>
        <pt x="238" y="323" on="0"/>
        <pt x="106" y="178" on="0"/>
        <pt x="106" y="99" on="1"/>
        <pt x="106" y="45" on="0"/>
        <pt x="170" y="-42" on="0"/>
        <pt x="236" y="-42" on="1"/>
        <pt x="315" y="-42" on="0"/>
        <pt x="470" y="86" on="0"/>
        <pt x="513" y="175" on="1"/>
        <pt x="540" y="158" on="1"/>
        <pt x="481" y="47" on="0"/>
        <pt x="311" y="-87" on="0"/>
        <pt x="209" y="-87" on="1"/>
        <pt x="115" y="-87" on="0"/>
        <pt x="-4" y="21" on="0"/>
      </contour>
      <contour>
        <pt x="357" y="857" on="1"/>
        <pt x="357" y="875" on="0"/>
        <pt x="401" y="905" on="0"/>
        <pt x="424" y="905" on="1"/>
        <pt x="460" y="905" on="0"/>
        <pt x="460" y="873" on="1"/>
        <pt x="460" y="855" on="0"/>
        <pt x="422" y="823" on="0"/>
        <pt x="400" y="823" on="1"/>
        <pt x="382" y="823" on="0"/>
        <pt x="357" y="840" on="0"/>
      </contour>
      <contour>
        <pt x="502" y="837" on="1"/>
        <pt x="502" y="856" on="0"/>
        <pt x="545" y="885" on="0"/>
        <pt x="569" y="885" on="1"/>
        <pt x="606" y="885" on="0"/>
        <pt x="606" y="852" on="1"/>
        <pt x="606" y="834" on="0"/>
        <pt x="567" y="803" on="0"/>
        <pt x="544" y="803" on="1"/>
        <pt x="527" y="803" on="0"/>
        <pt x="502" y="821" on="0"/>
      </contour>
    </TTGlyph>
    <TTGlyph name="Egrave" xMin="-4" yMin="-87" xMax="549" yMax="946">
      <contour>
        <pt x="-4" y="101" on="1"/>
        <pt x="-4" y="191" on="0"/>
        <pt x="143" y="344" on="0"/>
        <pt x="251" y="359" on="1"/>
        <pt x="179" y="422" on="0"/>
        <pt x="179" y="510" on="1"/>
        <pt x="179" y="593" on="0"/>
        <pt x="302" y="719" on="0"/>
        <pt x="396" y="719" on="1"/>
        <pt x="457" y="719" on="0"/>
        <pt x="523" y="660" on="0"/>
        <pt x="523" y="604" on="1"/>
        <pt x="523" y="547" on="0"/>
        <pt x="466" y="450" on="0"/>
        <pt x="437" y="450" on="1"/>
        <pt x="412" y="450" on="0"/>
        <pt x="389" y="491" on="1"/>
        <pt x="477" y="563" on="0"/>
        <pt x="477" y="625" on="1"/>
        <pt x="477" y="654" on="0"/>
        <pt x="438" y="686" on="0"/>
        <pt x="405" y="686" on="1"/>
        <pt x="341" y="686" on="0"/>
        <pt x="268" y="575" on="0"/>
        <pt x="268" y="501" on="1"/>
        <pt x="268" y="396" on="0"/>
        <pt x="342" y="339" on="1"/>
        <pt x="238" y="323" on="0"/>
        <pt x="106" y="178" on="0"/>
        <pt x="106" y="99" on="1"/>
        <pt x="106" y="45" on="0"/>
        <pt x="170" y="-42" on="0"/>
        <pt x="236" y="-42" on="1"/>
        <pt x="315" y="-42" on="0"/>
        <pt x="470" y="86" on="0"/>
        <pt x="513" y="175" on="1"/>
        <pt x="540" y="158" on="1"/>
        <pt x="481" y="47" on="0"/>
        <pt x="311" y="-87" on="0"/>
        <pt x="209" y="-87" on="1"/>
        <pt x="115" y="-87" on="0"/>
        <pt x="-4" y="21" on="0"/>
      </contour>
      <contour>
        <pt x="407" y="907" on="1"/>
        <pt x="408" y="926" on="0"/>
        <pt x="427" y="946" on="0"/>
        <pt x="439" y="946" on="1"/>
        <pt x="467" y="946" on="0"/>
        <pt x="549" y="854" on="0"/>
        <pt x="549" y="833" on="1"/>
        <pt x="549" y="824" on="0"/>
        <pt x="535" y="802" on="0"/>
        <pt x="524" y="797" on="1"/>
        <pt x="475" y="855" on="0"/>
      </contour>
    </TTGlyph>
    <TTGlyph name="Eth" xMin="28" yMin="-87" xMax="686" yMax="720">
      <contour>
        <pt x="28" y="265" on="1"/>
        <pt x="57" y="321" on="0"/>
        <pt x="170" y="328" on="1"/>
        <pt x="213" y="466" on="0"/>
        <pt x="241" y="537" on="1"/>
        <pt x="248" y="555" on="0"/>
        <pt x="265" y="591" on="0"/>
        <pt x="305" y="634" on="0"/>
        <pt x="326" y="634" on="1"/>
        <pt x="343" y="634" on="0"/>
        <pt x="364" y="620" on="1"/>
        <pt x="307" y="492" on="0"/>
        <pt x="255" y="330" on="1"/>
        <pt x="315" y="330" on="0"/>
        <pt x="438" y="320" on="1"/>
        <pt x="378" y="279" on="0"/>
        <pt x="311" y="279" on="1"/>
        <pt x="239" y="279" on="1"/>
        <pt x="182" y="101" on="0"/>
        <pt x="151" y="-44" on="1"/>
        <pt x="174" y="-47" on="0"/>
        <pt x="189" y="-47" on="1"/>
        <pt x="293" y="-47" on="0"/>
        <pt x="484" y="100" on="0"/>
        <pt x="597" y="328" on="0"/>
        <pt x="597" y="446" on="1"/>
        <pt x="597" y="562" on="0"/>
        <pt x="482" y="679" on="0"/>
        <pt x="383" y="679" on="1"/>
        <pt x="285" y="679" on="0"/>
        <pt x="156" y="576" on="0"/>
        <pt x="156" y="499" on="1"/>
        <pt x="156" y="472" on="0"/>
        <pt x="165" y="451" on="1"/>
        <pt x="85" y="451" on="0"/>
        <pt x="85" y="515" on="1"/>
        <pt x="85" y="588" on="0"/>
        <pt x="283" y="720" on="0"/>
        <pt x="415" y="720" on="1"/>
        <pt x="554" y="720" on="0"/>
        <pt x="686" y="562" on="0"/>
        <pt x="686" y="435" on="1"/>
        <pt x="686" y="331" on="0"/>
        <pt x="600" y="135" on="0"/>
        <pt x="461" y="-4" on="0"/>
        <pt x="282" y="-87" on="0"/>
        <pt x="192" y="-87" on="1"/>
        <pt x="108" y="-87" on="0"/>
        <pt x="70" y="-37" on="1"/>
        <pt x="95" y="87" on="0"/>
        <pt x="154" y="278" on="1"/>
        <pt x="115" y="277" on="0"/>
      </contour>
    </TTGlyph>
    <TTGlyph name="Euro" xMin="30" yMin="-87" xMax="686" yMax="719">
      <contour>
        <pt x="30" y="153" on="1"/>
        <pt x="31" y="225" on="0"/>
        <pt x="144" y="232" on="1"/>
        <pt x="149" y="265" on="1"/>
        <pt x="102" y="263" on="0"/>
        <pt x="48" y="252" on="1"/>
        <pt x="48" y="321" on="0"/>
        <pt x="166" y="331" on="1"/>
        <pt x="217" y="488" on="0"/>
        <pt x="448" y="719" on="0"/>
        <pt x="565" y="719" on="1"/>
        <pt x="669" y="719" on="0"/>
        <pt x="669" y="627" on="1"/>
        <pt x="669" y="564" on="0"/>
        <pt x="589" y="411" on="0"/>
        <pt x="546" y="411" on="1"/>
        <pt x="521" y="411" on="0"/>
        <pt x="505" y="442" on="1"/>
        <pt x="543" y="484" on="0"/>
        <pt x="614" y="599" on="0"/>
        <pt x="614" y="675" on="0"/>
        <pt x="569" y="675" on="1"/>
        <pt x="490" y="675" on="0"/>
        <pt x="317" y="467" on="0"/>
        <pt x="271" y="330" on="1"/>
        <pt x="345" y="323" on="1"/>
        <pt x="410" y="316" on="0"/>
        <pt x="451" y="315" on="1"/>
        <pt x="427" y="283" on="0"/>
        <pt x="366" y="269" on="0"/>
        <pt x="252" y="267" on="1"/>
        <pt x="245" y="233" on="1"/>
        <pt x="272" y="231" on="0"/>
        <pt x="391" y="218" on="0"/>
        <pt x="432" y="217" on="1"/>
        <pt x="408" y="185" on="0"/>
        <pt x="348" y="172" on="0"/>
        <pt x="237" y="170" on="1"/>
        <pt x="237" y="126" on="0"/>
        <pt x="246" y="61" on="0"/>
        <pt x="270" y="-4" on="0"/>
        <pt x="324" y="-39" on="0"/>
        <pt x="365" y="-39" on="1"/>
        <pt x="446" y="-39" on="0"/>
        <pt x="618" y="89" on="0"/>
        <pt x="659" y="175" on="1"/>
        <pt x="686" y="158" on="1"/>
        <pt x="630" y="53" on="0"/>
        <pt x="445" y="-87" on="0"/>
        <pt x="341" y="-87" on="1"/>
        <pt x="287" y="-87" on="0"/>
        <pt x="207" y="-46" on="0"/>
        <pt x="161" y="25" on="0"/>
        <pt x="138" y="112" on="0"/>
        <pt x="137" y="164" on="1"/>
        <pt x="48" y="156" on="0"/>
      </contour>
    </TTGlyph>
    <TTGlyph name="F" xMin="73" yMin="-87" xMax="669" yMax="716">
      <contour>
        <pt x="73" y="298" on="1"/>
        <pt x="80" y="377" on="0"/>
        <pt x="220" y="381" on="1"/>
        <pt x="281" y="549" on="0"/>
        <pt x="329" y="647" on="1"/>
        <pt x="313" y="649" on="0"/>
        <pt x="293" y="649" on="1"/>
        <pt x="206" y="649" on="0"/>
        <pt x="140" y="596" on="0"/>
        <pt x="140" y="540" on="1"/>
        <pt x="140" y="499" on="0"/>
        <pt x="160" y="450" on="1"/>
        <pt x="73" y="464" on="0"/>
        <pt x="73" y="537" on="1"/>
        <pt x="73" y="614" on="0"/>
        <pt x="239" y="715" on="0"/>
        <pt x="363" y="715" on="1"/>
        <pt x="400" y="715" on="0"/>
        <pt x="539" y="701" on="0"/>
        <pt x="568" y="701" on="1"/>
        <pt x="614" y="701" on="0"/>
        <pt x="669" y="716" on="1"/>
        <pt x="623" y="665" on="0"/>
        <pt x="562" y="627" on="0"/>
        <pt x="531" y="627" on="1"/>
        <pt x="515" y="627" on="0"/>
        <pt x="416" y="641" on="0"/>
        <pt x="387" y="643" on="1"/>
        <pt x="360" y="579" on="0"/>
        <pt x="297" y="380" on="1"/>
        <pt x="321" y="378" on="0"/>
        <pt x="445" y="365" on="0"/>
        <pt x="484" y="364" on="1"/>
        <pt x="461" y="333" on="0"/>
        <pt x="396" y="318" on="0"/>
        <pt x="278" y="316" on="1"/>
        <pt x="237" y="175" on="1"/>
        <pt x="188" y="5" on="0"/>
        <pt x="188" y="-87" on="1"/>
        <pt x="138" y="-84" on="0"/>
        <pt x="102" y="-43" on="0"/>
        <pt x="102" y="-6" on="1"/>
        <pt x="102" y="93" on="0"/>
        <pt x="195" y="311" on="1"/>
        <pt x="98" y="302" on="0"/>
      </contour>
    </TTGlyph>
    <TTGlyph name="F.salt" xMin="46" yMin="-87" xMax="632" yMax="720">
      <contour>
        <pt x="46" y="296" on="1"/>
        <pt x="47" y="334" on="0"/>
        <pt x="126" y="379" on="0"/>
        <pt x="185" y="381" on="1"/>
        <pt x="251" y="552" on="0"/>
        <pt x="297" y="646" on="1"/>
        <pt x="209" y="642" on="0"/>
        <pt x="123" y="627" on="1"/>
        <pt x="138" y="720" on="0"/>
        <pt x="342" y="720" on="1"/>
        <pt x="447" y="720" on="0"/>
        <pt x="632" y="696" on="1"/>
        <pt x="583" y="649" on="0"/>
        <pt x="516" y="649" on="1"/>
        <pt x="510" y="649" on="0"/>
        <pt x="365" y="648" on="0"/>
        <pt x="361" y="648" on="1"/>
        <pt x="320" y="547" on="0"/>
        <pt x="270" y="379" on="1"/>
        <pt x="290" y="377" on="0"/>
        <pt x="363" y="369" on="0"/>
        <pt x="423" y="365" on="0"/>
        <pt x="454" y="365" on="1"/>
        <pt x="430" y="333" on="0"/>
        <pt x="366" y="318" on="0"/>
        <pt x="251" y="316" on="1"/>
        <pt x="161" y="3" on="0"/>
        <pt x="161" y="-87" on="1"/>
        <pt x="61" y="-80" on="0"/>
        <pt x="61" y="-1" on="1"/>
        <pt x="61" y="19" on="0"/>
        <pt x="71" y="69" on="0"/>
        <pt x="83" y="106" on="1"/>
        <pt x="104" y="167" on="1"/>
        <pt x="112" y="190" on="0"/>
        <pt x="131" y="240" on="1"/>
        <pt x="158" y="311" on="1"/>
        <pt x="123" y="308" on="0"/>
      </contour>
    </TTGlyph>
    <TTGlyph name="G" xMin="32" yMin="-93" xMax="573" yMax="719">
      <contour>
        <pt x="32" y="164" on="1"/>
        <pt x="32" y="258" on="0"/>
        <pt x="108" y="459" on="0"/>
        <pt x="226" y="617" on="0"/>
        <pt x="380" y="719" on="0"/>
        <pt x="454" y="719" on="1"/>
        <pt x="515" y="719" on="0"/>
        <pt x="573" y="652" on="0"/>
        <pt x="573" y="601" on="1"/>
        <pt x="573" y="546" on="0"/>
        <pt x="517" y="450" on="0"/>
        <pt x="479" y="450" on="1"/>
        <pt x="454" y="450" on="0"/>
        <pt x="437" y="483" on="1"/>
        <pt x="461" y="500" on="0"/>
        <pt x="517" y="594" on="0"/>
        <pt x="517" y="628" on="1"/>
        <pt x="517" y="675" on="0"/>
        <pt x="463" y="675" on="1"/>
        <pt x="390" y="675" on="0"/>
        <pt x="231" y="503" on="0"/>
        <pt x="128" y="257" on="0"/>
        <pt x="128" y="153" on="1"/>
        <pt x="128" y="65" on="0"/>
        <pt x="205" y="-39" on="0"/>
        <pt x="262" y="-39" on="1"/>
        <pt x="339" y="-39" on="0"/>
        <pt x="452" y="141" on="0"/>
        <pt x="461" y="246" on="1"/>
        <pt x="412" y="256" on="0"/>
        <pt x="354" y="256" on="1"/>
        <pt x="336" y="256" on="0"/>
        <pt x="288" y="254" on="1"/>
        <pt x="305" y="322" on="0"/>
        <pt x="368" y="322" on="1"/>
        <pt x="402" y="322" on="0"/>
        <pt x="534" y="278" on="0"/>
        <pt x="552" y="274" on="1"/>
        <pt x="508" y="138" on="0"/>
        <pt x="485" y="47" on="0"/>
        <pt x="485" y="1" on="1"/>
        <pt x="485" y="-14" on="0"/>
        <pt x="488" y="-76" on="0"/>
        <pt x="488" y="-93" on="1"/>
        <pt x="420" y="-85" on="0"/>
        <pt x="420" y="-9" on="1"/>
        <pt x="420" y="4" on="0"/>
        <pt x="421" y="11" on="1"/>
        <pt x="340" y="-87" on="0"/>
        <pt x="238" y="-87" on="1"/>
        <pt x="150" y="-87" on="0"/>
        <pt x="32" y="48" on="0"/>
      </contour>
    </TTGlyph>
    <TTGlyph name="H" xMin="72" yMin="-87" xMax="676" yMax="721">
      <contour>
        <pt x="72" y="-87" on="1"/>
        <pt x="94" y="55" on="0"/>
        <pt x="176" y="306" on="1"/>
        <pt x="121" y="300" on="0"/>
        <pt x="111" y="300" on="1"/>
        <pt x="111" y="356" on="0"/>
        <pt x="198" y="374" on="1"/>
        <pt x="281" y="616" on="1"/>
        <pt x="293" y="652" on="0"/>
        <pt x="293" y="664" on="1"/>
        <pt x="293" y="678" on="0"/>
        <pt x="280" y="678" on="1"/>
        <pt x="242" y="678" on="0"/>
        <pt x="165" y="554" on="0"/>
        <pt x="165" y="505" on="1"/>
        <pt x="165" y="489" on="0"/>
        <pt x="175" y="460" on="1"/>
        <pt x="96" y="460" on="0"/>
        <pt x="96" y="525" on="1"/>
        <pt x="96" y="591" on="0"/>
        <pt x="241" y="720" on="0"/>
        <pt x="306" y="720" on="1"/>
        <pt x="362" y="720" on="0"/>
        <pt x="362" y="666" on="1"/>
        <pt x="362" y="648" on="0"/>
        <pt x="354" y="622" on="1"/>
        <pt x="281" y="382" on="1"/>
        <pt x="297" y="383" on="0"/>
        <pt x="331" y="383" on="1"/>
        <pt x="421" y="383" on="0"/>
        <pt x="506" y="375" on="1"/>
        <pt x="566" y="577" on="0"/>
        <pt x="604" y="665" on="1"/>
        <pt x="628" y="721" on="0"/>
        <pt x="676" y="721" on="1"/>
        <pt x="623" y="576" on="0"/>
        <pt x="571" y="370" on="1"/>
        <pt x="579" y="370" on="0"/>
        <pt x="642" y="367" on="0"/>
        <pt x="658" y="367" on="1"/>
        <pt x="612" y="321" on="0"/>
        <pt x="559" y="321" on="1"/>
        <pt x="501" y="78" on="0"/>
        <pt x="501" y="-34" on="1"/>
        <pt x="501" y="-60" on="0"/>
        <pt x="506" y="-87" on="1"/>
        <pt x="455" y="-82" on="0"/>
        <pt x="418" y="-43" on="0"/>
        <pt x="418" y="6" on="1"/>
        <pt x="418" y="92" on="0"/>
        <pt x="490" y="320" on="1"/>
        <pt x="327" y="319" on="0"/>
        <pt x="259" y="313" on="1"/>
        <pt x="258" y="310" on="0"/>
        <pt x="246" y="269" on="0"/>
        <pt x="220" y="188" on="1"/>
        <pt x="156" y="-19" on="1"/>
        <pt x="146" y="-52" on="0"/>
        <pt x="95" y="-87" on="0"/>
      </contour>
    </TTGlyph>
    <TTGlyph name="I" xMin="-18" yMin="-88" xMax="601" yMax="719">
      <contour>
        <pt x="-18" y="-88" on="1"/>
        <pt x="-15" y="-57" on="0"/>
        <pt x="12" y="-18" on="0"/>
        <pt x="64" y="0" on="0"/>
        <pt x="115" y="6" on="0"/>
        <pt x="154" y="6" on="1"/>
        <pt x="195" y="94" on="0"/>
        <pt x="313" y="611" on="0"/>
        <pt x="326" y="649" on="1"/>
        <pt x="202" y="647" on="0"/>
        <pt x="89" y="625" on="1"/>
        <pt x="99" y="675" on="0"/>
        <pt x="204" y="719" on="0"/>
        <pt x="311" y="719" on="1"/>
        <pt x="431" y="719" on="0"/>
        <pt x="601" y="697" on="1"/>
        <pt x="552" y="650" on="0"/>
        <pt x="485" y="650" on="1"/>
        <pt x="409" y="650" on="0"/>
        <pt x="377" y="649" on="1"/>
        <pt x="371" y="619" on="1"/>
        <pt x="369" y="607" on="0"/>
        <pt x="300" y="228" on="0"/>
        <pt x="284" y="164" on="1"/>
        <pt x="254" y="44" on="0"/>
        <pt x="212" y="4" on="1"/>
        <pt x="225" y="3" on="0"/>
        <pt x="387" y="-13" on="0"/>
        <pt x="438" y="-14" on="1"/>
        <pt x="379" y="-70" on="0"/>
        <pt x="305" y="-70" on="1"/>
        <pt x="304" y="-70" on="0"/>
        <pt x="303" y="-70" on="1"/>
        <pt x="164" y="-70" on="0"/>
        <pt x="55" y="-76" on="0"/>
      </contour>
    </TTGlyph>
    <TTGlyph name="Iacute" xMin="-18" yMin="-88" xMax="601" yMax="946">
      <contour>
        <pt x="-18" y="-88" on="1"/>
        <pt x="-15" y="-57" on="0"/>
        <pt x="12" y="-18" on="0"/>
        <pt x="64" y="0" on="0"/>
        <pt x="115" y="6" on="0"/>
        <pt x="154" y="6" on="1"/>
        <pt x="195" y="94" on="0"/>
        <pt x="313" y="611" on="0"/>
        <pt x="326" y="649" on="1"/>
        <pt x="202" y="647" on="0"/>
        <pt x="89" y="625" on="1"/>
        <pt x="99" y="675" on="0"/>
        <pt x="204" y="719" on="0"/>
        <pt x="311" y="719" on="1"/>
        <pt x="431" y="719" on="0"/>
        <pt x="601" y="697" on="1"/>
        <pt x="552" y="650" on="0"/>
        <pt x="485" y="650" on="1"/>
        <pt x="409" y="650" on="0"/>
        <pt x="377" y="649" on="1"/>
        <pt x="371" y="619" on="1"/>
        <pt x="369" y="607" on="0"/>
        <pt x="300" y="228" on="0"/>
        <pt x="284" y="164" on="1"/>
        <pt x="254" y="44" on="0"/>
        <pt x="212" y="4" on="1"/>
        <pt x="225" y="3" on="0"/>
        <pt x="387" y="-13" on="0"/>
        <pt x="438" y="-14" on="1"/>
        <pt x="379" y="-70" on="0"/>
        <pt x="303" y="-70" on="1"/>
        <pt x="164" y="-70" on="0"/>
        <pt x="55" y="-76" on="0"/>
      </contour>
      <contour>
        <pt x="371" y="831" on="1"/>
        <pt x="371" y="851" on="0"/>
        <pt x="446" y="946" on="0"/>
        <pt x="474" y="946" on="1"/>
        <pt x="500" y="946" on="0"/>
        <pt x="504" y="911" on="1"/>
        <pt x="419" y="829" on="0"/>
        <pt x="395" y="798" on="1"/>
        <pt x="384" y="803" on="0"/>
        <pt x="371" y="824" on="0"/>
      </contour>
    </TTGlyph>
    <TTGlyph name="Icircumflex" xMin="-18" yMin="-88" xMax="601" yMax="938">
      <contour>
        <pt x="-18" y="-88" on="1"/>
        <pt x="-15" y="-57" on="0"/>
        <pt x="12" y="-18" on="0"/>
        <pt x="64" y="0" on="0"/>
        <pt x="115" y="6" on="0"/>
        <pt x="154" y="6" on="1"/>
        <pt x="195" y="94" on="0"/>
        <pt x="313" y="611" on="0"/>
        <pt x="326" y="649" on="1"/>
        <pt x="202" y="647" on="0"/>
        <pt x="89" y="625" on="1"/>
        <pt x="99" y="675" on="0"/>
        <pt x="204" y="719" on="0"/>
        <pt x="311" y="719" on="1"/>
        <pt x="431" y="719" on="0"/>
        <pt x="601" y="697" on="1"/>
        <pt x="552" y="650" on="0"/>
        <pt x="485" y="650" on="1"/>
        <pt x="409" y="650" on="0"/>
        <pt x="377" y="649" on="1"/>
        <pt x="371" y="619" on="1"/>
        <pt x="369" y="607" on="0"/>
        <pt x="300" y="228" on="0"/>
        <pt x="284" y="164" on="1"/>
        <pt x="254" y="44" on="0"/>
        <pt x="212" y="4" on="1"/>
        <pt x="225" y="3" on="0"/>
        <pt x="387" y="-13" on="0"/>
        <pt x="438" y="-14" on="1"/>
        <pt x="379" y="-70" on="0"/>
        <pt x="303" y="-70" on="1"/>
        <pt x="164" y="-70" on="0"/>
        <pt x="55" y="-76" on="0"/>
      </contour>
      <contour>
        <pt x="294" y="852" on="1"/>
        <pt x="294" y="879" on="0"/>
        <pt x="384" y="938" on="0"/>
        <pt x="410" y="938" on="1"/>
        <pt x="435" y="938" on="0"/>
        <pt x="506" y="862" on="0"/>
        <pt x="506" y="832" on="1"/>
        <pt x="506" y="806" on="0"/>
        <pt x="481" y="793" on="1"/>
        <pt x="458" y="832" on="0"/>
        <pt x="409" y="876" on="1"/>
        <pt x="363" y="861" on="0"/>
        <pt x="307" y="824" on="1"/>
        <pt x="294" y="832" on="0"/>
      </contour>
    </TTGlyph>
    <TTGlyph name="Idieresis" xMin="-18" yMin="-88" xMax="601" yMax="905">
      <contour>
        <pt x="-18" y="-88" on="1"/>
        <pt x="-15" y="-57" on="0"/>
        <pt x="12" y="-18" on="0"/>
        <pt x="64" y="0" on="0"/>
        <pt x="115" y="6" on="0"/>
        <pt x="154" y="6" on="1"/>
        <pt x="195" y="94" on="0"/>
        <pt x="313" y="611" on="0"/>
        <pt x="326" y="649" on="1"/>
        <pt x="202" y="647" on="0"/>
        <pt x="89" y="625" on="1"/>
        <pt x="99" y="675" on="0"/>
        <pt x="204" y="719" on="0"/>
        <pt x="311" y="719" on="1"/>
        <pt x="431" y="719" on="0"/>
        <pt x="601" y="697" on="1"/>
        <pt x="552" y="650" on="0"/>
        <pt x="485" y="650" on="1"/>
        <pt x="409" y="650" on="0"/>
        <pt x="377" y="649" on="1"/>
        <pt x="371" y="619" on="1"/>
        <pt x="369" y="607" on="0"/>
        <pt x="300" y="228" on="0"/>
        <pt x="284" y="164" on="1"/>
        <pt x="254" y="44" on="0"/>
        <pt x="212" y="4" on="1"/>
        <pt x="225" y="3" on="0"/>
        <pt x="387" y="-13" on="0"/>
        <pt x="438" y="-14" on="1"/>
        <pt x="379" y="-70" on="0"/>
        <pt x="303" y="-70" on="1"/>
        <pt x="164" y="-70" on="0"/>
        <pt x="55" y="-76" on="0"/>
      </contour>
      <contour>
        <pt x="293" y="857" on="1"/>
        <pt x="293" y="875" on="0"/>
        <pt x="337" y="905" on="0"/>
        <pt x="360" y="905" on="1"/>
        <pt x="396" y="905" on="0"/>
        <pt x="396" y="873" on="1"/>
        <pt x="396" y="855" on="0"/>
        <pt x="358" y="823" on="0"/>
        <pt x="336" y="823" on="1"/>
        <pt x="318" y="823" on="0"/>
        <pt x="293" y="840" on="0"/>
      </contour>
      <contour>
        <pt x="438" y="837" on="1"/>
        <pt x="438" y="856" on="0"/>
        <pt x="481" y="885" on="0"/>
        <pt x="505" y="885" on="1"/>
        <pt x="542" y="885" on="0"/>
        <pt x="542" y="852" on="1"/>
        <pt x="542" y="834" on="0"/>
        <pt x="503" y="803" on="0"/>
        <pt x="480" y="803" on="1"/>
        <pt x="463" y="803" on="0"/>
        <pt x="438" y="821" on="0"/>
      </contour>
    </TTGlyph>
    <TTGlyph name="Igrave" xMin="-18" yMin="-88" xMax="601" yMax="946">
      <contour>
        <pt x="-18" y="-88" on="1"/>
        <pt x="-15" y="-57" on="0"/>
        <pt x="12" y="-18" on="0"/>
        <pt x="64" y="0" on="0"/>
        <pt x="115" y="6" on="0"/>
        <pt x="154" y="6" on="1"/>
        <pt x="195" y="94" on="0"/>
        <pt x="313" y="611" on="0"/>
        <pt x="326" y="649" on="1"/>
        <pt x="202" y="647" on="0"/>
        <pt x="89" y="625" on="1"/>
        <pt x="99" y="675" on="0"/>
        <pt x="204" y="719" on="0"/>
        <pt x="311" y="719" on="1"/>
        <pt x="431" y="719" on="0"/>
        <pt x="601" y="697" on="1"/>
        <pt x="552" y="650" on="0"/>
        <pt x="485" y="650" on="1"/>
        <pt x="409" y="650" on="0"/>
        <pt x="377" y="649" on="1"/>
        <pt x="371" y="619" on="1"/>
        <pt x="369" y="607" on="0"/>
        <pt x="300" y="228" on="0"/>
        <pt x="284" y="164" on="1"/>
        <pt x="254" y="44" on="0"/>
        <pt x="212" y="4" on="1"/>
        <pt x="225" y="3" on="0"/>
        <pt x="387" y="-13" on="0"/>
        <pt x="438" y="-14" on="1"/>
        <pt x="379" y="-70" on="0"/>
        <pt x="303" y="-70" on="1"/>
        <pt x="164" y="-70" on="0"/>
        <pt x="55" y="-76" on="0"/>
      </contour>
      <contour>
        <pt x="287" y="907" on="1"/>
        <pt x="288" y="926" on="0"/>
        <pt x="307" y="946" on="0"/>
        <pt x="319" y="946" on="1"/>
        <pt x="347" y="946" on="0"/>
        <pt x="429" y="854" on="0"/>
        <pt x="429" y="833" on="1"/>
        <pt x="429" y="824" on="0"/>
        <pt x="415" y="802" on="0"/>
        <pt x="404" y="797" on="1"/>
        <pt x="355" y="855" on="0"/>
      </contour>
    </TTGlyph>
    <TTGlyph name="J" xMin="-18" yMin="-86" xMax="552" yMax="718">
      <contour>
        <pt x="-18" y="49" on="1"/>
        <pt x="-18" y="115" on="0"/>
        <pt x="26" y="221" on="0"/>
        <pt x="64" y="221" on="1"/>
        <pt x="78" y="221" on="0"/>
        <pt x="103" y="210" on="1"/>
        <pt x="65" y="118" on="0"/>
        <pt x="65" y="49" on="1"/>
        <pt x="65" y="9" on="0"/>
        <pt x="98" y="-37" on="0"/>
        <pt x="127" y="-37" on="1"/>
        <pt x="152" y="-37" on="0"/>
        <pt x="192" y="7" on="0"/>
        <pt x="212" y="61" on="1"/>
        <pt x="246" y="158" on="0"/>
        <pt x="334" y="530" on="0"/>
        <pt x="356" y="654" on="1"/>
        <pt x="234" y="651" on="0"/>
        <pt x="142" y="631" on="1"/>
        <pt x="149" y="678" on="0"/>
        <pt x="234" y="718" on="0"/>
        <pt x="322" y="718" on="1"/>
        <pt x="420" y="718" on="0"/>
        <pt x="552" y="696" on="1"/>
        <pt x="527" y="655" on="0"/>
        <pt x="461" y="655" on="1"/>
        <pt x="449" y="655" on="0"/>
        <pt x="407" y="654" on="0"/>
        <pt x="403" y="654" on="1"/>
        <pt x="416" y="637" on="0"/>
        <pt x="416" y="615" on="1"/>
        <pt x="415" y="562" on="0"/>
        <pt x="330" y="177" on="0"/>
        <pt x="278" y="63" on="1"/>
        <pt x="211" y="-86" on="0"/>
        <pt x="104" y="-86" on="1"/>
        <pt x="-18" y="-86" on="0"/>
      </contour>
    </TTGlyph>
    <TTGlyph name="K" xMin="43" yMin="-87" xMax="645" yMax="723">
      <contour>
        <pt x="43" y="-69" on="1"/>
        <pt x="64" y="-24" on="0"/>
        <pt x="86" y="40" on="1"/>
        <pt x="165" y="267" on="1"/>
        <pt x="288" y="616" on="1"/>
        <pt x="300" y="652" on="0"/>
        <pt x="300" y="659" on="1"/>
        <pt x="300" y="678" on="0"/>
        <pt x="280" y="678" on="1"/>
        <pt x="236" y="678" on="0"/>
        <pt x="161" y="555" on="0"/>
        <pt x="161" y="506" on="1"/>
        <pt x="161" y="483" on="0"/>
        <pt x="171" y="460" on="1"/>
        <pt x="91" y="460" on="0"/>
        <pt x="91" y="590" on="0"/>
        <pt x="237" y="720" on="0"/>
        <pt x="302" y="720" on="1"/>
        <pt x="357" y="720" on="0"/>
        <pt x="357" y="662" on="1"/>
        <pt x="357" y="643" on="0"/>
        <pt x="350" y="622" on="1"/>
        <pt x="276" y="382" on="1"/>
        <pt x="288" y="389" on="0"/>
        <pt x="345" y="433" on="1"/>
        <pt x="526" y="573" on="0"/>
        <pt x="625" y="723" on="1"/>
        <pt x="645" y="704" on="0"/>
        <pt x="645" y="669" on="1"/>
        <pt x="645" y="556" on="0"/>
        <pt x="276" y="320" on="1"/>
        <pt x="329" y="238" on="0"/>
        <pt x="391" y="151" on="0"/>
        <pt x="518" y="21" on="0"/>
        <pt x="604" y="-45" on="1"/>
        <pt x="595" y="-62" on="0"/>
        <pt x="559" y="-87" on="0"/>
        <pt x="542" y="-87" on="1"/>
        <pt x="489" y="-87" on="0"/>
        <pt x="308" y="150" on="0"/>
        <pt x="242" y="275" on="1"/>
        <pt x="151" y="-19" on="1"/>
        <pt x="146" y="-36" on="0"/>
        <pt x="123" y="-58" on="0"/>
        <pt x="88" y="-67" on="0"/>
        <pt x="62" y="-69" on="0"/>
      </contour>
    </TTGlyph>
    <TTGlyph name="L" xMin="-64" yMin="-87" xMax="607" yMax="720">
      <contour>
        <pt x="-64" y="40" on="1"/>
        <pt x="-64" y="90" on="0"/>
        <pt x="18" y="90" on="1"/>
        <pt x="67" y="90" on="0"/>
        <pt x="144" y="70" on="1"/>
        <pt x="160" y="98" on="0"/>
        <pt x="194" y="184" on="0"/>
        <pt x="205" y="217" on="1"/>
        <pt x="235" y="310" on="1"/>
        <pt x="255" y="371" on="0"/>
        <pt x="263" y="394" on="1"/>
        <pt x="214" y="410" on="0"/>
        <pt x="159" y="470" on="0"/>
        <pt x="159" y="503" on="1"/>
        <pt x="159" y="535" on="0"/>
        <pt x="206" y="589" on="0"/>
        <pt x="243" y="589" on="1"/>
        <pt x="223" y="563" on="0"/>
        <pt x="223" y="521" on="1"/>
        <pt x="223" y="459" on="0"/>
        <pt x="275" y="429" on="1"/>
        <pt x="296" y="493" on="0"/>
        <pt x="336" y="586" on="0"/>
        <pt x="390" y="674" on="0"/>
        <pt x="457" y="720" on="0"/>
        <pt x="496" y="720" on="1"/>
        <pt x="538" y="720" on="0"/>
        <pt x="607" y="669" on="0"/>
        <pt x="607" y="612" on="1"/>
        <pt x="607" y="575" on="0"/>
        <pt x="576" y="498" on="0"/>
        <pt x="516" y="426" on="0"/>
        <pt x="409" y="380" on="0"/>
        <pt x="341" y="380" on="1"/>
        <pt x="264" y="146" on="0"/>
        <pt x="204" y="54" on="1"/>
        <pt x="398" y="-4" on="0"/>
        <pt x="469" y="-4" on="1"/>
        <pt x="512" y="-4" on="0"/>
        <pt x="557" y="18" on="1"/>
        <pt x="519" y="-87" on="0"/>
        <pt x="437" y="-87" on="1"/>
        <pt x="416" y="-87" on="0"/>
        <pt x="366" y="-77" on="0"/>
        <pt x="302" y="-54" on="0"/>
        <pt x="259" y="-37" on="0"/>
        <pt x="180" y="-2" on="0"/>
        <pt x="165" y="4" on="1"/>
        <pt x="111" y="-53" on="0"/>
        <pt x="49" y="-53" on="1"/>
        <pt x="0" y="-53" on="0"/>
        <pt x="-64" y="8" on="0"/>
      </contour>
      <contour>
        <pt x="-28" y="9" on="0"/>
        <pt x="12" y="-16" on="0"/>
        <pt x="39" y="-16" on="1"/>
        <pt x="62" y="-16" on="0"/>
        <pt x="93" y="3" on="0"/>
        <pt x="113" y="24" on="1"/>
        <pt x="42" y="50" on="0"/>
        <pt x="8" y="50" on="1"/>
        <pt x="-28" y="50" on="0"/>
        <pt x="-28" y="27" on="1"/>
      </contour>
      <contour>
        <pt x="352" y="413" on="1"/>
        <pt x="406" y="417" on="0"/>
        <pt x="495" y="500" on="0"/>
        <pt x="537" y="597" on="0"/>
        <pt x="537" y="636" on="1"/>
        <pt x="537" y="681" on="0"/>
        <pt x="504" y="681" on="1"/>
        <pt x="483" y="681" on="0"/>
        <pt x="443" y="641" on="0"/>
        <pt x="403" y="558" on="0"/>
        <pt x="373" y="478" on="0"/>
      </contour>
    </TTGlyph>
    <TTGlyph name="M" xMin="-5" yMin="-87" xMax="792" yMax="720">
      <contour>
        <pt x="-5" y="-87" on="1"/>
        <pt x="1" y="-69" on="0"/>
        <pt x="38" y="10" on="1"/>
        <pt x="158" y="270" on="1"/>
        <pt x="316" y="614" on="1"/>
        <pt x="325" y="634" on="0"/>
        <pt x="325" y="647" on="1"/>
        <pt x="325" y="669" on="0"/>
        <pt x="296" y="669" on="1"/>
        <pt x="239" y="669" on="0"/>
        <pt x="176" y="569" on="0"/>
        <pt x="176" y="508" on="1"/>
        <pt x="176" y="487" on="0"/>
        <pt x="180" y="460" on="1"/>
        <pt x="147" y="460" on="0"/>
        <pt x="109" y="517" on="0"/>
        <pt x="109" y="551" on="1"/>
        <pt x="109" y="614" on="0"/>
        <pt x="242" y="720" on="0"/>
        <pt x="315" y="720" on="1"/>
        <pt x="374" y="720" on="0"/>
        <pt x="432" y="613" on="0"/>
        <pt x="432" y="472" on="1"/>
        <pt x="432" y="400" on="0"/>
        <pt x="413" y="152" on="0"/>
        <pt x="413" y="117" on="1"/>
        <pt x="456" y="246" on="0"/>
        <pt x="637" y="581" on="0"/>
        <pt x="693" y="664" on="1"/>
        <pt x="709" y="689" on="0"/>
        <pt x="731" y="708" on="0"/>
        <pt x="748" y="708" on="1"/>
        <pt x="762" y="708" on="0"/>
        <pt x="792" y="697" on="1"/>
        <pt x="759" y="626" on="0"/>
        <pt x="661" y="143" on="0"/>
        <pt x="661" y="10" on="1"/>
        <pt x="661" y="-3" on="0"/>
        <pt x="662" y="-24" on="0"/>
        <pt x="664" y="-37" on="0"/>
        <pt x="667" y="-46" on="1"/>
        <pt x="670" y="-58" on="1"/>
        <pt x="671" y="-61" on="0"/>
        <pt x="675" y="-72" on="1"/>
        <pt x="681" y="-87" on="1"/>
        <pt x="618" y="-87" on="0"/>
        <pt x="578" y="-31" on="0"/>
        <pt x="578" y="43" on="1"/>
        <pt x="578" y="143" on="0"/>
        <pt x="621" y="367" on="0"/>
        <pt x="663" y="529" on="1"/>
        <pt x="600" y="439" on="0"/>
        <pt x="450" y="109" on="0"/>
        <pt x="414" y="3" on="1"/>
        <pt x="407" y="1" on="1"/>
        <pt x="400" y="-2" on="0"/>
        <pt x="393" y="-2" on="1"/>
        <pt x="360" y="-2" on="0"/>
        <pt x="339" y="74" on="0"/>
        <pt x="339" y="157" on="1"/>
        <pt x="339" y="208" on="0"/>
        <pt x="347" y="454" on="0"/>
        <pt x="347" y="512" on="1"/>
        <pt x="347" y="522" on="0"/>
        <pt x="346" y="562" on="0"/>
        <pt x="346" y="571" on="1"/>
        <pt x="284" y="425" on="1"/>
        <pt x="229" y="297" on="1"/>
        <pt x="185" y="191" on="1"/>
        <pt x="161" y="135" on="0"/>
        <pt x="146" y="101" on="1"/>
        <pt x="112" y="32" on="1"/>
        <pt x="94" y="-3" on="0"/>
        <pt x="68" y="-41" on="0"/>
        <pt x="38" y="-74" on="0"/>
        <pt x="10" y="-87" on="0"/>
      </contour>
    </TTGlyph>
    <TTGlyph name="M.salt" xMin="-90" yMin="-103" xMax="977" yMax="719">
      <contour>
        <pt x="-90" y="-27" on="1"/>
        <pt x="-90" y="-1" on="0"/>
        <pt x="-72" y="21" on="1"/>
        <pt x="-34" y="-33" on="0"/>
        <pt x="26" y="-33" on="1"/>
        <pt x="116" y="-33" on="0"/>
        <pt x="204" y="93" on="1"/>
        <pt x="273" y="192" on="0"/>
        <pt x="401" y="475" on="0"/>
        <pt x="401" y="560" on="1"/>
        <pt x="401" y="614" on="0"/>
        <pt x="348" y="687" on="0"/>
        <pt x="312" y="687" on="1"/>
        <pt x="274" y="687" on="0"/>
        <pt x="233" y="606" on="0"/>
        <pt x="233" y="558" on="1"/>
        <pt x="233" y="513" on="0"/>
        <pt x="257" y="475" on="1"/>
        <pt x="165" y="504" on="0"/>
        <pt x="165" y="581" on="1"/>
        <pt x="165" y="633" on="0"/>
        <pt x="246" y="719" on="0"/>
        <pt x="313" y="719" on="1"/>
        <pt x="408" y="719" on="0"/>
        <pt x="504" y="526" on="0"/>
        <pt x="504" y="343" on="1"/>
        <pt x="504" y="258" on="0"/>
        <pt x="497" y="178" on="1"/>
        <pt x="545" y="269" on="0"/>
        <pt x="687" y="486" on="0"/>
        <pt x="848" y="670" on="0"/>
        <pt x="890" y="670" on="1"/>
        <pt x="905" y="670" on="0"/>
        <pt x="927" y="648" on="0"/>
        <pt x="930" y="632" on="1"/>
        <pt x="852" y="564" on="0"/>
        <pt x="699" y="205" on="0"/>
        <pt x="699" y="67" on="1"/>
        <pt x="699" y="-28" on="0"/>
        <pt x="753" y="-28" on="1"/>
        <pt x="801" y="-28" on="0"/>
        <pt x="921" y="83" on="0"/>
        <pt x="960" y="175" on="1"/>
        <pt x="977" y="161" on="1"/>
        <pt x="935" y="60" on="0"/>
        <pt x="803" y="-69" on="0"/>
        <pt x="741" y="-69" on="1"/>
        <pt x="690" y="-69" on="0"/>
        <pt x="615" y="18" on="0"/>
        <pt x="615" y="95" on="1"/>
        <pt x="615" y="162" on="0"/>
        <pt x="669" y="360" on="0"/>
        <pt x="706" y="443" on="1"/>
        <pt x="635" y="343" on="0"/>
        <pt x="549" y="196" on="0"/>
        <pt x="511" y="111" on="0"/>
        <pt x="477" y="21" on="1"/>
        <pt x="475" y="14" on="0"/>
        <pt x="453" y="-15" on="0"/>
        <pt x="449" y="-15" on="1"/>
        <pt x="446" y="-15" on="0"/>
        <pt x="430" y="-7" on="0"/>
        <pt x="412" y="21" on="0"/>
        <pt x="412" y="41" on="1"/>
        <pt x="412" y="44" on="0"/>
        <pt x="431" y="225" on="0"/>
        <pt x="431" y="308" on="1"/>
        <pt x="431" y="408" on="0"/>
        <pt x="424" y="478" on="1"/>
        <pt x="410" y="427" on="0"/>
        <pt x="356" y="290" on="0"/>
        <pt x="271" y="125" on="0"/>
        <pt x="178" y="-11" on="0"/>
        <pt x="60" y="-103" on="0"/>
        <pt x="5" y="-103" on="1"/>
        <pt x="-36" y="-103" on="0"/>
        <pt x="-90" y="-58" on="0"/>
      </contour>
    </TTGlyph>
    <TTGlyph name="N" xMin="56" yMin="-87" xMax="707" yMax="721">
      <contour>
        <pt x="56" y="-87" on="1"/>
        <pt x="268" y="616" on="1"/>
        <pt x="275" y="644" on="0"/>
        <pt x="275" y="655" on="1"/>
        <pt x="275" y="669" on="0"/>
        <pt x="262" y="669" on="1"/>
        <pt x="222" y="669" on="0"/>
        <pt x="154" y="555" on="0"/>
        <pt x="154" y="507" on="1"/>
        <pt x="154" y="483" on="0"/>
        <pt x="164" y="460" on="1"/>
        <pt x="84" y="460" on="0"/>
        <pt x="84" y="590" on="0"/>
        <pt x="230" y="720" on="0"/>
        <pt x="291" y="720" on="1"/>
        <pt x="308" y="720" on="0"/>
        <pt x="337" y="708" on="0"/>
        <pt x="360" y="679" on="0"/>
        <pt x="378" y="651" on="0"/>
        <pt x="394" y="598" on="0"/>
        <pt x="404" y="560" on="0"/>
        <pt x="417" y="489" on="0"/>
        <pt x="423" y="447" on="0"/>
        <pt x="429" y="407" on="1"/>
        <pt x="460" y="192" on="0"/>
        <pt x="475" y="114" on="1"/>
        <pt x="487" y="163" on="0"/>
        <pt x="511" y="266" on="1"/>
        <pt x="551" y="436" on="1"/>
        <pt x="567" y="501" on="0"/>
        <pt x="609" y="639" on="0"/>
        <pt x="626" y="668" on="1"/>
        <pt x="656" y="721" on="0"/>
        <pt x="707" y="721" on="1"/>
        <pt x="649" y="570" on="0"/>
        <pt x="511" y="23" on="0"/>
        <pt x="511" y="-87" on="1"/>
        <pt x="472" y="-87" on="0"/>
        <pt x="426" y="-50" on="0"/>
        <pt x="415" y="-1" on="1"/>
        <pt x="411" y="15" on="0"/>
        <pt x="312" y="555" on="1"/>
        <pt x="195" y="130" on="0"/>
        <pt x="111" y="-87" on="0"/>
      </contour>
    </TTGlyph>
    <TTGlyph name="Ntilde" xMin="56" yMin="-87" xMax="708" yMax="859">
      <contour>
        <pt x="56" y="-87" on="1"/>
        <pt x="268" y="616" on="1"/>
        <pt x="275" y="644" on="0"/>
        <pt x="275" y="655" on="1"/>
        <pt x="275" y="669" on="0"/>
        <pt x="262" y="669" on="1"/>
        <pt x="222" y="669" on="0"/>
        <pt x="154" y="555" on="0"/>
        <pt x="154" y="507" on="1"/>
        <pt x="154" y="483" on="0"/>
        <pt x="164" y="460" on="1"/>
        <pt x="84" y="460" on="0"/>
        <pt x="84" y="590" on="0"/>
        <pt x="230" y="720" on="0"/>
        <pt x="291" y="720" on="1"/>
        <pt x="308" y="720" on="0"/>
        <pt x="337" y="708" on="0"/>
        <pt x="360" y="679" on="0"/>
        <pt x="378" y="651" on="0"/>
        <pt x="394" y="598" on="0"/>
        <pt x="404" y="560" on="0"/>
        <pt x="417" y="489" on="0"/>
        <pt x="423" y="447" on="0"/>
        <pt x="429" y="407" on="1"/>
        <pt x="460" y="192" on="0"/>
        <pt x="475" y="114" on="1"/>
        <pt x="487" y="163" on="0"/>
        <pt x="511" y="266" on="1"/>
        <pt x="551" y="436" on="1"/>
        <pt x="567" y="501" on="0"/>
        <pt x="609" y="639" on="0"/>
        <pt x="626" y="668" on="1"/>
        <pt x="656" y="721" on="0"/>
        <pt x="707" y="721" on="1"/>
        <pt x="649" y="570" on="0"/>
        <pt x="511" y="23" on="0"/>
        <pt x="511" y="-87" on="1"/>
        <pt x="472" y="-87" on="0"/>
        <pt x="426" y="-50" on="0"/>
        <pt x="415" y="-1" on="1"/>
        <pt x="411" y="15" on="0"/>
        <pt x="312" y="555" on="1"/>
        <pt x="195" y="130" on="0"/>
        <pt x="111" y="-87" on="0"/>
      </contour>
      <contour>
        <pt x="363" y="802" on="1"/>
        <pt x="382" y="824" on="0"/>
        <pt x="434" y="859" on="0"/>
        <pt x="453" y="859" on="1"/>
        <pt x="482" y="859" on="0"/>
        <pt x="606" y="819" on="0"/>
        <pt x="640" y="819" on="1"/>
        <pt x="667" y="819" on="0"/>
        <pt x="708" y="826" on="1"/>
        <pt x="657" y="772" on="0"/>
        <pt x="616" y="772" on="1"/>
        <pt x="585" y="772" on="0"/>
        <pt x="454" y="810" on="0"/>
        <pt x="425" y="810" on="1"/>
        <pt x="409" y="810" on="0"/>
      </contour>
    </TTGlyph>
    <TTGlyph name="O" xMin="32" yMin="-87" xMax="644" yMax="719">
      <contour>
        <pt x="32" y="164" on="1"/>
        <pt x="32" y="290" on="0"/>
        <pt x="157" y="549" on="0"/>
        <pt x="363" y="719" on="0"/>
        <pt x="470" y="719" on="1"/>
        <pt x="511" y="719" on="0"/>
        <pt x="538" y="691" on="1"/>
        <pt x="522" y="693" on="0"/>
        <pt x="509" y="693" on="1"/>
        <pt x="425" y="693" on="0"/>
        <pt x="249" y="525" on="0"/>
        <pt x="136" y="273" on="0"/>
        <pt x="136" y="158" on="1"/>
        <pt x="136" y="72" on="0"/>
        <pt x="205" y="-39" on="0"/>
        <pt x="277" y="-39" on="1"/>
        <pt x="343" y="-39" on="0"/>
        <pt x="464" y="63" on="0"/>
        <pt x="544" y="220" on="0"/>
        <pt x="592" y="403" on="0"/>
        <pt x="592" y="486" on="1"/>
        <pt x="592" y="541" on="0"/>
        <pt x="571" y="630" on="0"/>
        <pt x="547" y="630" on="1"/>
        <pt x="515" y="630" on="0"/>
        <pt x="430" y="483" on="0"/>
        <pt x="417" y="419" on="1"/>
        <pt x="354" y="432" on="0"/>
        <pt x="354" y="477" on="1"/>
        <pt x="354" y="531" on="0"/>
        <pt x="492" y="671" on="0"/>
        <pt x="549" y="671" on="1"/>
        <pt x="577" y="671" on="0"/>
        <pt x="617" y="629" on="0"/>
        <pt x="636" y="558" on="0"/>
        <pt x="644" y="488" on="0"/>
        <pt x="644" y="450" on="1"/>
        <pt x="644" y="328" on="0"/>
        <pt x="566" y="119" on="0"/>
        <pt x="446" y="-13" on="0"/>
        <pt x="307" y="-87" on="0"/>
        <pt x="242" y="-87" on="1"/>
        <pt x="152" y="-87" on="0"/>
        <pt x="32" y="50" on="0"/>
      </contour>
    </TTGlyph>
    <TTGlyph name="OE" xMin="32" yMin="-88" xMax="878" yMax="719">
      <contour>
        <pt x="32" y="164" on="1"/>
        <pt x="32" y="290" on="0"/>
        <pt x="158" y="549" on="0"/>
        <pt x="359" y="719" on="0"/>
        <pt x="459" y="719" on="1"/>
        <pt x="506" y="719" on="0"/>
        <pt x="525" y="693" on="1"/>
        <pt x="434" y="693" on="0"/>
        <pt x="250" y="524" on="0"/>
        <pt x="136" y="274" on="0"/>
        <pt x="136" y="158" on="1"/>
        <pt x="136" y="73" on="0"/>
        <pt x="205" y="-39" on="0"/>
        <pt x="274" y="-39" on="1"/>
        <pt x="351" y="-39" on="0"/>
        <pt x="486" y="133" on="0"/>
        <pt x="560" y="378" on="0"/>
        <pt x="560" y="494" on="1"/>
        <pt x="560" y="537" on="0"/>
        <pt x="551" y="596" on="0"/>
        <pt x="539" y="619" on="0"/>
        <pt x="531" y="619" on="1"/>
        <pt x="495" y="619" on="0"/>
        <pt x="416" y="419" on="1"/>
        <pt x="354" y="433" on="0"/>
        <pt x="354" y="475" on="1"/>
        <pt x="354" y="530" on="0"/>
        <pt x="488" y="669" on="0"/>
        <pt x="543" y="672" on="1"/>
        <pt x="594" y="675" on="0"/>
        <pt x="666" y="675" on="1"/>
        <pt x="818" y="675" on="0"/>
        <pt x="878" y="656" on="1"/>
        <pt x="862" y="609" on="0"/>
        <pt x="693" y="609" on="1"/>
        <pt x="684" y="609" on="0"/>
        <pt x="635" y="611" on="0"/>
        <pt x="618" y="611" on="1"/>
        <pt x="628" y="576" on="0"/>
        <pt x="628" y="526" on="1"/>
        <pt x="628" y="438" on="0"/>
        <pt x="620" y="372" on="1"/>
        <pt x="763" y="370" on="0"/>
        <pt x="833" y="361" on="1"/>
        <pt x="810" y="299" on="0"/>
        <pt x="680" y="299" on="1"/>
        <pt x="648" y="299" on="0"/>
        <pt x="608" y="301" on="1"/>
        <pt x="577" y="161" on="0"/>
        <pt x="519" y="13" on="0"/>
        <pt x="461" y="-29" on="1"/>
        <pt x="509" y="-30" on="0"/>
        <pt x="613" y="-30" on="1"/>
        <pt x="627" y="-30" on="0"/>
        <pt x="720" y="-26" on="0"/>
        <pt x="737" y="-26" on="1"/>
        <pt x="755" y="-26" on="0"/>
        <pt x="767" y="-29" on="1"/>
        <pt x="756" y="-58" on="0"/>
        <pt x="561" y="-88" on="0"/>
        <pt x="447" y="-88" on="1"/>
        <pt x="419" y="-88" on="0"/>
        <pt x="297" y="-87" on="0"/>
        <pt x="267" y="-87" on="1"/>
        <pt x="160" y="-87" on="0"/>
        <pt x="32" y="40" on="0"/>
      </contour>
    </TTGlyph>
    <TTGlyph name="Oacute" xMin="32" yMin="-87" xMax="644" yMax="946">
      <contour>
        <pt x="32" y="164" on="1"/>
        <pt x="32" y="290" on="0"/>
        <pt x="157" y="549" on="0"/>
        <pt x="363" y="719" on="0"/>
        <pt x="470" y="719" on="1"/>
        <pt x="511" y="719" on="0"/>
        <pt x="538" y="691" on="1"/>
        <pt x="522" y="693" on="0"/>
        <pt x="509" y="693" on="1"/>
        <pt x="425" y="693" on="0"/>
        <pt x="249" y="525" on="0"/>
        <pt x="136" y="273" on="0"/>
        <pt x="136" y="158" on="1"/>
        <pt x="136" y="72" on="0"/>
        <pt x="205" y="-39" on="0"/>
        <pt x="277" y="-39" on="1"/>
        <pt x="343" y="-39" on="0"/>
        <pt x="464" y="63" on="0"/>
        <pt x="544" y="220" on="0"/>
        <pt x="592" y="403" on="0"/>
        <pt x="592" y="486" on="1"/>
        <pt x="592" y="541" on="0"/>
        <pt x="571" y="630" on="0"/>
        <pt x="547" y="630" on="1"/>
        <pt x="515" y="630" on="0"/>
        <pt x="430" y="483" on="0"/>
        <pt x="417" y="419" on="1"/>
        <pt x="354" y="432" on="0"/>
        <pt x="354" y="477" on="1"/>
        <pt x="354" y="531" on="0"/>
        <pt x="492" y="671" on="0"/>
        <pt x="549" y="671" on="1"/>
        <pt x="577" y="671" on="0"/>
        <pt x="617" y="629" on="0"/>
        <pt x="636" y="558" on="0"/>
        <pt x="644" y="488" on="0"/>
        <pt x="644" y="450" on="1"/>
        <pt x="644" y="328" on="0"/>
        <pt x="566" y="119" on="0"/>
        <pt x="446" y="-13" on="0"/>
        <pt x="307" y="-87" on="0"/>
        <pt x="242" y="-87" on="1"/>
        <pt x="152" y="-87" on="0"/>
        <pt x="32" y="50" on="0"/>
      </contour>
      <contour>
        <pt x="482" y="831" on="1"/>
        <pt x="482" y="851" on="0"/>
        <pt x="557" y="946" on="0"/>
        <pt x="585" y="946" on="1"/>
        <pt x="611" y="946" on="0"/>
        <pt x="615" y="911" on="1"/>
        <pt x="530" y="829" on="0"/>
        <pt x="506" y="798" on="1"/>
        <pt x="495" y="803" on="0"/>
        <pt x="482" y="824" on="0"/>
      </contour>
    </TTGlyph>
    <TTGlyph name="Ocircumflex" xMin="32" yMin="-87" xMax="644" yMax="938">
      <contour>
        <pt x="32" y="164" on="1"/>
        <pt x="32" y="290" on="0"/>
        <pt x="157" y="549" on="0"/>
        <pt x="363" y="719" on="0"/>
        <pt x="470" y="719" on="1"/>
        <pt x="511" y="719" on="0"/>
        <pt x="538" y="691" on="1"/>
        <pt x="522" y="693" on="0"/>
        <pt x="509" y="693" on="1"/>
        <pt x="425" y="693" on="0"/>
        <pt x="249" y="525" on="0"/>
        <pt x="136" y="273" on="0"/>
        <pt x="136" y="158" on="1"/>
        <pt x="136" y="72" on="0"/>
        <pt x="205" y="-39" on="0"/>
        <pt x="277" y="-39" on="1"/>
        <pt x="343" y="-39" on="0"/>
        <pt x="464" y="63" on="0"/>
        <pt x="544" y="220" on="0"/>
        <pt x="592" y="403" on="0"/>
        <pt x="592" y="486" on="1"/>
        <pt x="592" y="541" on="0"/>
        <pt x="571" y="630" on="0"/>
        <pt x="547" y="630" on="1"/>
        <pt x="515" y="630" on="0"/>
        <pt x="430" y="483" on="0"/>
        <pt x="417" y="419" on="1"/>
        <pt x="354" y="432" on="0"/>
        <pt x="354" y="477" on="1"/>
        <pt x="354" y="531" on="0"/>
        <pt x="492" y="671" on="0"/>
        <pt x="549" y="671" on="1"/>
        <pt x="577" y="671" on="0"/>
        <pt x="617" y="629" on="0"/>
        <pt x="636" y="558" on="0"/>
        <pt x="644" y="488" on="0"/>
        <pt x="644" y="450" on="1"/>
        <pt x="644" y="328" on="0"/>
        <pt x="566" y="119" on="0"/>
        <pt x="446" y="-13" on="0"/>
        <pt x="307" y="-87" on="0"/>
        <pt x="242" y="-87" on="1"/>
        <pt x="152" y="-87" on="0"/>
        <pt x="32" y="50" on="0"/>
      </contour>
      <contour>
        <pt x="422" y="852" on="1"/>
        <pt x="422" y="879" on="0"/>
        <pt x="512" y="938" on="0"/>
        <pt x="538" y="938" on="1"/>
        <pt x="563" y="938" on="0"/>
        <pt x="634" y="862" on="0"/>
        <pt x="634" y="832" on="1"/>
        <pt x="634" y="806" on="0"/>
        <pt x="609" y="793" on="1"/>
        <pt x="586" y="832" on="0"/>
        <pt x="537" y="876" on="1"/>
        <pt x="491" y="861" on="0"/>
        <pt x="435" y="824" on="1"/>
        <pt x="422" y="832" on="0"/>
      </contour>
    </TTGlyph>
    <TTGlyph name="Odieresis" xMin="32" yMin="-87" xMax="653" yMax="905">
      <contour>
        <pt x="32" y="164" on="1"/>
        <pt x="32" y="290" on="0"/>
        <pt x="157" y="549" on="0"/>
        <pt x="363" y="719" on="0"/>
        <pt x="470" y="719" on="1"/>
        <pt x="511" y="719" on="0"/>
        <pt x="538" y="691" on="1"/>
        <pt x="522" y="693" on="0"/>
        <pt x="509" y="693" on="1"/>
        <pt x="425" y="693" on="0"/>
        <pt x="249" y="525" on="0"/>
        <pt x="136" y="273" on="0"/>
        <pt x="136" y="158" on="1"/>
        <pt x="136" y="72" on="0"/>
        <pt x="205" y="-39" on="0"/>
        <pt x="277" y="-39" on="1"/>
        <pt x="343" y="-39" on="0"/>
        <pt x="464" y="63" on="0"/>
        <pt x="544" y="220" on="0"/>
        <pt x="592" y="403" on="0"/>
        <pt x="592" y="486" on="1"/>
        <pt x="592" y="541" on="0"/>
        <pt x="571" y="630" on="0"/>
        <pt x="547" y="630" on="1"/>
        <pt x="515" y="630" on="0"/>
        <pt x="430" y="483" on="0"/>
        <pt x="417" y="419" on="1"/>
        <pt x="354" y="432" on="0"/>
        <pt x="354" y="477" on="1"/>
        <pt x="354" y="531" on="0"/>
        <pt x="492" y="671" on="0"/>
        <pt x="549" y="671" on="1"/>
        <pt x="577" y="671" on="0"/>
        <pt x="617" y="629" on="0"/>
        <pt x="636" y="558" on="0"/>
        <pt x="644" y="488" on="0"/>
        <pt x="644" y="450" on="1"/>
        <pt x="644" y="328" on="0"/>
        <pt x="566" y="119" on="0"/>
        <pt x="446" y="-13" on="0"/>
        <pt x="307" y="-87" on="0"/>
        <pt x="242" y="-87" on="1"/>
        <pt x="152" y="-87" on="0"/>
        <pt x="32" y="50" on="0"/>
      </contour>
      <contour>
        <pt x="404" y="857" on="1"/>
        <pt x="404" y="875" on="0"/>
        <pt x="448" y="905" on="0"/>
        <pt x="471" y="905" on="1"/>
        <pt x="507" y="905" on="0"/>
        <pt x="507" y="873" on="1"/>
        <pt x="507" y="855" on="0"/>
        <pt x="469" y="823" on="0"/>
        <pt x="447" y="823" on="1"/>
        <pt x="429" y="823" on="0"/>
        <pt x="404" y="840" on="0"/>
      </contour>
      <contour>
        <pt x="549" y="837" on="1"/>
        <pt x="549" y="856" on="0"/>
        <pt x="592" y="885" on="0"/>
        <pt x="616" y="885" on="1"/>
        <pt x="653" y="885" on="0"/>
        <pt x="653" y="852" on="1"/>
        <pt x="653" y="834" on="0"/>
        <pt x="614" y="803" on="0"/>
        <pt x="591" y="803" on="1"/>
        <pt x="574" y="803" on="0"/>
        <pt x="549" y="821" on="0"/>
      </contour>
    </TTGlyph>
    <TTGlyph name="Ograve" xMin="32" yMin="-87" xMax="644" yMax="946">
      <contour>
        <pt x="32" y="164" on="1"/>
        <pt x="32" y="290" on="0"/>
        <pt x="157" y="549" on="0"/>
        <pt x="363" y="719" on="0"/>
        <pt x="470" y="719" on="1"/>
        <pt x="511" y="719" on="0"/>
        <pt x="538" y="691" on="1"/>
        <pt x="522" y="693" on="0"/>
        <pt x="509" y="693" on="1"/>
        <pt x="425" y="693" on="0"/>
        <pt x="249" y="525" on="0"/>
        <pt x="136" y="273" on="0"/>
        <pt x="136" y="158" on="1"/>
        <pt x="136" y="72" on="0"/>
        <pt x="205" y="-39" on="0"/>
        <pt x="277" y="-39" on="1"/>
        <pt x="343" y="-39" on="0"/>
        <pt x="464" y="63" on="0"/>
        <pt x="544" y="220" on="0"/>
        <pt x="592" y="403" on="0"/>
        <pt x="592" y="486" on="1"/>
        <pt x="592" y="541" on="0"/>
        <pt x="571" y="630" on="0"/>
        <pt x="547" y="630" on="1"/>
        <pt x="515" y="630" on="0"/>
        <pt x="430" y="483" on="0"/>
        <pt x="417" y="419" on="1"/>
        <pt x="354" y="432" on="0"/>
        <pt x="354" y="477" on="1"/>
        <pt x="354" y="531" on="0"/>
        <pt x="492" y="671" on="0"/>
        <pt x="549" y="671" on="1"/>
        <pt x="577" y="671" on="0"/>
        <pt x="617" y="629" on="0"/>
        <pt x="636" y="558" on="0"/>
        <pt x="644" y="488" on="0"/>
        <pt x="644" y="450" on="1"/>
        <pt x="644" y="328" on="0"/>
        <pt x="566" y="119" on="0"/>
        <pt x="446" y="-13" on="0"/>
        <pt x="307" y="-87" on="0"/>
        <pt x="242" y="-87" on="1"/>
        <pt x="152" y="-87" on="0"/>
        <pt x="32" y="50" on="0"/>
      </contour>
      <contour>
        <pt x="437" y="907" on="1"/>
        <pt x="438" y="926" on="0"/>
        <pt x="457" y="946" on="0"/>
        <pt x="469" y="946" on="1"/>
        <pt x="497" y="946" on="0"/>
        <pt x="579" y="854" on="0"/>
        <pt x="579" y="833" on="1"/>
        <pt x="579" y="824" on="0"/>
        <pt x="565" y="802" on="0"/>
        <pt x="554" y="797" on="1"/>
        <pt x="505" y="855" on="0"/>
      </contour>
    </TTGlyph>
    <TTGlyph name="Oslash" xMin="30" yMin="-101" xMax="710" yMax="718">
      <contour>
        <pt x="30" y="166" on="1"/>
        <pt x="30" y="290" on="0"/>
        <pt x="157" y="549" on="0"/>
        <pt x="359" y="718" on="0"/>
        <pt x="460" y="718" on="1"/>
        <pt x="504" y="718" on="0"/>
        <pt x="523" y="692" on="1"/>
        <pt x="509" y="692" on="1"/>
        <pt x="424" y="692" on="0"/>
        <pt x="248" y="524" on="0"/>
        <pt x="135" y="273" on="0"/>
        <pt x="135" y="158" on="1"/>
        <pt x="135" y="79" on="0"/>
        <pt x="161" y="28" on="1"/>
        <pt x="313" y="212" on="0"/>
        <pt x="572" y="603" on="1"/>
        <pt x="561" y="629" on="0"/>
        <pt x="546" y="629" on="1"/>
        <pt x="514" y="629" on="0"/>
        <pt x="428" y="480" on="0"/>
        <pt x="415" y="418" on="1"/>
        <pt x="353" y="432" on="0"/>
        <pt x="353" y="476" on="1"/>
        <pt x="353" y="530" on="0"/>
        <pt x="491" y="670" on="0"/>
        <pt x="545" y="670" on="1"/>
        <pt x="577" y="670" on="0"/>
        <pt x="600" y="642" on="1"/>
        <pt x="608" y="653" on="0"/>
        <pt x="658" y="671" on="0"/>
        <pt x="681" y="671" on="1"/>
        <pt x="693" y="671" on="0"/>
        <pt x="710" y="668" on="1"/>
        <pt x="703" y="659" on="0"/>
        <pt x="634" y="559" on="1"/>
        <pt x="644" y="515" on="0"/>
        <pt x="644" y="456" on="1"/>
        <pt x="644" y="355" on="0"/>
        <pt x="593" y="176" on="0"/>
        <pt x="509" y="50" on="0"/>
        <pt x="403" y="-43" on="0"/>
        <pt x="294" y="-88" on="0"/>
        <pt x="243" y="-88" on="1"/>
        <pt x="200" y="-88" on="0"/>
        <pt x="157" y="-70" on="1"/>
        <pt x="110" y="-101" on="0"/>
        <pt x="70" y="-101" on="1"/>
        <pt x="57" y="-101" on="0"/>
        <pt x="32" y="-96" on="1"/>
        <pt x="70" y="-71" on="0"/>
        <pt x="104" y="-34" on="1"/>
        <pt x="30" y="37" on="0"/>
      </contour>
      <contour>
        <pt x="211" y="-25" on="1"/>
        <pt x="239" y="-40" on="0"/>
        <pt x="273" y="-40" on="1"/>
        <pt x="341" y="-40" on="0"/>
        <pt x="463" y="63" on="0"/>
        <pt x="544" y="222" on="0"/>
        <pt x="591" y="410" on="0"/>
        <pt x="591" y="497" on="1"/>
        <pt x="271" y="46" on="1"/>
        <pt x="236" y="-1" on="0"/>
      </contour>
    </TTGlyph>
    <TTGlyph name="Otilde" xMin="32" yMin="-87" xMax="738" yMax="859">
      <contour>
        <pt x="32" y="164" on="1"/>
        <pt x="32" y="290" on="0"/>
        <pt x="157" y="549" on="0"/>
        <pt x="363" y="719" on="0"/>
        <pt x="470" y="719" on="1"/>
        <pt x="511" y="719" on="0"/>
        <pt x="538" y="691" on="1"/>
        <pt x="522" y="693" on="0"/>
        <pt x="509" y="693" on="1"/>
        <pt x="425" y="693" on="0"/>
        <pt x="249" y="525" on="0"/>
        <pt x="136" y="273" on="0"/>
        <pt x="136" y="158" on="1"/>
        <pt x="136" y="72" on="0"/>
        <pt x="205" y="-39" on="0"/>
        <pt x="277" y="-39" on="1"/>
        <pt x="343" y="-39" on="0"/>
        <pt x="464" y="63" on="0"/>
        <pt x="544" y="220" on="0"/>
        <pt x="592" y="403" on="0"/>
        <pt x="592" y="486" on="1"/>
        <pt x="592" y="541" on="0"/>
        <pt x="571" y="630" on="0"/>
        <pt x="547" y="630" on="1"/>
        <pt x="515" y="630" on="0"/>
        <pt x="430" y="483" on="0"/>
        <pt x="417" y="419" on="1"/>
        <pt x="354" y="432" on="0"/>
        <pt x="354" y="477" on="1"/>
        <pt x="354" y="531" on="0"/>
        <pt x="492" y="671" on="0"/>
        <pt x="549" y="671" on="1"/>
        <pt x="577" y="671" on="0"/>
        <pt x="617" y="629" on="0"/>
        <pt x="636" y="558" on="0"/>
        <pt x="644" y="488" on="0"/>
        <pt x="644" y="450" on="1"/>
        <pt x="644" y="328" on="0"/>
        <pt x="566" y="119" on="0"/>
        <pt x="446" y="-13" on="0"/>
        <pt x="307" y="-87" on="0"/>
        <pt x="242" y="-87" on="1"/>
        <pt x="152" y="-87" on="0"/>
        <pt x="32" y="50" on="0"/>
      </contour>
      <contour>
        <pt x="393" y="802" on="1"/>
        <pt x="412" y="824" on="0"/>
        <pt x="464" y="859" on="0"/>
        <pt x="483" y="859" on="1"/>
        <pt x="512" y="859" on="0"/>
        <pt x="636" y="819" on="0"/>
        <pt x="670" y="819" on="1"/>
        <pt x="697" y="819" on="0"/>
        <pt x="738" y="826" on="1"/>
        <pt x="687" y="772" on="0"/>
        <pt x="646" y="772" on="1"/>
        <pt x="615" y="772" on="0"/>
        <pt x="484" y="810" on="0"/>
        <pt x="455" y="810" on="1"/>
        <pt x="439" y="810" on="0"/>
      </contour>
    </TTGlyph>
    <TTGlyph name="P" xMin="34" yMin="-87" xMax="628" yMax="720">
      <contour>
        <pt x="34" y="-30" on="1"/>
        <pt x="34" y="-13" on="0"/>
        <pt x="47" y="26" on="1"/>
        <pt x="125" y="265" on="1"/>
        <pt x="150" y="341" on="0"/>
        <pt x="238" y="571" on="0"/>
        <pt x="286" y="677" on="1"/>
        <pt x="253" y="670" on="0"/>
        <pt x="192" y="643" on="0"/>
        <pt x="157" y="625" on="0"/>
        <pt x="152" y="625" on="1"/>
        <pt x="143" y="625" on="0"/>
        <pt x="114" y="654" on="0"/>
        <pt x="114" y="664" on="1"/>
        <pt x="248" y="720" on="0"/>
        <pt x="349" y="720" on="1"/>
        <pt x="415" y="720" on="0"/>
        <pt x="539" y="678" on="0"/>
        <pt x="628" y="585" on="0"/>
        <pt x="628" y="524" on="1"/>
        <pt x="628" y="464" on="0"/>
        <pt x="557" y="373" on="0"/>
        <pt x="460" y="326" on="0"/>
        <pt x="338" y="296" on="0"/>
        <pt x="258" y="289" on="0"/>
        <pt x="228" y="289" on="1"/>
        <pt x="222" y="289" on="1"/>
        <pt x="117" y="-87" on="1"/>
        <pt x="86" y="-87" on="0"/>
        <pt x="34" y="-54" on="0"/>
      </contour>
      <contour>
        <pt x="231" y="320" on="1"/>
        <pt x="311" y="325" on="0"/>
        <pt x="448" y="373" on="0"/>
        <pt x="545" y="473" on="0"/>
        <pt x="545" y="540" on="1"/>
        <pt x="545" y="609" on="0"/>
        <pt x="439" y="683" on="0"/>
        <pt x="363" y="685" on="1"/>
        <pt x="303" y="569" on="0"/>
      </contour>
    </TTGlyph>
    <TTGlyph name="Q" xMin="44" yMin="-119" xMax="677" yMax="720">
      <contour>
        <pt x="44" y="201" on="1"/>
        <pt x="44" y="326" on="0"/>
        <pt x="149" y="563" on="0"/>
        <pt x="341" y="720" on="0"/>
        <pt x="454" y="720" on="1"/>
        <pt x="557" y="720" on="0"/>
        <pt x="677" y="588" on="0"/>
        <pt x="677" y="472" on="1"/>
        <pt x="677" y="349" on="0"/>
        <pt x="550" y="80" on="0"/>
        <pt x="455" y="2" on="1"/>
        <pt x="533" y="-37" on="0"/>
        <pt x="598" y="-37" on="1"/>
        <pt x="614" y="-37" on="0"/>
        <pt x="635" y="-33" on="0"/>
        <pt x="660" y="-24" on="0"/>
        <pt x="669" y="-22" on="1"/>
        <pt x="640" y="-119" on="0"/>
        <pt x="559" y="-119" on="1"/>
        <pt x="516" y="-119" on="0"/>
        <pt x="438" y="-77" on="0"/>
        <pt x="390" y="-39" on="1"/>
        <pt x="338" y="-64" on="0"/>
        <pt x="283" y="-64" on="1"/>
        <pt x="247" y="-64" on="0"/>
        <pt x="196" y="-43" on="0"/>
        <pt x="173" y="-12" on="0"/>
        <pt x="164" y="14" on="0"/>
        <pt x="164" y="26" on="1"/>
        <pt x="164" y="50" on="0"/>
        <pt x="204" y="88" on="0"/>
        <pt x="246" y="88" on="1"/>
        <pt x="272" y="88" on="0"/>
        <pt x="333" y="68" on="0"/>
        <pt x="373" y="48" on="0"/>
        <pt x="411" y="26" on="1"/>
        <pt x="492" y="99" on="0"/>
        <pt x="591" y="382" on="0"/>
        <pt x="591" y="496" on="1"/>
        <pt x="591" y="581" on="0"/>
        <pt x="524" y="679" on="0"/>
        <pt x="454" y="679" on="1"/>
        <pt x="363" y="679" on="0"/>
        <pt x="209" y="509" on="0"/>
        <pt x="130" y="272" on="0"/>
        <pt x="130" y="157" on="1"/>
        <pt x="130" y="103" on="0"/>
        <pt x="142" y="57" on="1"/>
        <pt x="44" y="57" on="0"/>
      </contour>
      <contour>
        <pt x="194" y="19" on="1"/>
        <pt x="194" y="-1" on="0"/>
        <pt x="229" y="-34" on="0"/>
        <pt x="265" y="-34" on="1"/>
        <pt x="304" y="-34" on="0"/>
        <pt x="354" y="-10" on="1"/>
        <pt x="281" y="50" on="0"/>
        <pt x="236" y="50" on="1"/>
        <pt x="235" y="50" on="1"/>
        <pt x="194" y="50" on="0"/>
      </contour>
    </TTGlyph>
    <TTGlyph name="R" xMin="31" yMin="-121" xMax="622" yMax="720">
      <contour>
        <pt x="31" y="-30" on="1"/>
        <pt x="31" y="-19" on="0"/>
        <pt x="45" y="25" on="1"/>
        <pt x="122" y="259" on="0"/>
        <pt x="209" y="494" on="0"/>
        <pt x="290" y="679" on="1"/>
        <pt x="256" y="672" on="0"/>
        <pt x="190" y="645" on="0"/>
        <pt x="153" y="625" on="0"/>
        <pt x="148" y="625" on="1"/>
        <pt x="139" y="625" on="0"/>
        <pt x="108" y="653" on="0"/>
        <pt x="108" y="664" on="1"/>
        <pt x="248" y="720" on="0"/>
        <pt x="349" y="720" on="1"/>
        <pt x="397" y="720" on="0"/>
        <pt x="489" y="698" on="0"/>
        <pt x="572" y="654" on="0"/>
        <pt x="622" y="577" on="0"/>
        <pt x="622" y="527" on="1"/>
        <pt x="622" y="473" on="0"/>
        <pt x="560" y="391" on="0"/>
        <pt x="474" y="347" on="0"/>
        <pt x="360" y="318" on="0"/>
        <pt x="280" y="310" on="0"/>
        <pt x="243" y="309" on="1"/>
        <pt x="278" y="254" on="1"/>
        <pt x="309" y="205" on="0"/>
        <pt x="316" y="195" on="1"/>
        <pt x="351" y="144" on="1"/>
        <pt x="379" y="103" on="0"/>
        <pt x="396" y="85" on="1"/>
        <pt x="441" y="34" on="1"/>
        <pt x="470" y="2" on="0"/>
        <pt x="530" y="-50" on="0"/>
        <pt x="566" y="-77" on="1"/>
        <pt x="562" y="-96" on="0"/>
        <pt x="523" y="-121" on="0"/>
        <pt x="505" y="-121" on="1"/>
        <pt x="468" y="-121" on="0"/>
        <pt x="348" y="16" on="0"/>
        <pt x="248" y="180" on="0"/>
        <pt x="209" y="259" on="1"/>
        <pt x="111" y="-88" on="1"/>
        <pt x="80" y="-88" on="0"/>
        <pt x="31" y="-55" on="0"/>
      </contour>
      <contour>
        <pt x="232" y="339" on="1"/>
        <pt x="312" y="345" on="0"/>
        <pt x="445" y="389" on="0"/>
        <pt x="539" y="483" on="0"/>
        <pt x="539" y="547" on="1"/>
        <pt x="539" y="618" on="0"/>
        <pt x="437" y="683" on="0"/>
        <pt x="360" y="685" on="1"/>
        <pt x="304" y="573" on="0"/>
      </contour>
    </TTGlyph>
    <TTGlyph name="S" xMin="4" yMin="-87" xMax="527" yMax="720">
      <contour>
        <pt x="4" y="96" on="1"/>
        <pt x="4" y="170" on="0"/>
        <pt x="96" y="235" on="0"/>
        <pt x="158" y="235" on="1"/>
        <pt x="93" y="167" on="0"/>
        <pt x="93" y="96" on="1"/>
        <pt x="93" y="42" on="0"/>
        <pt x="176" y="-34" on="0"/>
        <pt x="250" y="-34" on="1"/>
        <pt x="323" y="-34" on="0"/>
        <pt x="435" y="38" on="0"/>
        <pt x="435" y="101" on="1"/>
        <pt x="435" y="146" on="0"/>
        <pt x="368" y="218" on="0"/>
        <pt x="321" y="243" on="1"/>
        <pt x="226" y="295" on="1"/>
        <pt x="179" y="321" on="0"/>
        <pt x="111" y="402" on="0"/>
        <pt x="111" y="453" on="1"/>
        <pt x="111" y="510" on="0"/>
        <pt x="180" y="631" on="0"/>
        <pt x="319" y="720" on="0"/>
        <pt x="402" y="720" on="1"/>
        <pt x="527" y="720" on="0"/>
        <pt x="527" y="615" on="1"/>
        <pt x="527" y="564" on="0"/>
        <pt x="478" y="439" on="0"/>
        <pt x="447" y="391" on="1"/>
        <pt x="403" y="400" on="0"/>
        <pt x="403" y="442" on="1"/>
        <pt x="403" y="470" on="0"/>
        <pt x="460" y="617" on="0"/>
        <pt x="460" y="644" on="1"/>
        <pt x="460" y="663" on="0"/>
        <pt x="437" y="682" on="0"/>
        <pt x="407" y="682" on="1"/>
        <pt x="319" y="682" on="0"/>
        <pt x="188" y="542" on="0"/>
        <pt x="188" y="476" on="1"/>
        <pt x="188" y="437" on="0"/>
        <pt x="254" y="374" on="0"/>
        <pt x="348" y="327" on="0"/>
        <pt x="441" y="273" on="0"/>
        <pt x="507" y="186" on="0"/>
        <pt x="507" y="129" on="1"/>
        <pt x="507" y="31" on="0"/>
        <pt x="340" y="-87" on="0"/>
        <pt x="233" y="-87" on="1"/>
        <pt x="138" y="-87" on="0"/>
        <pt x="4" y="9" on="0"/>
      </contour>
    </TTGlyph>
    <TTGlyph name="Scaron" xMin="4" yMin="-87" xMax="585" yMax="946">
      <contour>
        <pt x="4" y="96" on="1"/>
        <pt x="4" y="170" on="0"/>
        <pt x="96" y="235" on="0"/>
        <pt x="158" y="235" on="1"/>
        <pt x="93" y="167" on="0"/>
        <pt x="93" y="96" on="1"/>
        <pt x="93" y="42" on="0"/>
        <pt x="176" y="-34" on="0"/>
        <pt x="250" y="-34" on="1"/>
        <pt x="323" y="-34" on="0"/>
        <pt x="435" y="38" on="0"/>
        <pt x="435" y="101" on="1"/>
        <pt x="435" y="146" on="0"/>
        <pt x="368" y="218" on="0"/>
        <pt x="321" y="243" on="1"/>
        <pt x="226" y="295" on="1"/>
        <pt x="179" y="321" on="0"/>
        <pt x="111" y="402" on="0"/>
        <pt x="111" y="453" on="1"/>
        <pt x="111" y="510" on="0"/>
        <pt x="180" y="631" on="0"/>
        <pt x="319" y="720" on="0"/>
        <pt x="402" y="720" on="1"/>
        <pt x="527" y="720" on="0"/>
        <pt x="527" y="615" on="1"/>
        <pt x="527" y="564" on="0"/>
        <pt x="478" y="439" on="0"/>
        <pt x="447" y="391" on="1"/>
        <pt x="403" y="400" on="0"/>
        <pt x="403" y="442" on="1"/>
        <pt x="403" y="470" on="0"/>
        <pt x="460" y="617" on="0"/>
        <pt x="460" y="644" on="1"/>
        <pt x="460" y="663" on="0"/>
        <pt x="437" y="682" on="0"/>
        <pt x="407" y="682" on="1"/>
        <pt x="319" y="682" on="0"/>
        <pt x="188" y="542" on="0"/>
        <pt x="188" y="476" on="1"/>
        <pt x="188" y="437" on="0"/>
        <pt x="254" y="374" on="0"/>
        <pt x="348" y="327" on="0"/>
        <pt x="441" y="273" on="0"/>
        <pt x="507" y="186" on="0"/>
        <pt x="507" y="129" on="1"/>
        <pt x="507" y="31" on="0"/>
        <pt x="340" y="-87" on="0"/>
        <pt x="233" y="-87" on="1"/>
        <pt x="138" y="-87" on="0"/>
        <pt x="4" y="9" on="0"/>
      </contour>
      <contour>
        <pt x="358" y="906" on="1"/>
        <pt x="358" y="933" on="0"/>
        <pt x="385" y="946" on="1"/>
        <pt x="409" y="900" on="0"/>
        <pt x="462" y="854" on="1"/>
        <pt x="528" y="877" on="0"/>
        <pt x="564" y="908" on="1"/>
        <pt x="585" y="901" on="0"/>
        <pt x="585" y="884" on="1"/>
        <pt x="585" y="855" on="0"/>
        <pt x="489" y="790" on="0"/>
        <pt x="435" y="790" on="0"/>
        <pt x="358" y="873" on="0"/>
      </contour>
    </TTGlyph>
    <TTGlyph name="T" xMin="76" yMin="-87" xMax="696" yMax="720">
      <contour>
        <pt x="76" y="615" on="1"/>
        <pt x="80" y="655" on="0"/>
        <pt x="153" y="703" on="0"/>
        <pt x="261" y="720" on="0"/>
        <pt x="341" y="720" on="1"/>
        <pt x="422" y="720" on="0"/>
        <pt x="542" y="708" on="1"/>
        <pt x="647" y="698" on="0"/>
        <pt x="696" y="698" on="1"/>
        <pt x="668" y="672" on="0"/>
        <pt x="567" y="644" on="0"/>
        <pt x="489" y="639" on="0"/>
        <pt x="430" y="639" on="1"/>
        <pt x="348" y="437" on="0"/>
        <pt x="268" y="143" on="1"/>
        <pt x="252" y="82" on="0"/>
        <pt x="240" y="34" on="0"/>
        <pt x="230" y="-29" on="0"/>
        <pt x="230" y="-58" on="1"/>
        <pt x="230" y="-72" on="0"/>
        <pt x="233" y="-87" on="1"/>
        <pt x="137" y="-87" on="0"/>
        <pt x="135" y="-10" on="1"/>
        <pt x="135" y="30" on="0"/>
        <pt x="170" y="137" on="1"/>
        <pt x="192" y="203" on="0"/>
        <pt x="251" y="358" on="0"/>
        <pt x="271" y="406" on="1"/>
        <pt x="325" y="535" on="1"/>
        <pt x="369" y="639" on="1"/>
        <pt x="203" y="637" on="0"/>
      </contour>
    </TTGlyph>
    <TTGlyph name="Thorn" xMin="49" yMin="-87" xMax="573" yMax="716">
      <contour>
        <pt x="49" y="-30" on="1"/>
        <pt x="49" y="-13" on="0"/>
        <pt x="62" y="26" on="1"/>
        <pt x="164" y="344" on="0"/>
        <pt x="242" y="542" on="1"/>
        <pt x="208" y="535" on="0"/>
        <pt x="142" y="508" on="0"/>
        <pt x="104" y="488" on="0"/>
        <pt x="99" y="488" on="1"/>
        <pt x="90" y="488" on="0"/>
        <pt x="59" y="516" on="0"/>
        <pt x="59" y="527" on="1"/>
        <pt x="176" y="573" on="0"/>
        <pt x="259" y="581" on="1"/>
        <pt x="263" y="590" on="0"/>
        <pt x="280" y="635" on="0"/>
        <pt x="293" y="665" on="0"/>
        <pt x="313" y="699" on="0"/>
        <pt x="338" y="716" on="0"/>
        <pt x="353" y="716" on="1"/>
        <pt x="369" y="716" on="0"/>
        <pt x="385" y="698" on="1"/>
        <pt x="356" y="640" on="0"/>
        <pt x="334" y="581" on="1"/>
        <pt x="432" y="568" on="0"/>
        <pt x="573" y="467" on="0"/>
        <pt x="573" y="381" on="1"/>
        <pt x="573" y="329" on="0"/>
        <pt x="515" y="246" on="0"/>
        <pt x="431" y="198" on="0"/>
        <pt x="322" y="166" on="0"/>
        <pt x="237" y="153" on="0"/>
        <pt x="199" y="152" on="1"/>
        <pt x="186" y="108" on="0"/>
        <pt x="143" y="-54" on="0"/>
        <pt x="133" y="-87" on="1"/>
        <pt x="101" y="-87" on="0"/>
        <pt x="49" y="-54" on="0"/>
      </contour>
      <contour>
        <pt x="208" y="186" on="1"/>
        <pt x="326" y="201" on="0"/>
        <pt x="491" y="312" on="0"/>
        <pt x="491" y="402" on="1"/>
        <pt x="491" y="472" on="0"/>
        <pt x="392" y="543" on="0"/>
        <pt x="320" y="546" on="1"/>
        <pt x="270" y="410" on="0"/>
      </contour>
    </TTGlyph>
    <TTGlyph name="U" xMin="33" yMin="-99" xMax="764" yMax="719">
      <contour>
        <pt x="33" y="536" on="1"/>
        <pt x="33" y="601" on="0"/>
        <pt x="153" y="719" on="0"/>
        <pt x="235" y="719" on="1"/>
        <pt x="351" y="719" on="0"/>
        <pt x="351" y="590" on="1"/>
        <pt x="351" y="515" on="0"/>
        <pt x="291" y="322" on="1"/>
        <pt x="234" y="141" on="0"/>
        <pt x="234" y="75" on="1"/>
        <pt x="234" y="-34" on="0"/>
        <pt x="317" y="-34" on="1"/>
        <pt x="368" y="-34" on="0"/>
        <pt x="458" y="57" on="0"/>
        <pt x="508" y="168" on="0"/>
        <pt x="522" y="227" on="1"/>
        <pt x="549" y="334" on="1"/>
        <pt x="576" y="440" on="1"/>
        <pt x="595" y="511" on="0"/>
        <pt x="608" y="550" on="1"/>
        <pt x="638" y="633" on="1"/>
        <pt x="655" y="678" on="0"/>
        <pt x="686" y="719" on="0"/>
        <pt x="700" y="719" on="1"/>
        <pt x="722" y="719" on="0"/>
        <pt x="764" y="680" on="1"/>
        <pt x="745" y="666" on="0"/>
        <pt x="657" y="438" on="0"/>
        <pt x="579" y="136" on="0"/>
        <pt x="579" y="44" on="1"/>
        <pt x="579" y="-17" on="0"/>
        <pt x="620" y="-58" on="0"/>
        <pt x="673" y="-58" on="1"/>
        <pt x="662" y="-76" on="0"/>
        <pt x="611" y="-99" on="0"/>
        <pt x="588" y="-99" on="1"/>
        <pt x="551" y="-99" on="0"/>
        <pt x="498" y="-34" on="0"/>
        <pt x="498" y="13" on="1"/>
        <pt x="498" y="21" on="0"/>
        <pt x="500" y="65" on="1"/>
        <pt x="417" y="-88" on="0"/>
        <pt x="287" y="-88" on="1"/>
        <pt x="220" y="-88" on="0"/>
        <pt x="145" y="-8" on="0"/>
        <pt x="145" y="136" on="0"/>
        <pt x="265" y="506" on="0"/>
        <pt x="265" y="588" on="1"/>
        <pt x="265" y="678" on="0"/>
        <pt x="211" y="678" on="1"/>
        <pt x="164" y="678" on="0"/>
        <pt x="109" y="570" on="0"/>
        <pt x="109" y="523" on="1"/>
        <pt x="109" y="492" on="0"/>
        <pt x="122" y="459" on="1"/>
        <pt x="33" y="459" on="0"/>
      </contour>
    </TTGlyph>
    <TTGlyph name="U.salt" xMin="33" yMin="-87" xMax="778" yMax="720">
      <contour>
        <pt x="33" y="537" on="1"/>
        <pt x="33" y="602" on="0"/>
        <pt x="154" y="720" on="0"/>
        <pt x="236" y="720" on="1"/>
        <pt x="294" y="720" on="0"/>
        <pt x="352" y="652" on="0"/>
        <pt x="352" y="592" on="1"/>
        <pt x="352" y="521" on="0"/>
        <pt x="234" y="143" on="0"/>
        <pt x="234" y="75" on="1"/>
        <pt x="234" y="27" on="0"/>
        <pt x="274" y="-33" on="0"/>
        <pt x="317" y="-33" on="1"/>
        <pt x="368" y="-33" on="0"/>
        <pt x="457" y="58" on="0"/>
        <pt x="508" y="169" on="0"/>
        <pt x="522" y="228" on="1"/>
        <pt x="562" y="391" on="1"/>
        <pt x="578" y="452" on="0"/>
        <pt x="631" y="630" on="0"/>
        <pt x="678" y="720" on="0"/>
        <pt x="699" y="720" on="1"/>
        <pt x="721" y="720" on="0"/>
        <pt x="764" y="680" on="1"/>
        <pt x="731" y="657" on="0"/>
        <pt x="580" y="183" on="0"/>
        <pt x="580" y="51" on="1"/>
        <pt x="580" y="-26" on="0"/>
        <pt x="608" y="-26" on="1"/>
        <pt x="633" y="-26" on="0"/>
        <pt x="717" y="85" on="0"/>
        <pt x="755" y="170" on="1"/>
        <pt x="778" y="153" on="1"/>
        <pt x="737" y="58" on="0"/>
        <pt x="626" y="-87" on="0"/>
        <pt x="570" y="-87" on="1"/>
        <pt x="533" y="-87" on="0"/>
        <pt x="499" y="-25" on="0"/>
        <pt x="498" y="13" on="1"/>
        <pt x="498" y="31" on="0"/>
        <pt x="502" y="77" on="1"/>
        <pt x="411" y="-87" on="0"/>
        <pt x="287" y="-87" on="1"/>
        <pt x="221" y="-87" on="0"/>
        <pt x="145" y="-7" on="0"/>
        <pt x="145" y="55" on="1"/>
        <pt x="145" y="114" on="0"/>
        <pt x="265" y="517" on="0"/>
        <pt x="265" y="592" on="1"/>
        <pt x="265" y="678" on="0"/>
        <pt x="210" y="678" on="1"/>
        <pt x="164" y="678" on="0"/>
        <pt x="110" y="576" on="0"/>
        <pt x="110" y="522" on="1"/>
        <pt x="110" y="488" on="0"/>
        <pt x="124" y="460" on="1"/>
        <pt x="78" y="460" on="0"/>
        <pt x="33" y="502" on="0"/>
      </contour>
    </TTGlyph>
    <TTGlyph name="Uacute" xMin="33" yMin="-99" xMax="764" yMax="946">
      <contour>
        <pt x="33" y="536" on="1"/>
        <pt x="33" y="601" on="0"/>
        <pt x="153" y="719" on="0"/>
        <pt x="235" y="719" on="1"/>
        <pt x="351" y="719" on="0"/>
        <pt x="351" y="590" on="1"/>
        <pt x="351" y="515" on="0"/>
        <pt x="291" y="322" on="1"/>
        <pt x="234" y="141" on="0"/>
        <pt x="234" y="75" on="1"/>
        <pt x="234" y="-34" on="0"/>
        <pt x="317" y="-34" on="1"/>
        <pt x="368" y="-34" on="0"/>
        <pt x="458" y="57" on="0"/>
        <pt x="508" y="168" on="0"/>
        <pt x="522" y="227" on="1"/>
        <pt x="549" y="334" on="1"/>
        <pt x="576" y="440" on="1"/>
        <pt x="595" y="511" on="0"/>
        <pt x="608" y="550" on="1"/>
        <pt x="638" y="633" on="1"/>
        <pt x="655" y="678" on="0"/>
        <pt x="686" y="719" on="0"/>
        <pt x="700" y="719" on="1"/>
        <pt x="722" y="719" on="0"/>
        <pt x="764" y="680" on="1"/>
        <pt x="745" y="666" on="0"/>
        <pt x="657" y="438" on="0"/>
        <pt x="579" y="136" on="0"/>
        <pt x="579" y="44" on="1"/>
        <pt x="579" y="-17" on="0"/>
        <pt x="620" y="-58" on="0"/>
        <pt x="673" y="-58" on="1"/>
        <pt x="662" y="-76" on="0"/>
        <pt x="611" y="-99" on="0"/>
        <pt x="588" y="-99" on="1"/>
        <pt x="551" y="-99" on="0"/>
        <pt x="498" y="-34" on="0"/>
        <pt x="498" y="13" on="1"/>
        <pt x="498" y="21" on="0"/>
        <pt x="500" y="65" on="1"/>
        <pt x="417" y="-88" on="0"/>
        <pt x="287" y="-88" on="1"/>
        <pt x="220" y="-88" on="0"/>
        <pt x="145" y="-8" on="0"/>
        <pt x="145" y="136" on="0"/>
        <pt x="265" y="506" on="0"/>
        <pt x="265" y="588" on="1"/>
        <pt x="265" y="678" on="0"/>
        <pt x="211" y="678" on="1"/>
        <pt x="164" y="678" on="0"/>
        <pt x="109" y="570" on="0"/>
        <pt x="109" y="523" on="1"/>
        <pt x="109" y="492" on="0"/>
        <pt x="122" y="459" on="1"/>
        <pt x="33" y="459" on="0"/>
      </contour>
      <contour>
        <pt x="527" y="831" on="1"/>
        <pt x="527" y="851" on="0"/>
        <pt x="602" y="946" on="0"/>
        <pt x="630" y="946" on="1"/>
        <pt x="656" y="946" on="0"/>
        <pt x="660" y="911" on="1"/>
        <pt x="575" y="829" on="0"/>
        <pt x="551" y="798" on="1"/>
        <pt x="540" y="803" on="0"/>
        <pt x="527" y="824" on="0"/>
      </contour>
    </TTGlyph>
    <TTGlyph name="Ucircumflex" xMin="33" yMin="-99" xMax="764" yMax="938">
      <contour>
        <pt x="33" y="536" on="1"/>
        <pt x="33" y="601" on="0"/>
        <pt x="153" y="719" on="0"/>
        <pt x="235" y="719" on="1"/>
        <pt x="351" y="719" on="0"/>
        <pt x="351" y="590" on="1"/>
        <pt x="351" y="515" on="0"/>
        <pt x="291" y="322" on="1"/>
        <pt x="234" y="141" on="0"/>
        <pt x="234" y="75" on="1"/>
        <pt x="234" y="-34" on="0"/>
        <pt x="317" y="-34" on="1"/>
        <pt x="368" y="-34" on="0"/>
        <pt x="458" y="57" on="0"/>
        <pt x="508" y="168" on="0"/>
        <pt x="522" y="227" on="1"/>
        <pt x="549" y="334" on="1"/>
        <pt x="576" y="440" on="1"/>
        <pt x="595" y="511" on="0"/>
        <pt x="608" y="550" on="1"/>
        <pt x="638" y="633" on="1"/>
        <pt x="655" y="678" on="0"/>
        <pt x="686" y="719" on="0"/>
        <pt x="700" y="719" on="1"/>
        <pt x="722" y="719" on="0"/>
        <pt x="764" y="680" on="1"/>
        <pt x="745" y="666" on="0"/>
        <pt x="657" y="438" on="0"/>
        <pt x="579" y="136" on="0"/>
        <pt x="579" y="44" on="1"/>
        <pt x="579" y="-17" on="0"/>
        <pt x="620" y="-58" on="0"/>
        <pt x="673" y="-58" on="1"/>
        <pt x="662" y="-76" on="0"/>
        <pt x="611" y="-99" on="0"/>
        <pt x="588" y="-99" on="1"/>
        <pt x="551" y="-99" on="0"/>
        <pt x="498" y="-34" on="0"/>
        <pt x="498" y="13" on="1"/>
        <pt x="498" y="21" on="0"/>
        <pt x="500" y="65" on="1"/>
        <pt x="417" y="-88" on="0"/>
        <pt x="287" y="-88" on="1"/>
        <pt x="220" y="-88" on="0"/>
        <pt x="145" y="-8" on="0"/>
        <pt x="145" y="136" on="0"/>
        <pt x="265" y="506" on="0"/>
        <pt x="265" y="588" on="1"/>
        <pt x="265" y="678" on="0"/>
        <pt x="211" y="678" on="1"/>
        <pt x="164" y="678" on="0"/>
        <pt x="109" y="570" on="0"/>
        <pt x="109" y="523" on="1"/>
        <pt x="109" y="492" on="0"/>
        <pt x="122" y="459" on="1"/>
        <pt x="33" y="459" on="0"/>
      </contour>
      <contour>
        <pt x="447" y="852" on="1"/>
        <pt x="447" y="879" on="0"/>
        <pt x="537" y="938" on="0"/>
        <pt x="563" y="938" on="1"/>
        <pt x="588" y="938" on="0"/>
        <pt x="659" y="862" on="0"/>
        <pt x="659" y="832" on="1"/>
        <pt x="659" y="806" on="0"/>
        <pt x="634" y="793" on="1"/>
        <pt x="611" y="832" on="0"/>
        <pt x="562" y="876" on="1"/>
        <pt x="516" y="861" on="0"/>
        <pt x="460" y="824" on="1"/>
        <pt x="447" y="832" on="0"/>
      </contour>
    </TTGlyph>
    <TTGlyph name="Udieresis" xMin="33" yMin="-99" xMax="764" yMax="905">
      <contour>
        <pt x="33" y="536" on="1"/>
        <pt x="33" y="601" on="0"/>
        <pt x="153" y="719" on="0"/>
        <pt x="235" y="719" on="1"/>
        <pt x="351" y="719" on="0"/>
        <pt x="351" y="590" on="1"/>
        <pt x="351" y="515" on="0"/>
        <pt x="291" y="322" on="1"/>
        <pt x="234" y="141" on="0"/>
        <pt x="234" y="75" on="1"/>
        <pt x="234" y="-34" on="0"/>
        <pt x="317" y="-34" on="1"/>
        <pt x="368" y="-34" on="0"/>
        <pt x="458" y="57" on="0"/>
        <pt x="508" y="168" on="0"/>
        <pt x="522" y="227" on="1"/>
        <pt x="549" y="334" on="1"/>
        <pt x="576" y="440" on="1"/>
        <pt x="595" y="511" on="0"/>
        <pt x="608" y="550" on="1"/>
        <pt x="638" y="633" on="1"/>
        <pt x="655" y="678" on="0"/>
        <pt x="686" y="719" on="0"/>
        <pt x="700" y="719" on="1"/>
        <pt x="722" y="719" on="0"/>
        <pt x="764" y="680" on="1"/>
        <pt x="745" y="666" on="0"/>
        <pt x="657" y="438" on="0"/>
        <pt x="579" y="136" on="0"/>
        <pt x="579" y="44" on="1"/>
        <pt x="579" y="-17" on="0"/>
        <pt x="620" y="-58" on="0"/>
        <pt x="673" y="-58" on="1"/>
        <pt x="662" y="-76" on="0"/>
        <pt x="611" y="-99" on="0"/>
        <pt x="588" y="-99" on="1"/>
        <pt x="551" y="-99" on="0"/>
        <pt x="498" y="-34" on="0"/>
        <pt x="498" y="13" on="1"/>
        <pt x="498" y="21" on="0"/>
        <pt x="500" y="65" on="1"/>
        <pt x="417" y="-88" on="0"/>
        <pt x="287" y="-88" on="1"/>
        <pt x="220" y="-88" on="0"/>
        <pt x="145" y="-8" on="0"/>
        <pt x="145" y="136" on="0"/>
        <pt x="265" y="506" on="0"/>
        <pt x="265" y="588" on="1"/>
        <pt x="265" y="678" on="0"/>
        <pt x="211" y="678" on="1"/>
        <pt x="164" y="678" on="0"/>
        <pt x="109" y="570" on="0"/>
        <pt x="109" y="523" on="1"/>
        <pt x="109" y="492" on="0"/>
        <pt x="122" y="459" on="1"/>
        <pt x="33" y="459" on="0"/>
      </contour>
      <contour>
        <pt x="428" y="857" on="1"/>
        <pt x="428" y="875" on="0"/>
        <pt x="472" y="905" on="0"/>
        <pt x="495" y="905" on="1"/>
        <pt x="531" y="905" on="0"/>
        <pt x="531" y="873" on="1"/>
        <pt x="531" y="855" on="0"/>
        <pt x="493" y="823" on="0"/>
        <pt x="471" y="823" on="1"/>
        <pt x="453" y="823" on="0"/>
        <pt x="428" y="840" on="0"/>
      </contour>
      <contour>
        <pt x="573" y="837" on="1"/>
        <pt x="573" y="856" on="0"/>
        <pt x="616" y="885" on="0"/>
        <pt x="640" y="885" on="1"/>
        <pt x="677" y="885" on="0"/>
        <pt x="677" y="852" on="1"/>
        <pt x="677" y="834" on="0"/>
        <pt x="638" y="803" on="0"/>
        <pt x="615" y="803" on="1"/>
        <pt x="598" y="803" on="0"/>
        <pt x="573" y="821" on="0"/>
      </contour>
    </TTGlyph>
    <TTGlyph name="Ugrave" xMin="33" yMin="-99" xMax="764" yMax="946">
      <contour>
        <pt x="33" y="536" on="1"/>
        <pt x="33" y="601" on="0"/>
        <pt x="153" y="719" on="0"/>
        <pt x="235" y="719" on="1"/>
        <pt x="351" y="719" on="0"/>
        <pt x="351" y="590" on="1"/>
        <pt x="351" y="515" on="0"/>
        <pt x="291" y="322" on="1"/>
        <pt x="234" y="141" on="0"/>
        <pt x="234" y="75" on="1"/>
        <pt x="234" y="-34" on="0"/>
        <pt x="317" y="-34" on="1"/>
        <pt x="368" y="-34" on="0"/>
        <pt x="458" y="57" on="0"/>
        <pt x="508" y="168" on="0"/>
        <pt x="522" y="227" on="1"/>
        <pt x="549" y="334" on="1"/>
        <pt x="576" y="440" on="1"/>
        <pt x="595" y="511" on="0"/>
        <pt x="608" y="550" on="1"/>
        <pt x="638" y="633" on="1"/>
        <pt x="655" y="678" on="0"/>
        <pt x="686" y="719" on="0"/>
        <pt x="700" y="719" on="1"/>
        <pt x="722" y="719" on="0"/>
        <pt x="764" y="680" on="1"/>
        <pt x="745" y="666" on="0"/>
        <pt x="657" y="438" on="0"/>
        <pt x="579" y="136" on="0"/>
        <pt x="579" y="44" on="1"/>
        <pt x="579" y="-17" on="0"/>
        <pt x="620" y="-58" on="0"/>
        <pt x="673" y="-58" on="1"/>
        <pt x="662" y="-76" on="0"/>
        <pt x="611" y="-99" on="0"/>
        <pt x="588" y="-99" on="1"/>
        <pt x="551" y="-99" on="0"/>
        <pt x="498" y="-34" on="0"/>
        <pt x="498" y="13" on="1"/>
        <pt x="498" y="21" on="0"/>
        <pt x="500" y="65" on="1"/>
        <pt x="417" y="-88" on="0"/>
        <pt x="287" y="-88" on="1"/>
        <pt x="220" y="-88" on="0"/>
        <pt x="145" y="-8" on="0"/>
        <pt x="145" y="136" on="0"/>
        <pt x="265" y="506" on="0"/>
        <pt x="265" y="588" on="1"/>
        <pt x="265" y="678" on="0"/>
        <pt x="211" y="678" on="1"/>
        <pt x="164" y="678" on="0"/>
        <pt x="109" y="570" on="0"/>
        <pt x="109" y="523" on="1"/>
        <pt x="109" y="492" on="0"/>
        <pt x="122" y="459" on="1"/>
        <pt x="33" y="459" on="0"/>
      </contour>
      <contour>
        <pt x="422" y="907" on="1"/>
        <pt x="423" y="926" on="0"/>
        <pt x="442" y="946" on="0"/>
        <pt x="454" y="946" on="1"/>
        <pt x="482" y="946" on="0"/>
        <pt x="564" y="854" on="0"/>
        <pt x="564" y="833" on="1"/>
        <pt x="564" y="824" on="0"/>
        <pt x="550" y="802" on="0"/>
        <pt x="539" y="797" on="1"/>
        <pt x="490" y="855" on="0"/>
      </contour>
    </TTGlyph>
    <TTGlyph name="V" xMin="34" yMin="-87" xMax="695" yMax="720">
      <contour>
        <pt x="34" y="540" on="1"/>
        <pt x="34" y="604" on="0"/>
        <pt x="150" y="720" on="0"/>
        <pt x="228" y="720" on="1"/>
        <pt x="295" y="720" on="0"/>
        <pt x="366" y="622" on="0"/>
        <pt x="366" y="535" on="1"/>
        <pt x="366" y="457" on="0"/>
        <pt x="304" y="236" on="0"/>
        <pt x="243" y="40" on="0"/>
        <pt x="243" y="-8" on="1"/>
        <pt x="243" y="-26" on="0"/>
        <pt x="253" y="-42" on="0"/>
        <pt x="267" y="-42" on="1"/>
        <pt x="308" y="-42" on="0"/>
        <pt x="430" y="78" on="0"/>
        <pt x="539" y="249" on="0"/>
        <pt x="616" y="453" on="0"/>
        <pt x="616" y="530" on="1"/>
        <pt x="616" y="627" on="0"/>
        <pt x="549" y="649" on="1"/>
        <pt x="562" y="677" on="0"/>
        <pt x="602" y="706" on="0"/>
        <pt x="620" y="706" on="1"/>
        <pt x="649" y="706" on="0"/>
        <pt x="695" y="634" on="0"/>
        <pt x="695" y="576" on="1"/>
        <pt x="695" y="470" on="0"/>
        <pt x="546" y="154" on="0"/>
        <pt x="329" y="-87" on="0"/>
        <pt x="245" y="-87" on="1"/>
        <pt x="210" y="-87" on="0"/>
        <pt x="149" y="-47" on="0"/>
        <pt x="149" y="2" on="1"/>
        <pt x="149" y="41" on="0"/>
        <pt x="209" y="224" on="0"/>
        <pt x="269" y="458" on="0"/>
        <pt x="269" y="559" on="1"/>
        <pt x="269" y="617" on="0"/>
        <pt x="243" y="678" on="0"/>
        <pt x="208" y="678" on="1"/>
        <pt x="161" y="678" on="0"/>
        <pt x="112" y="580" on="0"/>
        <pt x="112" y="525" on="1"/>
        <pt x="112" y="489" on="0"/>
        <pt x="127" y="460" on="1"/>
        <pt x="80" y="460" on="0"/>
        <pt x="34" y="504" on="0"/>
      </contour>
    </TTGlyph>
    <TTGlyph name="W" xMin="34" yMin="-87" xMax="980" yMax="720">
      <contour>
        <pt x="34" y="540" on="1"/>
        <pt x="34" y="604" on="0"/>
        <pt x="150" y="720" on="0"/>
        <pt x="227" y="720" on="1"/>
        <pt x="294" y="720" on="0"/>
        <pt x="366" y="620" on="0"/>
        <pt x="366" y="528" on="1"/>
        <pt x="366" y="428" on="0"/>
        <pt x="301" y="222" on="1"/>
        <pt x="297" y="208" on="0"/>
        <pt x="271" y="135" on="0"/>
        <pt x="257" y="88" on="0"/>
        <pt x="243" y="20" on="0"/>
        <pt x="243" y="-8" on="1"/>
        <pt x="243" y="-27" on="0"/>
        <pt x="252" y="-42" on="0"/>
        <pt x="265" y="-42" on="1"/>
        <pt x="315" y="-42" on="0"/>
        <pt x="449" y="126" on="0"/>
        <pt x="547" y="335" on="0"/>
        <pt x="557" y="404" on="1"/>
        <pt x="592" y="404" on="0"/>
        <pt x="637" y="364" on="0"/>
        <pt x="637" y="343" on="1"/>
        <pt x="637" y="324" on="0"/>
        <pt x="600" y="238" on="1"/>
        <pt x="527" y="68" on="0"/>
        <pt x="527" y="-4" on="1"/>
        <pt x="527" y="-25" on="0"/>
        <pt x="538" y="-42" on="0"/>
        <pt x="553" y="-42" on="1"/>
        <pt x="594" y="-42" on="0"/>
        <pt x="715" y="80" on="0"/>
        <pt x="823" y="253" on="0"/>
        <pt x="901" y="456" on="0"/>
        <pt x="901" y="530" on="1"/>
        <pt x="901" y="618" on="0"/>
        <pt x="833" y="641" on="1"/>
        <pt x="867" y="697" on="0"/>
        <pt x="907" y="697" on="1"/>
        <pt x="908" y="697" on="1"/>
        <pt x="935" y="697" on="0"/>
        <pt x="980" y="633" on="0"/>
        <pt x="980" y="575" on="1"/>
        <pt x="980" y="497" on="0"/>
        <pt x="889" y="267" on="0"/>
        <pt x="757" y="61" on="0"/>
        <pt x="590" y="-87" on="0"/>
        <pt x="523" y="-87" on="1"/>
        <pt x="484" y="-87" on="0"/>
        <pt x="433" y="-40" on="0"/>
        <pt x="433" y="-1" on="1"/>
        <pt x="433" y="20" on="0"/>
        <pt x="443" y="50" on="1"/>
        <pt x="334" y="-87" on="0"/>
        <pt x="247" y="-87" on="1"/>
        <pt x="246" y="-87" on="1"/>
        <pt x="233" y="-87" on="0"/>
        <pt x="206" y="-81" on="0"/>
        <pt x="171" y="-65" on="0"/>
        <pt x="149" y="-26" on="0"/>
        <pt x="149" y="2" on="1"/>
        <pt x="149" y="43" on="0"/>
        <pt x="193" y="186" on="1"/>
        <pt x="197" y="199" on="0"/>
        <pt x="220" y="271" on="0"/>
        <pt x="225" y="287" on="1"/>
        <pt x="238" y="335" on="1"/>
        <pt x="247" y="367" on="0"/>
        <pt x="251" y="388" on="1"/>
        <pt x="260" y="438" on="1"/>
        <pt x="265" y="467" on="0"/>
        <pt x="269" y="525" on="0"/>
        <pt x="269" y="554" on="1"/>
        <pt x="269" y="618" on="0"/>
        <pt x="242" y="680" on="0"/>
        <pt x="208" y="680" on="1"/>
        <pt x="163" y="680" on="0"/>
        <pt x="112" y="590" on="0"/>
        <pt x="112" y="533" on="1"/>
        <pt x="112" y="488" on="0"/>
        <pt x="127" y="460" on="1"/>
        <pt x="80" y="460" on="0"/>
        <pt x="34" y="504" on="0"/>
      </contour>
    </TTGlyph>
    <TTGlyph name="X" xMin="45" yMin="-112" xMax="711" yMax="728">
      <contour>
        <pt x="45" y="-112" on="1"/>
        <pt x="49" y="-70" on="0"/>
        <pt x="70" y="-30" on="0"/>
        <pt x="97" y="-3" on="1"/>
        <pt x="212" y="117" on="0"/>
        <pt x="327" y="257" on="1"/>
        <pt x="318" y="335" on="0"/>
        <pt x="309" y="497" on="0"/>
        <pt x="306" y="582" on="0"/>
        <pt x="297" y="656" on="0"/>
        <pt x="274" y="684" on="0"/>
        <pt x="251" y="684" on="1"/>
        <pt x="206" y="684" on="0"/>
        <pt x="154" y="587" on="0"/>
        <pt x="154" y="532" on="1"/>
        <pt x="154" y="497" on="0"/>
        <pt x="167" y="468" on="1"/>
        <pt x="78" y="468" on="0"/>
        <pt x="78" y="544" on="1"/>
        <pt x="78" y="609" on="0"/>
        <pt x="198" y="723" on="0"/>
        <pt x="273" y="723" on="1"/>
        <pt x="306" y="723" on="0"/>
        <pt x="356" y="697" on="0"/>
        <pt x="385" y="648" on="0"/>
        <pt x="403" y="595" on="0"/>
        <pt x="411" y="520" on="0"/>
        <pt x="413" y="464" on="0"/>
        <pt x="414" y="388" on="0"/>
        <pt x="415" y="370" on="1"/>
        <pt x="550" y="552" on="0"/>
        <pt x="637" y="728" on="1"/>
        <pt x="646" y="722" on="0"/>
        <pt x="665" y="689" on="0"/>
        <pt x="665" y="675" on="1"/>
        <pt x="665" y="636" on="0"/>
        <pt x="526" y="427" on="0"/>
        <pt x="417" y="294" on="1"/>
        <pt x="434" y="-29" on="0"/>
        <pt x="513" y="-29" on="1"/>
        <pt x="543" y="-29" on="0"/>
        <pt x="625" y="74" on="0"/>
        <pt x="689" y="182" on="1"/>
        <pt x="711" y="164" on="1"/>
        <pt x="644" y="32" on="0"/>
        <pt x="548" y="-80" on="0"/>
        <pt x="488" y="-80" on="1"/>
        <pt x="447" y="-80" on="0"/>
        <pt x="388" y="-32" on="0"/>
        <pt x="355" y="56" on="0"/>
        <pt x="338" y="137" on="0"/>
        <pt x="333" y="191" on="1"/>
        <pt x="248" y="91" on="0"/>
        <pt x="84" y="-81" on="0"/>
      </contour>
    </TTGlyph>
    <TTGlyph name="Y" xMin="32" yMin="-187" xMax="761" yMax="720">
      <contour>
        <pt x="32" y="536" on="1"/>
        <pt x="32" y="601" on="0"/>
        <pt x="151" y="720" on="0"/>
        <pt x="234" y="720" on="1"/>
        <pt x="291" y="720" on="0"/>
        <pt x="351" y="658" on="0"/>
        <pt x="351" y="610" on="1"/>
        <pt x="351" y="575" on="0"/>
        <pt x="323" y="475" on="1"/>
        <pt x="287" y="346" on="0"/>
        <pt x="287" y="293" on="1"/>
        <pt x="287" y="199" on="0"/>
        <pt x="357" y="199" on="1"/>
        <pt x="358" y="199" on="1"/>
        <pt x="422" y="199" on="0"/>
        <pt x="532" y="336" on="0"/>
        <pt x="567" y="439" on="1"/>
        <pt x="587" y="505" on="1"/>
        <pt x="611" y="582" on="1"/>
        <pt x="621" y="614" on="0"/>
        <pt x="648" y="683" on="0"/>
        <pt x="678" y="720" on="0"/>
        <pt x="693" y="720" on="1"/>
        <pt x="723" y="720" on="0"/>
        <pt x="761" y="682" on="1"/>
        <pt x="709" y="602" on="0"/>
        <pt x="657" y="445" on="0"/>
        <pt x="596" y="193" on="1"/>
        <pt x="581" y="131" on="0"/>
        <pt x="553" y="41" on="0"/>
        <pt x="501" y="-69" on="0"/>
        <pt x="440" y="-139" on="0"/>
        <pt x="344" y="-187" on="0"/>
        <pt x="286" y="-187" on="1"/>
        <pt x="222" y="-187" on="0"/>
        <pt x="142" y="-135" on="0"/>
        <pt x="142" y="-88" on="1"/>
        <pt x="142" y="-56" on="0"/>
        <pt x="182" y="-7" on="0"/>
        <pt x="218" y="1" on="1"/>
        <pt x="207" y="-48" on="0"/>
        <pt x="207" y="-67" on="1"/>
        <pt x="207" y="-152" on="0"/>
        <pt x="298" y="-152" on="1"/>
        <pt x="354" y="-152" on="0"/>
        <pt x="435" y="-86" on="0"/>
        <pt x="479" y="27" on="0"/>
        <pt x="505" y="133" on="0"/>
        <pt x="526" y="262" on="0"/>
        <pt x="534" y="287" on="1"/>
        <pt x="446" y="145" on="0"/>
        <pt x="325" y="145" on="1"/>
        <pt x="262" y="145" on="0"/>
        <pt x="202" y="215" on="0"/>
        <pt x="202" y="273" on="1"/>
        <pt x="202" y="323" on="0"/>
        <pt x="266" y="563" on="0"/>
        <pt x="266" y="606" on="1"/>
        <pt x="266" y="678" on="0"/>
        <pt x="212" y="678" on="1"/>
        <pt x="163" y="678" on="0"/>
        <pt x="109" y="575" on="0"/>
        <pt x="109" y="515" on="1"/>
        <pt x="109" y="491" on="0"/>
        <pt x="121" y="459" on="1"/>
        <pt x="32" y="459" on="0"/>
      </contour>
    </TTGlyph>
    <TTGlyph name="Yacute" xMin="32" yMin="-187" xMax="761" yMax="946">
      <contour>
        <pt x="32" y="536" on="1"/>
        <pt x="32" y="601" on="0"/>
        <pt x="151" y="720" on="0"/>
        <pt x="234" y="720" on="1"/>
        <pt x="291" y="720" on="0"/>
        <pt x="351" y="658" on="0"/>
        <pt x="351" y="610" on="1"/>
        <pt x="351" y="575" on="0"/>
        <pt x="323" y="475" on="1"/>
        <pt x="287" y="346" on="0"/>
        <pt x="287" y="293" on="1"/>
        <pt x="287" y="199" on="0"/>
        <pt x="358" y="199" on="1"/>
        <pt x="422" y="199" on="0"/>
        <pt x="532" y="336" on="0"/>
        <pt x="567" y="439" on="1"/>
        <pt x="587" y="505" on="1"/>
        <pt x="611" y="582" on="1"/>
        <pt x="621" y="614" on="0"/>
        <pt x="648" y="683" on="0"/>
        <pt x="678" y="720" on="0"/>
        <pt x="693" y="720" on="1"/>
        <pt x="723" y="720" on="0"/>
        <pt x="761" y="682" on="1"/>
        <pt x="709" y="602" on="0"/>
        <pt x="657" y="445" on="0"/>
        <pt x="596" y="193" on="1"/>
        <pt x="581" y="131" on="0"/>
        <pt x="553" y="41" on="0"/>
        <pt x="501" y="-69" on="0"/>
        <pt x="440" y="-139" on="0"/>
        <pt x="344" y="-187" on="0"/>
        <pt x="286" y="-187" on="1"/>
        <pt x="222" y="-187" on="0"/>
        <pt x="142" y="-135" on="0"/>
        <pt x="142" y="-88" on="1"/>
        <pt x="142" y="-56" on="0"/>
        <pt x="182" y="-7" on="0"/>
        <pt x="218" y="1" on="1"/>
        <pt x="207" y="-48" on="0"/>
        <pt x="207" y="-67" on="1"/>
        <pt x="207" y="-152" on="0"/>
        <pt x="298" y="-152" on="1"/>
        <pt x="354" y="-152" on="0"/>
        <pt x="435" y="-86" on="0"/>
        <pt x="479" y="27" on="0"/>
        <pt x="505" y="133" on="0"/>
        <pt x="526" y="262" on="0"/>
        <pt x="534" y="287" on="1"/>
        <pt x="446" y="145" on="0"/>
        <pt x="325" y="145" on="1"/>
        <pt x="262" y="145" on="0"/>
        <pt x="202" y="215" on="0"/>
        <pt x="202" y="273" on="1"/>
        <pt x="202" y="323" on="0"/>
        <pt x="266" y="563" on="0"/>
        <pt x="266" y="606" on="1"/>
        <pt x="266" y="678" on="0"/>
        <pt x="212" y="678" on="1"/>
        <pt x="163" y="678" on="0"/>
        <pt x="109" y="575" on="0"/>
        <pt x="109" y="515" on="1"/>
        <pt x="109" y="491" on="0"/>
        <pt x="121" y="459" on="1"/>
        <pt x="32" y="459" on="0"/>
      </contour>
      <contour>
        <pt x="508" y="831" on="1"/>
        <pt x="508" y="851" on="0"/>
        <pt x="583" y="946" on="0"/>
        <pt x="611" y="946" on="1"/>
        <pt x="637" y="946" on="0"/>
        <pt x="641" y="911" on="1"/>
        <pt x="556" y="829" on="0"/>
        <pt x="532" y="798" on="1"/>
        <pt x="521" y="803" on="0"/>
        <pt x="508" y="824" on="0"/>
      </contour>
    </TTGlyph>
    <TTGlyph name="Ydieresis" xMin="32" yMin="-187" xMax="761" yMax="905">
      <contour>
        <pt x="32" y="536" on="1"/>
        <pt x="32" y="601" on="0"/>
        <pt x="151" y="720" on="0"/>
        <pt x="234" y="720" on="1"/>
        <pt x="291" y="720" on="0"/>
        <pt x="351" y="658" on="0"/>
        <pt x="351" y="610" on="1"/>
        <pt x="351" y="575" on="0"/>
        <pt x="323" y="475" on="1"/>
        <pt x="287" y="346" on="0"/>
        <pt x="287" y="293" on="1"/>
        <pt x="287" y="199" on="0"/>
        <pt x="358" y="199" on="1"/>
        <pt x="422" y="199" on="0"/>
        <pt x="532" y="336" on="0"/>
        <pt x="567" y="439" on="1"/>
        <pt x="587" y="505" on="1"/>
        <pt x="611" y="582" on="1"/>
        <pt x="621" y="614" on="0"/>
        <pt x="648" y="683" on="0"/>
        <pt x="678" y="720" on="0"/>
        <pt x="693" y="720" on="1"/>
        <pt x="723" y="720" on="0"/>
        <pt x="761" y="682" on="1"/>
        <pt x="709" y="602" on="0"/>
        <pt x="657" y="445" on="0"/>
        <pt x="596" y="193" on="1"/>
        <pt x="581" y="131" on="0"/>
        <pt x="553" y="41" on="0"/>
        <pt x="501" y="-69" on="0"/>
        <pt x="440" y="-139" on="0"/>
        <pt x="344" y="-187" on="0"/>
        <pt x="286" y="-187" on="1"/>
        <pt x="222" y="-187" on="0"/>
        <pt x="142" y="-135" on="0"/>
        <pt x="142" y="-88" on="1"/>
        <pt x="142" y="-56" on="0"/>
        <pt x="182" y="-7" on="0"/>
        <pt x="218" y="1" on="1"/>
        <pt x="207" y="-48" on="0"/>
        <pt x="207" y="-67" on="1"/>
        <pt x="207" y="-152" on="0"/>
        <pt x="298" y="-152" on="1"/>
        <pt x="354" y="-152" on="0"/>
        <pt x="435" y="-86" on="0"/>
        <pt x="479" y="27" on="0"/>
        <pt x="505" y="133" on="0"/>
        <pt x="526" y="262" on="0"/>
        <pt x="534" y="287" on="1"/>
        <pt x="446" y="145" on="0"/>
        <pt x="325" y="145" on="1"/>
        <pt x="262" y="145" on="0"/>
        <pt x="202" y="215" on="0"/>
        <pt x="202" y="273" on="1"/>
        <pt x="202" y="323" on="0"/>
        <pt x="266" y="563" on="0"/>
        <pt x="266" y="606" on="1"/>
        <pt x="266" y="678" on="0"/>
        <pt x="212" y="678" on="1"/>
        <pt x="163" y="678" on="0"/>
        <pt x="109" y="575" on="0"/>
        <pt x="109" y="515" on="1"/>
        <pt x="109" y="491" on="0"/>
        <pt x="121" y="459" on="1"/>
        <pt x="32" y="459" on="0"/>
      </contour>
      <contour>
        <pt x="399" y="857" on="1"/>
        <pt x="399" y="875" on="0"/>
        <pt x="443" y="905" on="0"/>
        <pt x="466" y="905" on="1"/>
        <pt x="502" y="905" on="0"/>
        <pt x="502" y="873" on="1"/>
        <pt x="502" y="855" on="0"/>
        <pt x="464" y="823" on="0"/>
        <pt x="442" y="823" on="1"/>
        <pt x="424" y="823" on="0"/>
        <pt x="399" y="840" on="0"/>
      </contour>
      <contour>
        <pt x="544" y="837" on="1"/>
        <pt x="544" y="856" on="0"/>
        <pt x="587" y="885" on="0"/>
        <pt x="611" y="885" on="1"/>
        <pt x="648" y="885" on="0"/>
        <pt x="648" y="852" on="1"/>
        <pt x="648" y="834" on="0"/>
        <pt x="609" y="803" on="0"/>
        <pt x="586" y="803" on="1"/>
        <pt x="569" y="803" on="0"/>
        <pt x="544" y="821" on="0"/>
      </contour>
    </TTGlyph>
    <TTGlyph name="Z" xMin="-8" yMin="-87" xMax="717" yMax="720">
      <contour>
        <pt x="-8" y="33" on="1"/>
        <pt x="-8" y="58" on="0"/>
        <pt x="32" y="90" on="0"/>
        <pt x="77" y="90" on="1"/>
        <pt x="125" y="90" on="0"/>
        <pt x="218" y="65" on="1"/>
        <pt x="303" y="150" on="0"/>
        <pt x="406" y="314" on="1"/>
        <pt x="343" y="311" on="0"/>
        <pt x="241" y="297" on="1"/>
        <pt x="245" y="382" on="0"/>
        <pt x="399" y="382" on="1"/>
        <pt x="415" y="382" on="0"/>
        <pt x="445" y="380" on="1"/>
        <pt x="522" y="511" on="0"/>
        <pt x="557" y="600" on="1"/>
        <pt x="523" y="610" on="0"/>
        <pt x="477" y="627" on="1"/>
        <pt x="337" y="678" on="0"/>
        <pt x="275" y="678" on="1"/>
        <pt x="165" y="678" on="0"/>
        <pt x="165" y="544" on="1"/>
        <pt x="169" y="510" on="0"/>
        <pt x="174" y="501" on="1"/>
        <pt x="100" y="514" on="0"/>
        <pt x="100" y="580" on="1"/>
        <pt x="100" y="648" on="0"/>
        <pt x="205" y="720" on="0"/>
        <pt x="305" y="720" on="1"/>
        <pt x="383" y="720" on="0"/>
        <pt x="617" y="657" on="0"/>
        <pt x="667" y="657" on="1"/>
        <pt x="700" y="657" on="0"/>
        <pt x="717" y="661" on="1"/>
        <pt x="682" y="626" on="0"/>
        <pt x="654" y="612" on="1"/>
        <pt x="606" y="500" on="0"/>
        <pt x="530" y="373" on="1"/>
        <pt x="630" y="365" on="0"/>
        <pt x="644" y="365" on="1"/>
        <pt x="620" y="333" on="0"/>
        <pt x="570" y="318" on="0"/>
        <pt x="496" y="316" on="1"/>
        <pt x="388" y="146" on="0"/>
        <pt x="285" y="47" on="1"/>
        <pt x="454" y="-4" on="0"/>
        <pt x="524" y="-4" on="1"/>
        <pt x="569" y="-4" on="0"/>
        <pt x="614" y="18" on="1"/>
        <pt x="592" y="-40" on="0"/>
        <pt x="535" y="-87" on="0"/>
        <pt x="490" y="-87" on="1"/>
        <pt x="466" y="-87" on="0"/>
        <pt x="414" y="-77" on="0"/>
        <pt x="348" y="-53" on="0"/>
        <pt x="314" y="-39" on="0"/>
        <pt x="235" y="-3" on="0"/>
        <pt x="229" y="0" on="1"/>
        <pt x="154" y="-54" on="0"/>
        <pt x="96" y="-54" on="1"/>
        <pt x="50" y="-54" on="0"/>
        <pt x="-8" y="1" on="0"/>
      </contour>
      <contour>
        <pt x="25" y="27" on="1"/>
        <pt x="25" y="10" on="0"/>
        <pt x="62" y="-21" on="0"/>
        <pt x="88" y="-21" on="1"/>
        <pt x="113" y="-21" on="0"/>
        <pt x="171" y="23" on="1"/>
        <pt x="94" y="53" on="0"/>
        <pt x="65" y="53" on="1"/>
        <pt x="25" y="53" on="0"/>
      </contour>
    </TTGlyph>
    <TTGlyph name="Zcaron" xMin="-8" yMin="-87" xMax="717" yMax="946">
      <contour>
        <pt x="-8" y="33" on="1"/>
        <pt x="-8" y="58" on="0"/>
        <pt x="32" y="90" on="0"/>
        <pt x="77" y="90" on="1"/>
        <pt x="125" y="90" on="0"/>
        <pt x="218" y="65" on="1"/>
        <pt x="303" y="150" on="0"/>
        <pt x="406" y="314" on="1"/>
        <pt x="343" y="311" on="0"/>
        <pt x="241" y="297" on="1"/>
        <pt x="245" y="382" on="0"/>
        <pt x="399" y="382" on="1"/>
        <pt x="415" y="382" on="0"/>
        <pt x="445" y="380" on="1"/>
        <pt x="522" y="511" on="0"/>
        <pt x="557" y="600" on="1"/>
        <pt x="523" y="610" on="0"/>
        <pt x="477" y="627" on="1"/>
        <pt x="337" y="678" on="0"/>
        <pt x="275" y="678" on="1"/>
        <pt x="165" y="678" on="0"/>
        <pt x="165" y="544" on="1"/>
        <pt x="169" y="510" on="0"/>
        <pt x="174" y="501" on="1"/>
        <pt x="100" y="514" on="0"/>
        <pt x="100" y="580" on="1"/>
        <pt x="100" y="648" on="0"/>
        <pt x="205" y="720" on="0"/>
        <pt x="305" y="720" on="1"/>
        <pt x="383" y="720" on="0"/>
        <pt x="617" y="657" on="0"/>
        <pt x="667" y="657" on="1"/>
        <pt x="700" y="657" on="0"/>
        <pt x="717" y="661" on="1"/>
        <pt x="682" y="626" on="0"/>
        <pt x="654" y="612" on="1"/>
        <pt x="606" y="500" on="0"/>
        <pt x="530" y="373" on="1"/>
        <pt x="630" y="365" on="0"/>
        <pt x="644" y="365" on="1"/>
        <pt x="620" y="333" on="0"/>
        <pt x="570" y="318" on="0"/>
        <pt x="496" y="316" on="1"/>
        <pt x="388" y="146" on="0"/>
        <pt x="285" y="47" on="1"/>
        <pt x="454" y="-4" on="0"/>
        <pt x="524" y="-4" on="1"/>
        <pt x="569" y="-4" on="0"/>
        <pt x="614" y="18" on="1"/>
        <pt x="592" y="-40" on="0"/>
        <pt x="535" y="-87" on="0"/>
        <pt x="490" y="-87" on="1"/>
        <pt x="466" y="-87" on="0"/>
        <pt x="414" y="-77" on="0"/>
        <pt x="348" y="-53" on="0"/>
        <pt x="314" y="-39" on="0"/>
        <pt x="235" y="-3" on="0"/>
        <pt x="229" y="0" on="1"/>
        <pt x="154" y="-54" on="0"/>
        <pt x="96" y="-54" on="1"/>
        <pt x="50" y="-54" on="0"/>
        <pt x="-8" y="1" on="0"/>
      </contour>
      <contour>
        <pt x="25" y="27" on="1"/>
        <pt x="25" y="10" on="0"/>
        <pt x="62" y="-21" on="0"/>
        <pt x="88" y="-21" on="1"/>
        <pt x="113" y="-21" on="0"/>
        <pt x="171" y="23" on="1"/>
        <pt x="94" y="53" on="0"/>
        <pt x="65" y="53" on="1"/>
        <pt x="25" y="53" on="0"/>
      </contour>
      <contour>
        <pt x="445" y="906" on="1"/>
        <pt x="445" y="933" on="0"/>
        <pt x="472" y="946" on="1"/>
        <pt x="496" y="900" on="0"/>
        <pt x="549" y="854" on="1"/>
        <pt x="615" y="877" on="0"/>
        <pt x="651" y="908" on="1"/>
        <pt x="672" y="901" on="0"/>
        <pt x="672" y="884" on="1"/>
        <pt x="672" y="855" on="0"/>
        <pt x="576" y="790" on="0"/>
        <pt x="522" y="790" on="0"/>
        <pt x="445" y="873" on="0"/>
      </contour>
    </TTGlyph>
    <TTGlyph name="a" xMin="-26" yMin="-47" xMax="487" yMax="343">
      <contour>
        <pt x="-26" y="41" on="1"/>
        <pt x="-26" y="99" on="0"/>
        <pt x="56" y="241" on="0"/>
        <pt x="191" y="343" on="0"/>
        <pt x="257" y="343" on="1"/>
        <pt x="301" y="343" on="0"/>
        <pt x="360" y="298" on="0"/>
        <pt x="360" y="263" on="1"/>
        <pt x="360" y="217" on="0"/>
        <pt x="303" y="215" on="1"/>
        <pt x="339" y="204" on="0"/>
        <pt x="339" y="186" on="1"/>
        <pt x="339" y="174" on="0"/>
        <pt x="282" y="77" on="0"/>
        <pt x="282" y="53" on="1"/>
        <pt x="282" y="17" on="0"/>
        <pt x="312" y="17" on="1"/>
        <pt x="340" y="17" on="0"/>
        <pt x="427" y="95" on="0"/>
        <pt x="468" y="173" on="1"/>
        <pt x="487" y="154" on="1"/>
        <pt x="450" y="71" on="0"/>
        <pt x="340" y="-30" on="0"/>
        <pt x="284" y="-30" on="1"/>
        <pt x="244" y="-30" on="0"/>
        <pt x="201" y="23" on="0"/>
        <pt x="201" y="57" on="1"/>
        <pt x="156" y="3" on="0"/>
        <pt x="92" y="-47" on="0"/>
        <pt x="56" y="-47" on="1"/>
        <pt x="21" y="-47" on="0"/>
        <pt x="-26" y="-1" on="0"/>
      </contour>
      <contour>
        <pt x="54" y="36" on="1"/>
        <pt x="54" y="4" on="0"/>
        <pt x="77" y="4" on="1"/>
        <pt x="90" y="4" on="0"/>
        <pt x="119" y="19" on="0"/>
        <pt x="136" y="34" on="1"/>
        <pt x="167" y="64" on="1"/>
        <pt x="182" y="79" on="0"/>
        <pt x="201" y="103" on="1"/>
        <pt x="231" y="141" on="1"/>
        <pt x="260" y="180" on="1"/>
        <pt x="284" y="213" on="1"/>
        <pt x="287" y="218" on="0"/>
        <pt x="292" y="218" on="1"/>
        <pt x="294" y="218" on="1"/>
        <pt x="296" y="217" on="1"/>
        <pt x="301" y="233" on="0"/>
        <pt x="301" y="254" on="1"/>
        <pt x="301" y="306" on="0"/>
        <pt x="259" y="306" on="1"/>
        <pt x="193" y="306" on="0"/>
        <pt x="54" y="110" on="0"/>
      </contour>
    </TTGlyph>
    <TTGlyph name="aacute" xMin="-26" yMin="-47" xMax="487" yMax="558">
      <contour>
        <pt x="-26" y="41" on="1"/>
        <pt x="-26" y="99" on="0"/>
        <pt x="56" y="241" on="0"/>
        <pt x="191" y="343" on="0"/>
        <pt x="257" y="343" on="1"/>
        <pt x="301" y="343" on="0"/>
        <pt x="360" y="298" on="0"/>
        <pt x="360" y="263" on="1"/>
        <pt x="360" y="217" on="0"/>
        <pt x="303" y="215" on="1"/>
        <pt x="339" y="204" on="0"/>
        <pt x="339" y="185" on="1"/>
        <pt x="339" y="174" on="0"/>
        <pt x="282" y="77" on="0"/>
        <pt x="282" y="53" on="1"/>
        <pt x="282" y="17" on="0"/>
        <pt x="312" y="17" on="1"/>
        <pt x="340" y="17" on="0"/>
        <pt x="427" y="95" on="0"/>
        <pt x="468" y="173" on="1"/>
        <pt x="487" y="154" on="1"/>
        <pt x="450" y="71" on="0"/>
        <pt x="340" y="-30" on="0"/>
        <pt x="284" y="-30" on="1"/>
        <pt x="244" y="-30" on="0"/>
        <pt x="201" y="23" on="0"/>
        <pt x="201" y="57" on="1"/>
        <pt x="156" y="3" on="0"/>
        <pt x="92" y="-47" on="0"/>
        <pt x="56" y="-47" on="1"/>
        <pt x="21" y="-47" on="0"/>
        <pt x="-26" y="-1" on="0"/>
      </contour>
      <contour>
        <pt x="54" y="36" on="1"/>
        <pt x="54" y="4" on="0"/>
        <pt x="77" y="4" on="1"/>
        <pt x="90" y="4" on="0"/>
        <pt x="119" y="19" on="0"/>
        <pt x="136" y="34" on="1"/>
        <pt x="167" y="64" on="1"/>
        <pt x="182" y="79" on="0"/>
        <pt x="201" y="103" on="1"/>
        <pt x="231" y="141" on="1"/>
        <pt x="260" y="180" on="1"/>
        <pt x="284" y="213" on="1"/>
        <pt x="287" y="218" on="0"/>
        <pt x="292" y="218" on="1"/>
        <pt x="294" y="218" on="1"/>
        <pt x="296" y="217" on="1"/>
        <pt x="301" y="233" on="0"/>
        <pt x="301" y="254" on="1"/>
        <pt x="301" y="306" on="0"/>
        <pt x="259" y="306" on="1"/>
        <pt x="193" y="306" on="0"/>
        <pt x="54" y="110" on="0"/>
      </contour>
      <contour>
        <pt x="274" y="443" on="1"/>
        <pt x="274" y="463" on="0"/>
        <pt x="349" y="558" on="0"/>
        <pt x="377" y="558" on="1"/>
        <pt x="403" y="558" on="0"/>
        <pt x="407" y="523" on="1"/>
        <pt x="322" y="441" on="0"/>
        <pt x="298" y="410" on="1"/>
        <pt x="287" y="415" on="0"/>
        <pt x="274" y="436" on="0"/>
      </contour>
    </TTGlyph>
    <TTGlyph name="acircumflex" xMin="-26" yMin="-47" xMax="487" yMax="550">
      <contour>
        <pt x="-26" y="41" on="1"/>
        <pt x="-26" y="99" on="0"/>
        <pt x="56" y="241" on="0"/>
        <pt x="191" y="343" on="0"/>
        <pt x="257" y="343" on="1"/>
        <pt x="301" y="343" on="0"/>
        <pt x="360" y="298" on="0"/>
        <pt x="360" y="263" on="1"/>
        <pt x="360" y="217" on="0"/>
        <pt x="303" y="215" on="1"/>
        <pt x="339" y="204" on="0"/>
        <pt x="339" y="185" on="1"/>
        <pt x="339" y="174" on="0"/>
        <pt x="282" y="77" on="0"/>
        <pt x="282" y="53" on="1"/>
        <pt x="282" y="17" on="0"/>
        <pt x="312" y="17" on="1"/>
        <pt x="340" y="17" on="0"/>
        <pt x="427" y="95" on="0"/>
        <pt x="468" y="173" on="1"/>
        <pt x="487" y="154" on="1"/>
        <pt x="450" y="71" on="0"/>
        <pt x="340" y="-30" on="0"/>
        <pt x="284" y="-30" on="1"/>
        <pt x="244" y="-30" on="0"/>
        <pt x="201" y="23" on="0"/>
        <pt x="201" y="57" on="1"/>
        <pt x="156" y="3" on="0"/>
        <pt x="92" y="-47" on="0"/>
        <pt x="56" y="-47" on="1"/>
        <pt x="21" y="-47" on="0"/>
        <pt x="-26" y="-1" on="0"/>
      </contour>
      <contour>
        <pt x="54" y="36" on="1"/>
        <pt x="54" y="4" on="0"/>
        <pt x="77" y="4" on="1"/>
        <pt x="90" y="4" on="0"/>
        <pt x="119" y="19" on="0"/>
        <pt x="136" y="34" on="1"/>
        <pt x="167" y="64" on="1"/>
        <pt x="182" y="79" on="0"/>
        <pt x="201" y="103" on="1"/>
        <pt x="231" y="141" on="1"/>
        <pt x="260" y="180" on="1"/>
        <pt x="284" y="213" on="1"/>
        <pt x="287" y="218" on="0"/>
        <pt x="292" y="218" on="1"/>
        <pt x="294" y="218" on="1"/>
        <pt x="296" y="217" on="1"/>
        <pt x="301" y="233" on="0"/>
        <pt x="301" y="254" on="1"/>
        <pt x="301" y="306" on="0"/>
        <pt x="259" y="306" on="1"/>
        <pt x="193" y="306" on="0"/>
        <pt x="54" y="110" on="0"/>
      </contour>
      <contour>
        <pt x="234" y="464" on="1"/>
        <pt x="234" y="491" on="0"/>
        <pt x="324" y="550" on="0"/>
        <pt x="350" y="550" on="1"/>
        <pt x="375" y="550" on="0"/>
        <pt x="446" y="474" on="0"/>
        <pt x="446" y="444" on="1"/>
        <pt x="446" y="418" on="0"/>
        <pt x="421" y="405" on="1"/>
        <pt x="398" y="444" on="0"/>
        <pt x="349" y="488" on="1"/>
        <pt x="303" y="473" on="0"/>
        <pt x="247" y="436" on="1"/>
        <pt x="234" y="444" on="0"/>
      </contour>
    </TTGlyph>
    <TTGlyph name="acute" xMin="93" yMin="410" xMax="226" yMax="558">
      <contour>
        <pt x="93" y="443" on="1"/>
        <pt x="93" y="463" on="0"/>
        <pt x="168" y="558" on="0"/>
        <pt x="196" y="558" on="1"/>
        <pt x="222" y="558" on="0"/>
        <pt x="226" y="523" on="1"/>
        <pt x="141" y="441" on="0"/>
        <pt x="117" y="410" on="1"/>
        <pt x="106" y="415" on="0"/>
        <pt x="93" y="436" on="0"/>
      </contour>
    </TTGlyph>
    <TTGlyph name="adieresis" xMin="-26" yMin="-47" xMax="487" yMax="517">
      <contour>
        <pt x="-26" y="41" on="1"/>
        <pt x="-26" y="99" on="0"/>
        <pt x="56" y="241" on="0"/>
        <pt x="191" y="343" on="0"/>
        <pt x="257" y="343" on="1"/>
        <pt x="301" y="343" on="0"/>
        <pt x="360" y="298" on="0"/>
        <pt x="360" y="263" on="1"/>
        <pt x="360" y="217" on="0"/>
        <pt x="303" y="215" on="1"/>
        <pt x="339" y="204" on="0"/>
        <pt x="339" y="185" on="1"/>
        <pt x="339" y="174" on="0"/>
        <pt x="282" y="77" on="0"/>
        <pt x="282" y="53" on="1"/>
        <pt x="282" y="17" on="0"/>
        <pt x="312" y="17" on="1"/>
        <pt x="340" y="17" on="0"/>
        <pt x="427" y="95" on="0"/>
        <pt x="468" y="173" on="1"/>
        <pt x="487" y="154" on="1"/>
        <pt x="450" y="71" on="0"/>
        <pt x="340" y="-30" on="0"/>
        <pt x="284" y="-30" on="1"/>
        <pt x="244" y="-30" on="0"/>
        <pt x="201" y="23" on="0"/>
        <pt x="201" y="57" on="1"/>
        <pt x="156" y="3" on="0"/>
        <pt x="92" y="-47" on="0"/>
        <pt x="56" y="-47" on="1"/>
        <pt x="21" y="-47" on="0"/>
        <pt x="-26" y="-1" on="0"/>
      </contour>
      <contour>
        <pt x="54" y="36" on="1"/>
        <pt x="54" y="4" on="0"/>
        <pt x="77" y="4" on="1"/>
        <pt x="90" y="4" on="0"/>
        <pt x="119" y="19" on="0"/>
        <pt x="136" y="34" on="1"/>
        <pt x="167" y="64" on="1"/>
        <pt x="182" y="79" on="0"/>
        <pt x="201" y="103" on="1"/>
        <pt x="231" y="141" on="1"/>
        <pt x="260" y="180" on="1"/>
        <pt x="284" y="213" on="1"/>
        <pt x="287" y="218" on="0"/>
        <pt x="292" y="218" on="1"/>
        <pt x="294" y="218" on="1"/>
        <pt x="296" y="217" on="1"/>
        <pt x="301" y="233" on="0"/>
        <pt x="301" y="254" on="1"/>
        <pt x="301" y="306" on="0"/>
        <pt x="259" y="306" on="1"/>
        <pt x="193" y="306" on="0"/>
        <pt x="54" y="110" on="0"/>
      </contour>
      <contour>
        <pt x="216" y="469" on="1"/>
        <pt x="216" y="487" on="0"/>
        <pt x="260" y="517" on="0"/>
        <pt x="283" y="517" on="1"/>
        <pt x="319" y="517" on="0"/>
        <pt x="319" y="485" on="1"/>
        <pt x="319" y="467" on="0"/>
        <pt x="281" y="435" on="0"/>
        <pt x="259" y="435" on="1"/>
        <pt x="241" y="435" on="0"/>
        <pt x="216" y="452" on="0"/>
      </contour>
      <contour>
        <pt x="361" y="449" on="1"/>
        <pt x="361" y="468" on="0"/>
        <pt x="404" y="497" on="0"/>
        <pt x="428" y="497" on="1"/>
        <pt x="465" y="497" on="0"/>
        <pt x="465" y="464" on="1"/>
        <pt x="465" y="446" on="0"/>
        <pt x="426" y="415" on="0"/>
        <pt x="403" y="415" on="1"/>
        <pt x="386" y="415" on="0"/>
        <pt x="361" y="433" on="0"/>
      </contour>
    </TTGlyph>
    <TTGlyph name="ae" xMin="-26" yMin="-47" xMax="601" yMax="360">
      <contour>
        <pt x="-26" y="41" on="1"/>
        <pt x="-26" y="99" on="0"/>
        <pt x="57" y="241" on="0"/>
        <pt x="193" y="344" on="0"/>
        <pt x="259" y="344" on="1"/>
        <pt x="313" y="344" on="0"/>
        <pt x="332" y="307" on="1"/>
        <pt x="402" y="360" on="0"/>
        <pt x="464" y="360" on="1"/>
        <pt x="535" y="360" on="0"/>
        <pt x="535" y="294" on="1"/>
        <pt x="535" y="222" on="0"/>
        <pt x="379" y="110" on="0"/>
        <pt x="283" y="100" on="1"/>
        <pt x="281" y="90" on="0"/>
        <pt x="281" y="72" on="1"/>
        <pt x="285" y="-1" on="0"/>
        <pt x="358" y="-1" on="1"/>
        <pt x="419" y="-1" on="0"/>
        <pt x="543" y="98" on="0"/>
        <pt x="582" y="172" on="1"/>
        <pt x="601" y="156" on="1"/>
        <pt x="560" y="65" on="0"/>
        <pt x="415" y="-44" on="0"/>
        <pt x="337" y="-44" on="1"/>
        <pt x="281" y="-44" on="0"/>
        <pt x="212" y="12" on="0"/>
        <pt x="205" y="56" on="1"/>
        <pt x="121" y="-47" on="0"/>
        <pt x="58" y="-47" on="1"/>
        <pt x="22" y="-47" on="0"/>
        <pt x="-26" y="-1" on="0"/>
      </contour>
      <contour>
        <pt x="58" y="39" on="1"/>
        <pt x="58" y="8" on="0"/>
        <pt x="80" y="8" on="1"/>
        <pt x="126" y="8" on="0"/>
        <pt x="204" y="105" on="1"/>
        <pt x="218" y="197" on="0"/>
        <pt x="299" y="276" on="1"/>
        <pt x="291" y="303" on="0"/>
        <pt x="257" y="303" on="1"/>
        <pt x="213" y="303" on="0"/>
        <pt x="117" y="209" on="0"/>
        <pt x="58" y="85" on="0"/>
      </contour>
      <contour>
        <pt x="293" y="137" on="1"/>
        <pt x="362" y="163" on="0"/>
        <pt x="478" y="251" on="0"/>
        <pt x="478" y="301" on="1"/>
        <pt x="478" y="315" on="0"/>
        <pt x="462" y="315" on="1"/>
        <pt x="418" y="315" on="0"/>
        <pt x="316" y="204" on="0"/>
      </contour>
    </TTGlyph>
    <TTGlyph name="agrave" xMin="-26" yMin="-47" xMax="487" yMax="558">
      <contour>
        <pt x="-26" y="41" on="1"/>
        <pt x="-26" y="99" on="0"/>
        <pt x="56" y="241" on="0"/>
        <pt x="191" y="343" on="0"/>
        <pt x="257" y="343" on="1"/>
        <pt x="301" y="343" on="0"/>
        <pt x="360" y="298" on="0"/>
        <pt x="360" y="263" on="1"/>
        <pt x="360" y="217" on="0"/>
        <pt x="303" y="215" on="1"/>
        <pt x="339" y="204" on="0"/>
        <pt x="339" y="185" on="1"/>
        <pt x="339" y="174" on="0"/>
        <pt x="282" y="77" on="0"/>
        <pt x="282" y="53" on="1"/>
        <pt x="282" y="17" on="0"/>
        <pt x="312" y="17" on="1"/>
        <pt x="340" y="17" on="0"/>
        <pt x="427" y="95" on="0"/>
        <pt x="468" y="173" on="1"/>
        <pt x="487" y="154" on="1"/>
        <pt x="450" y="71" on="0"/>
        <pt x="340" y="-30" on="0"/>
        <pt x="284" y="-30" on="1"/>
        <pt x="244" y="-30" on="0"/>
        <pt x="201" y="23" on="0"/>
        <pt x="201" y="57" on="1"/>
        <pt x="156" y="3" on="0"/>
        <pt x="92" y="-47" on="0"/>
        <pt x="56" y="-47" on="1"/>
        <pt x="21" y="-47" on="0"/>
        <pt x="-26" y="-1" on="0"/>
      </contour>
      <contour>
        <pt x="54" y="36" on="1"/>
        <pt x="54" y="4" on="0"/>
        <pt x="77" y="4" on="1"/>
        <pt x="90" y="4" on="0"/>
        <pt x="119" y="19" on="0"/>
        <pt x="136" y="34" on="1"/>
        <pt x="167" y="64" on="1"/>
        <pt x="182" y="79" on="0"/>
        <pt x="201" y="103" on="1"/>
        <pt x="231" y="141" on="1"/>
        <pt x="260" y="180" on="1"/>
        <pt x="284" y="213" on="1"/>
        <pt x="287" y="218" on="0"/>
        <pt x="292" y="218" on="1"/>
        <pt x="294" y="218" on="1"/>
        <pt x="296" y="217" on="1"/>
        <pt x="301" y="233" on="0"/>
        <pt x="301" y="254" on="1"/>
        <pt x="301" y="306" on="0"/>
        <pt x="259" y="306" on="1"/>
        <pt x="193" y="306" on="0"/>
        <pt x="54" y="110" on="0"/>
      </contour>
      <contour>
        <pt x="179" y="519" on="1"/>
        <pt x="180" y="538" on="0"/>
        <pt x="199" y="558" on="0"/>
        <pt x="211" y="558" on="1"/>
        <pt x="239" y="558" on="0"/>
        <pt x="321" y="466" on="0"/>
        <pt x="321" y="445" on="1"/>
        <pt x="321" y="436" on="0"/>
        <pt x="307" y="414" on="0"/>
        <pt x="296" y="409" on="1"/>
        <pt x="247" y="467" on="0"/>
      </contour>
    </TTGlyph>
    <TTGlyph name="ampersand" xMin="17" yMin="-87" xMax="697" yMax="719">
      <contour>
        <pt x="17" y="99" on="1"/>
        <pt x="17" y="191" on="0"/>
        <pt x="163" y="344" on="0"/>
        <pt x="272" y="359" on="1"/>
        <pt x="200" y="423" on="0"/>
        <pt x="200" y="509" on="1"/>
        <pt x="200" y="593" on="0"/>
        <pt x="323" y="719" on="0"/>
        <pt x="418" y="719" on="1"/>
        <pt x="478" y="719" on="0"/>
        <pt x="541" y="662" on="0"/>
        <pt x="541" y="608" on="1"/>
        <pt x="541" y="551" on="0"/>
        <pt x="487" y="450" on="0"/>
        <pt x="458" y="450" on="1"/>
        <pt x="433" y="450" on="0"/>
        <pt x="410" y="491" on="1"/>
        <pt x="496" y="561" on="0"/>
        <pt x="496" y="622" on="1"/>
        <pt x="496" y="651" on="0"/>
        <pt x="462" y="685" on="0"/>
        <pt x="429" y="685" on="1"/>
        <pt x="364" y="685" on="0"/>
        <pt x="290" y="578" on="0"/>
        <pt x="290" y="501" on="1"/>
        <pt x="290" y="396" on="0"/>
        <pt x="363" y="339" on="1"/>
        <pt x="259" y="323" on="0"/>
        <pt x="127" y="178" on="0"/>
        <pt x="127" y="99" on="1"/>
        <pt x="127" y="45" on="0"/>
        <pt x="192" y="-39" on="0"/>
        <pt x="257" y="-39" on="1"/>
        <pt x="362" y="-39" on="0"/>
        <pt x="534" y="143" on="0"/>
        <pt x="549" y="258" on="1"/>
        <pt x="516" y="256" on="0"/>
        <pt x="413" y="238" on="1"/>
        <pt x="414" y="323" on="0"/>
        <pt x="526" y="323" on="1"/>
        <pt x="558" y="323" on="0"/>
        <pt x="664" y="306" on="0"/>
        <pt x="697" y="306" on="1"/>
        <pt x="683" y="276" on="0"/>
        <pt x="659" y="260" on="0"/>
        <pt x="644" y="260" on="1"/>
        <pt x="631" y="260" on="0"/>
        <pt x="596" y="259" on="0"/>
        <pt x="588" y="259" on="1"/>
        <pt x="574" y="121" on="0"/>
        <pt x="363" y="-87" on="0"/>
        <pt x="231" y="-87" on="1"/>
        <pt x="136" y="-87" on="0"/>
        <pt x="17" y="21" on="0"/>
      </contour>
    </TTGlyph>
    <TTGlyph name="aring" xMin="-26" yMin="-47" xMax="487" yMax="562">
      <contour>
        <pt x="-26" y="41" on="1"/>
        <pt x="-26" y="99" on="0"/>
        <pt x="56" y="241" on="0"/>
        <pt x="191" y="343" on="0"/>
        <pt x="257" y="343" on="1"/>
        <pt x="301" y="343" on="0"/>
        <pt x="360" y="298" on="0"/>
        <pt x="360" y="263" on="1"/>
        <pt x="360" y="217" on="0"/>
        <pt x="303" y="215" on="1"/>
        <pt x="339" y="204" on="0"/>
        <pt x="339" y="185" on="1"/>
        <pt x="339" y="174" on="0"/>
        <pt x="282" y="77" on="0"/>
        <pt x="282" y="53" on="1"/>
        <pt x="282" y="17" on="0"/>
        <pt x="312" y="17" on="1"/>
        <pt x="340" y="17" on="0"/>
        <pt x="427" y="95" on="0"/>
        <pt x="468" y="173" on="1"/>
        <pt x="487" y="154" on="1"/>
        <pt x="450" y="71" on="0"/>
        <pt x="340" y="-30" on="0"/>
        <pt x="284" y="-30" on="1"/>
        <pt x="244" y="-30" on="0"/>
        <pt x="201" y="23" on="0"/>
        <pt x="201" y="57" on="1"/>
        <pt x="156" y="3" on="0"/>
        <pt x="92" y="-47" on="0"/>
        <pt x="56" y="-47" on="1"/>
        <pt x="21" y="-47" on="0"/>
        <pt x="-26" y="-1" on="0"/>
      </contour>
      <contour>
        <pt x="54" y="36" on="1"/>
        <pt x="54" y="4" on="0"/>
        <pt x="77" y="4" on="1"/>
        <pt x="90" y="4" on="0"/>
        <pt x="119" y="19" on="0"/>
        <pt x="136" y="34" on="1"/>
        <pt x="167" y="64" on="1"/>
        <pt x="182" y="79" on="0"/>
        <pt x="201" y="103" on="1"/>
        <pt x="231" y="141" on="1"/>
        <pt x="260" y="180" on="1"/>
        <pt x="284" y="213" on="1"/>
        <pt x="287" y="218" on="0"/>
        <pt x="292" y="218" on="1"/>
        <pt x="294" y="218" on="1"/>
        <pt x="296" y="217" on="1"/>
        <pt x="301" y="233" on="0"/>
        <pt x="301" y="254" on="1"/>
        <pt x="301" y="306" on="0"/>
        <pt x="259" y="306" on="1"/>
        <pt x="193" y="306" on="0"/>
        <pt x="54" y="110" on="0"/>
      </contour>
      <contour>
        <pt x="258" y="453" on="1"/>
        <pt x="258" y="490" on="0"/>
        <pt x="332" y="562" on="0"/>
        <pt x="382" y="562" on="1"/>
        <pt x="423" y="562" on="0"/>
        <pt x="464" y="530" on="0"/>
        <pt x="464" y="505" on="1"/>
        <pt x="464" y="467" on="0"/>
        <pt x="387" y="396" on="0"/>
        <pt x="336" y="396" on="1"/>
        <pt x="297" y="396" on="0"/>
        <pt x="258" y="428" on="0"/>
      </contour>
      <contour>
        <pt x="310" y="459" on="1"/>
        <pt x="311" y="448" on="0"/>
        <pt x="328" y="431" on="0"/>
        <pt x="344" y="431" on="1"/>
        <pt x="369" y="431" on="0"/>
        <pt x="413" y="476" on="0"/>
        <pt x="413" y="498" on="1"/>
        <pt x="413" y="524" on="0"/>
        <pt x="378" y="524" on="1"/>
        <pt x="353" y="524" on="0"/>
        <pt x="310" y="481" on="0"/>
      </contour>
    </TTGlyph>
    <TTGlyph name="asciicircum" xMin="1" yMin="406" xMax="210" yMax="550">
      <contour>
        <pt x="1" y="464" on="1"/>
        <pt x="1" y="491" on="0"/>
        <pt x="90" y="550" on="0"/>
        <pt x="140" y="550" on="0"/>
        <pt x="210" y="474" on="0"/>
        <pt x="210" y="444" on="1"/>
        <pt x="210" y="418" on="0"/>
        <pt x="185" y="406" on="1"/>
        <pt x="162" y="445" on="0"/>
        <pt x="114" y="488" on="1"/>
        <pt x="59" y="470" on="0"/>
        <pt x="14" y="440" on="1"/>
        <pt x="1" y="448" on="0"/>
      </contour>
    </TTGlyph>
    <TTGlyph name="asciitilde" xMin="59" yMin="123" xMax="394" yMax="208">
      <contour>
        <pt x="59" y="159" on="1"/>
        <pt x="102" y="208" on="0"/>
        <pt x="145" y="208" on="1"/>
        <pt x="166" y="208" on="0"/>
        <pt x="310" y="169" on="0"/>
        <pt x="335" y="169" on="1"/>
        <pt x="346" y="169" on="0"/>
        <pt x="394" y="177" on="1"/>
        <pt x="341" y="123" on="0"/>
        <pt x="301" y="123" on="1"/>
        <pt x="278" y="123" on="0"/>
        <pt x="138" y="166" on="0"/>
        <pt x="88" y="166" on="0"/>
      </contour>
    </TTGlyph>
    <TTGlyph name="asterisk" xMin="127" yMin="404" xMax="475" yMax="733">
      <contour>
        <pt x="127" y="589" on="1"/>
        <pt x="216" y="592" on="0"/>
        <pt x="242" y="594" on="1"/>
        <pt x="197" y="661" on="0"/>
        <pt x="197" y="696" on="1"/>
        <pt x="197" y="709" on="0"/>
        <pt x="218" y="731" on="0"/>
        <pt x="218" y="733" on="1"/>
        <pt x="229" y="714" on="0"/>
        <pt x="260" y="656" on="0"/>
        <pt x="278" y="625" on="0"/>
        <pt x="288" y="611" on="1"/>
        <pt x="322" y="715" on="0"/>
        <pt x="394" y="731" on="1"/>
        <pt x="384" y="702" on="0"/>
        <pt x="334" y="604" on="0"/>
        <pt x="330" y="595" on="1"/>
        <pt x="425" y="595" on="0"/>
        <pt x="475" y="555" on="1"/>
        <pt x="340" y="544" on="1"/>
        <pt x="357" y="521" on="0"/>
        <pt x="372" y="496" on="0"/>
        <pt x="389" y="440" on="0"/>
        <pt x="390" y="404" on="1"/>
        <pt x="351" y="446" on="0"/>
        <pt x="291" y="531" on="1"/>
        <pt x="260" y="475" on="0"/>
        <pt x="207" y="417" on="0"/>
        <pt x="171" y="415" on="1"/>
        <pt x="185" y="435" on="0"/>
        <pt x="209" y="476" on="0"/>
        <pt x="238" y="533" on="0"/>
        <pt x="243" y="543" on="1"/>
        <pt x="194" y="543" on="0"/>
        <pt x="135" y="561" on="0"/>
      </contour>
    </TTGlyph>
    <TTGlyph name="at" xMin="13" yMin="-121" xMax="572" yMax="395">
      <contour>
        <pt x="13" y="92" on="1"/>
        <pt x="13" y="210" on="0"/>
        <pt x="198" y="395" on="0"/>
        <pt x="343" y="395" on="1"/>
        <pt x="453" y="395" on="0"/>
        <pt x="572" y="286" on="0"/>
        <pt x="572" y="134" on="0"/>
        <pt x="464" y="5" on="0"/>
        <pt x="391" y="5" on="1"/>
        <pt x="316" y="5" on="0"/>
        <pt x="316" y="79" on="1"/>
        <pt x="242" y="-8" on="0"/>
        <pt x="188" y="-8" on="1"/>
        <pt x="160" y="-8" on="0"/>
        <pt x="121" y="30" on="0"/>
        <pt x="121" y="64" on="1"/>
        <pt x="121" y="111" on="0"/>
        <pt x="188" y="226" on="0"/>
        <pt x="298" y="310" on="0"/>
        <pt x="351" y="310" on="1"/>
        <pt x="387" y="310" on="0"/>
        <pt x="433" y="273" on="0"/>
        <pt x="433" y="243" on="1"/>
        <pt x="433" y="209" on="0"/>
        <pt x="393" y="204" on="1"/>
        <pt x="418" y="195" on="0"/>
        <pt x="418" y="180" on="1"/>
        <pt x="418" y="170" on="0"/>
        <pt x="372" y="90" on="0"/>
        <pt x="372" y="71" on="1"/>
        <pt x="372" y="46" on="0"/>
        <pt x="402" y="46" on="1"/>
        <pt x="448" y="46" on="0"/>
        <pt x="526" y="145" on="0"/>
        <pt x="526" y="203" on="1"/>
        <pt x="526" y="263" on="0"/>
        <pt x="434" y="353" on="0"/>
        <pt x="344" y="353" on="1"/>
        <pt x="222" y="353" on="0"/>
        <pt x="63" y="190" on="0"/>
        <pt x="63" y="89" on="1"/>
        <pt x="63" y="17" on="0"/>
        <pt x="155" y="-85" on="0"/>
        <pt x="252" y="-85" on="1"/>
        <pt x="373" y="-85" on="0"/>
        <pt x="470" y="3" on="1"/>
        <pt x="484" y="-15" on="1"/>
        <pt x="387" y="-121" on="0"/>
        <pt x="242" y="-121" on="1"/>
        <pt x="130" y="-121" on="0"/>
        <pt x="13" y="2" on="0"/>
      </contour>
      <contour>
        <pt x="187" y="61" on="1"/>
        <pt x="187" y="35" on="0"/>
        <pt x="202" y="35" on="1"/>
        <pt x="232" y="35" on="0"/>
        <pt x="383" y="193" on="0"/>
        <pt x="383" y="233" on="1"/>
        <pt x="383" y="247" on="0"/>
        <pt x="381" y="264" on="0"/>
        <pt x="366" y="279" on="0"/>
        <pt x="352" y="279" on="1"/>
        <pt x="298" y="279" on="0"/>
        <pt x="187" y="118" on="0"/>
      </contour>
    </TTGlyph>
    <TTGlyph name="atilde" xMin="-26" yMin="-47" xMax="493" yMax="471">
      <contour>
        <pt x="-26" y="41" on="1"/>
        <pt x="-26" y="99" on="0"/>
        <pt x="56" y="241" on="0"/>
        <pt x="191" y="343" on="0"/>
        <pt x="257" y="343" on="1"/>
        <pt x="301" y="343" on="0"/>
        <pt x="360" y="298" on="0"/>
        <pt x="360" y="263" on="1"/>
        <pt x="360" y="217" on="0"/>
        <pt x="303" y="215" on="1"/>
        <pt x="339" y="204" on="0"/>
        <pt x="339" y="185" on="1"/>
        <pt x="339" y="174" on="0"/>
        <pt x="282" y="77" on="0"/>
        <pt x="282" y="53" on="1"/>
        <pt x="282" y="17" on="0"/>
        <pt x="312" y="17" on="1"/>
        <pt x="340" y="17" on="0"/>
        <pt x="427" y="95" on="0"/>
        <pt x="468" y="173" on="1"/>
        <pt x="487" y="154" on="1"/>
        <pt x="450" y="71" on="0"/>
        <pt x="340" y="-30" on="0"/>
        <pt x="284" y="-30" on="1"/>
        <pt x="244" y="-30" on="0"/>
        <pt x="201" y="23" on="0"/>
        <pt x="201" y="57" on="1"/>
        <pt x="156" y="3" on="0"/>
        <pt x="92" y="-47" on="0"/>
        <pt x="56" y="-47" on="1"/>
        <pt x="21" y="-47" on="0"/>
        <pt x="-26" y="-1" on="0"/>
      </contour>
      <contour>
        <pt x="54" y="36" on="1"/>
        <pt x="54" y="4" on="0"/>
        <pt x="77" y="4" on="1"/>
        <pt x="90" y="4" on="0"/>
        <pt x="119" y="19" on="0"/>
        <pt x="136" y="34" on="1"/>
        <pt x="167" y="64" on="1"/>
        <pt x="182" y="79" on="0"/>
        <pt x="201" y="103" on="1"/>
        <pt x="231" y="141" on="1"/>
        <pt x="260" y="180" on="1"/>
        <pt x="284" y="213" on="1"/>
        <pt x="287" y="218" on="0"/>
        <pt x="292" y="218" on="1"/>
        <pt x="294" y="218" on="1"/>
        <pt x="296" y="217" on="1"/>
        <pt x="301" y="233" on="0"/>
        <pt x="301" y="254" on="1"/>
        <pt x="301" y="306" on="0"/>
        <pt x="259" y="306" on="1"/>
        <pt x="193" y="306" on="0"/>
        <pt x="54" y="110" on="0"/>
      </contour>
      <contour>
        <pt x="148" y="414" on="1"/>
        <pt x="167" y="436" on="0"/>
        <pt x="219" y="471" on="0"/>
        <pt x="238" y="471" on="1"/>
        <pt x="267" y="471" on="0"/>
        <pt x="391" y="431" on="0"/>
        <pt x="425" y="431" on="1"/>
        <pt x="452" y="431" on="0"/>
        <pt x="493" y="438" on="1"/>
        <pt x="442" y="384" on="0"/>
        <pt x="401" y="384" on="1"/>
        <pt x="370" y="384" on="0"/>
        <pt x="239" y="422" on="0"/>
        <pt x="210" y="422" on="1"/>
        <pt x="194" y="422" on="0"/>
      </contour>
    </TTGlyph>
    <TTGlyph name="b" xMin="-11" yMin="-73" xMax="450" yMax="714">
      <contour>
        <pt x="-11" y="60" on="1"/>
        <pt x="-11" y="154" on="0"/>
        <pt x="109" y="471" on="0"/>
        <pt x="263" y="714" on="0"/>
        <pt x="307" y="714" on="1"/>
        <pt x="326" y="714" on="0"/>
        <pt x="347" y="672" on="0"/>
        <pt x="348" y="645" on="1"/>
        <pt x="348" y="597" on="0"/>
        <pt x="285" y="447" on="0"/>
        <pt x="175" y="300" on="0"/>
        <pt x="116" y="266" on="1"/>
        <pt x="102" y="240" on="0"/>
        <pt x="71" y="121" on="0"/>
        <pt x="71" y="66" on="1"/>
        <pt x="71" y="-31" on="0"/>
        <pt x="123" y="-31" on="1"/>
        <pt x="149" y="-31" on="0"/>
        <pt x="209" y="16" on="0"/>
        <pt x="228" y="51" on="1"/>
        <pt x="192" y="71" on="0"/>
        <pt x="153" y="142" on="0"/>
        <pt x="153" y="183" on="1"/>
        <pt x="153" y="231" on="0"/>
        <pt x="205" y="292" on="0"/>
        <pt x="244" y="292" on="1"/>
        <pt x="278" y="292" on="0"/>
        <pt x="318" y="241" on="0"/>
        <pt x="318" y="192" on="1"/>
        <pt x="318" y="130" on="0"/>
        <pt x="288" y="66" on="1"/>
        <pt x="291" y="66" on="0"/>
        <pt x="302" y="65" on="0"/>
        <pt x="306" y="65" on="1"/>
        <pt x="381" y="65" on="0"/>
        <pt x="435" y="176" on="1"/>
        <pt x="450" y="155" on="1"/>
        <pt x="423" y="93" on="0"/>
        <pt x="350" y="34" on="0"/>
        <pt x="293" y="34" on="1"/>
        <pt x="279" y="34" on="0"/>
        <pt x="272" y="35" on="1"/>
        <pt x="204" y="-73" on="0"/>
        <pt x="105" y="-73" on="1"/>
        <pt x="49" y="-73" on="0"/>
        <pt x="-11" y="-3" on="0"/>
      </contour>
      <contour>
        <pt x="135" y="329" on="1"/>
        <pt x="195" y="384" on="0"/>
        <pt x="300" y="580" on="0"/>
        <pt x="301" y="620" on="1"/>
        <pt x="279" y="612" on="0"/>
        <pt x="166" y="425" on="0"/>
      </contour>
      <contour>
        <pt x="202" y="178" on="1"/>
        <pt x="202" y="114" on="0"/>
        <pt x="245" y="84" on="1"/>
        <pt x="263" y="124" on="0"/>
        <pt x="263" y="169" on="1"/>
        <pt x="263" y="239" on="0"/>
        <pt x="234" y="239" on="1"/>
        <pt x="221" y="239" on="0"/>
        <pt x="202" y="203" on="0"/>
      </contour>
    </TTGlyph>
    <TTGlyph name="b_r" xMin="-10" yMin="-73" xMax="814" yMax="714">
      <contour>
        <pt x="-10" y="60" on="1"/>
        <pt x="-10" y="155" on="0"/>
        <pt x="110" y="472" on="0"/>
        <pt x="265" y="714" on="0"/>
        <pt x="309" y="714" on="1"/>
        <pt x="327" y="714" on="0"/>
        <pt x="349" y="670" on="0"/>
        <pt x="349" y="643" on="1"/>
        <pt x="349" y="568" on="0"/>
        <pt x="204" y="316" on="0"/>
        <pt x="117" y="266" on="1"/>
        <pt x="103" y="241" on="0"/>
        <pt x="72" y="121" on="0"/>
        <pt x="72" y="69" on="1"/>
        <pt x="72" y="-21" on="0"/>
        <pt x="126" y="-21" on="1"/>
        <pt x="152" y="-21" on="0"/>
        <pt x="210" y="20" on="0"/>
        <pt x="229" y="51" on="1"/>
        <pt x="193" y="71" on="0"/>
        <pt x="154" y="142" on="0"/>
        <pt x="154" y="183" on="1"/>
        <pt x="154" y="231" on="0"/>
        <pt x="206" y="292" on="0"/>
        <pt x="245" y="292" on="1"/>
        <pt x="279" y="292" on="0"/>
        <pt x="319" y="241" on="0"/>
        <pt x="319" y="190" on="1"/>
        <pt x="319" y="130" on="0"/>
        <pt x="292" y="70" on="1"/>
        <pt x="296" y="69" on="0"/>
        <pt x="303" y="69" on="1"/>
        <pt x="328" y="69" on="0"/>
        <pt x="374" y="91" on="0"/>
        <pt x="412" y="137" on="0"/>
        <pt x="440" y="179" on="0"/>
        <pt x="468" y="246" on="0"/>
        <pt x="474" y="265" on="1"/>
        <pt x="492" y="315" on="1"/>
        <pt x="483" y="324" on="0"/>
        <pt x="483" y="340" on="1"/>
        <pt x="483" y="367" on="0"/>
        <pt x="517" y="415" on="0"/>
        <pt x="533" y="415" on="1"/>
        <pt x="544" y="415" on="0"/>
        <pt x="553" y="393" on="0"/>
        <pt x="553" y="384" on="1"/>
        <pt x="553" y="378" on="0"/>
        <pt x="542" y="350" on="0"/>
        <pt x="542" y="346" on="1"/>
        <pt x="542" y="338" on="0"/>
        <pt x="576" y="314" on="0"/>
        <pt x="617" y="289" on="0"/>
        <pt x="651" y="240" on="0"/>
        <pt x="651" y="210" on="1"/>
        <pt x="651" y="178" on="0"/>
        <pt x="602" y="62" on="0"/>
        <pt x="602" y="45" on="1"/>
        <pt x="602" y="23" on="0"/>
        <pt x="627" y="23" on="1"/>
        <pt x="671" y="23" on="0"/>
        <pt x="772" y="123" on="0"/>
        <pt x="796" y="174" on="1"/>
        <pt x="814" y="162" on="1"/>
        <pt x="779" y="86" on="0"/>
        <pt x="664" y="-27" on="0"/>
        <pt x="601" y="-27" on="1"/>
        <pt x="564" y="-27" on="0"/>
        <pt x="517" y="13" on="0"/>
        <pt x="517" y="46" on="1"/>
        <pt x="517" y="75" on="0"/>
        <pt x="571" y="204" on="0"/>
        <pt x="571" y="227" on="1"/>
        <pt x="571" y="242" on="0"/>
        <pt x="554" y="268" on="0"/>
        <pt x="538" y="281" on="0"/>
        <pt x="521" y="292" on="1"/>
        <pt x="508" y="250" on="0"/>
        <pt x="487" y="194" on="0"/>
        <pt x="446" y="115" on="0"/>
        <pt x="403" y="68" on="0"/>
        <pt x="337" y="33" on="0"/>
        <pt x="299" y="33" on="1"/>
        <pt x="291" y="33" on="0"/>
        <pt x="273" y="35" on="1"/>
        <pt x="205" y="-73" on="0"/>
        <pt x="106" y="-73" on="1"/>
        <pt x="50" y="-73" on="0"/>
        <pt x="-10" y="-3" on="0"/>
      </contour>
      <contour>
        <pt x="136" y="329" on="1"/>
        <pt x="196" y="384" on="0"/>
        <pt x="300" y="582" on="0"/>
        <pt x="300" y="621" on="1"/>
        <pt x="279" y="614" on="0"/>
        <pt x="167" y="425" on="0"/>
      </contour>
      <contour>
        <pt x="203" y="177" on="1"/>
        <pt x="203" y="115" on="0"/>
        <pt x="246" y="84" on="1"/>
        <pt x="264" y="125" on="0"/>
        <pt x="264" y="169" on="1"/>
        <pt x="264" y="200" on="0"/>
        <pt x="248" y="239" on="0"/>
        <pt x="222" y="239" on="0"/>
        <pt x="203" y="203" on="0"/>
      </contour>
    </TTGlyph>
    <TTGlyph name="backslash" xMin="173" yMin="-167" xMax="488" yMax="724">
      <contour>
        <pt x="173" y="724" on="1"/>
        <pt x="199" y="724" on="0"/>
        <pt x="247" y="691" on="0"/>
        <pt x="255" y="671" on="1"/>
        <pt x="284" y="596" on="0"/>
        <pt x="333" y="395" on="1"/>
        <pt x="425" y="26" on="1"/>
        <pt x="467" y="-142" on="0"/>
        <pt x="488" y="-167" on="1"/>
        <pt x="458" y="-162" on="0"/>
        <pt x="412" y="-126" on="0"/>
        <pt x="371" y="-47" on="0"/>
        <pt x="340" y="40" on="0"/>
        <pt x="299" y="202" on="0"/>
        <pt x="281" y="278" on="1"/>
        <pt x="233" y="482" on="1"/>
      </contour>
    </TTGlyph>
    <TTGlyph name="bar" xMin="78" yMin="-132" xMax="216" yMax="698">
      <contour>
        <pt x="78" y="-132" on="1"/>
        <pt x="105" y="-61" on="0"/>
        <pt x="140" y="309" on="0"/>
        <pt x="164" y="659" on="0"/>
        <pt x="176" y="698" on="1"/>
        <pt x="216" y="682" on="0"/>
        <pt x="216" y="610" on="1"/>
        <pt x="215" y="503" on="0"/>
        <pt x="201" y="137" on="0"/>
        <pt x="193" y="55" on="1"/>
        <pt x="177" y="-132" on="0"/>
      </contour>
    </TTGlyph>
    <TTGlyph name="braceleft" xMin="62" yMin="-87" xMax="353" yMax="720">
      <contour>
        <pt x="62" y="-15" on="1"/>
        <pt x="62" y="19" on="0"/>
        <pt x="135" y="193" on="0"/>
        <pt x="135" y="237" on="1"/>
        <pt x="135" y="297" on="0"/>
        <pt x="83" y="337" on="1"/>
        <pt x="131" y="341" on="0"/>
        <pt x="177" y="424" on="0"/>
        <pt x="181" y="479" on="1"/>
        <pt x="190" y="590" on="1"/>
        <pt x="194" y="644" on="0"/>
        <pt x="242" y="720" on="0"/>
        <pt x="291" y="720" on="1"/>
        <pt x="353" y="720" on="0"/>
        <pt x="353" y="681" on="1"/>
        <pt x="353" y="667" on="0"/>
        <pt x="345" y="652" on="1"/>
        <pt x="317" y="667" on="0"/>
        <pt x="306" y="667" on="1"/>
        <pt x="297" y="667" on="0"/>
        <pt x="282" y="656" on="0"/>
        <pt x="271" y="631" on="0"/>
        <pt x="263" y="608" on="0"/>
        <pt x="260" y="586" on="1"/>
        <pt x="255" y="551" on="1"/>
        <pt x="253" y="537" on="0"/>
        <pt x="250" y="511" on="1"/>
        <pt x="243" y="452" on="0"/>
        <pt x="234" y="393" on="0"/>
        <pt x="206" y="329" on="0"/>
        <pt x="184" y="321" on="1"/>
        <pt x="205" y="297" on="0"/>
        <pt x="205" y="253" on="1"/>
        <pt x="205" y="192" on="0"/>
        <pt x="132" y="10" on="0"/>
        <pt x="132" y="-23" on="1"/>
        <pt x="132" y="-49" on="0"/>
        <pt x="162" y="-49" on="1"/>
        <pt x="179" y="-49" on="0"/>
        <pt x="194" y="-39" on="1"/>
        <pt x="191" y="-87" on="0"/>
        <pt x="140" y="-87" on="1"/>
        <pt x="99" y="-87" on="0"/>
        <pt x="62" y="-46" on="0"/>
      </contour>
    </TTGlyph>
    <TTGlyph name="braceright" xMin="4" yMin="-87" xMax="301" yMax="729">
      <contour>
        <pt x="4" y="-35" on="1"/>
        <pt x="4" y="-22" on="0"/>
        <pt x="6" y="-14" on="1"/>
        <pt x="33" y="-32" on="0"/>
        <pt x="49" y="-32" on="1"/>
        <pt x="74" y="-32" on="0"/>
        <pt x="98" y="56" on="0"/>
        <pt x="107" y="134" on="1"/>
        <pt x="114" y="192" on="0"/>
        <pt x="124" y="256" on="0"/>
        <pt x="156" y="333" on="0"/>
        <pt x="180" y="349" on="1"/>
        <pt x="157" y="376" on="0"/>
        <pt x="157" y="417" on="1"/>
        <pt x="157" y="464" on="0"/>
        <pt x="226" y="644" on="0"/>
        <pt x="226" y="659" on="1"/>
        <pt x="226" y="680" on="0"/>
        <pt x="204" y="680" on="1"/>
        <pt x="189" y="680" on="0"/>
        <pt x="173" y="669" on="1"/>
        <pt x="172" y="672" on="0"/>
        <pt x="172" y="678" on="1"/>
        <pt x="172" y="700" on="0"/>
        <pt x="206" y="729" on="0"/>
        <pt x="239" y="729" on="1"/>
        <pt x="301" y="729" on="0"/>
        <pt x="301" y="682" on="1"/>
        <pt x="301" y="660" on="0"/>
        <pt x="229" y="487" on="0"/>
        <pt x="229" y="433" on="1"/>
        <pt x="229" y="366" on="0"/>
        <pt x="279" y="336" on="1"/>
        <pt x="229" y="324" on="0"/>
        <pt x="181" y="227" on="0"/>
        <pt x="177" y="167" on="1"/>
        <pt x="169" y="50" on="1"/>
        <pt x="165" y="-8" on="0"/>
        <pt x="119" y="-87" on="0"/>
        <pt x="70" y="-87" on="1"/>
        <pt x="4" y="-87" on="0"/>
      </contour>
    </TTGlyph>
    <TTGlyph name="bracketleft" xMin="48" yMin="-87" xMax="482" yMax="725">
      <contour>
        <pt x="48" y="-65" on="1"/>
        <pt x="55" y="-53" on="0"/>
        <pt x="68" y="1" on="0"/>
        <pt x="90" y="119" on="1"/>
        <pt x="158" y="496" on="1"/>
        <pt x="178" y="612" on="0"/>
        <pt x="253" y="704" on="0"/>
        <pt x="295" y="704" on="1"/>
        <pt x="303" y="704" on="0"/>
        <pt x="355" y="701" on="0"/>
        <pt x="371" y="701" on="1"/>
        <pt x="439" y="701" on="0"/>
        <pt x="482" y="725" on="1"/>
        <pt x="480" y="664" on="0"/>
        <pt x="421" y="627" on="0"/>
        <pt x="367" y="627" on="1"/>
        <pt x="341" y="627" on="0"/>
        <pt x="259" y="643" on="1"/>
        <pt x="227" y="549" on="0"/>
        <pt x="135" y="17" on="0"/>
        <pt x="125" y="-18" on="1"/>
        <pt x="236" y="-17" on="0"/>
        <pt x="323" y="-10" on="0"/>
        <pt x="370" y="3" on="1"/>
        <pt x="370" y="-44" on="0"/>
        <pt x="305" y="-87" on="0"/>
        <pt x="233" y="-87" on="1"/>
        <pt x="152" y="-87" on="0"/>
      </contour>
    </TTGlyph>
    <TTGlyph name="bracketright" xMin="14" yMin="-88" xMax="443" yMax="722">
      <contour>
        <pt x="14" y="-88" on="1"/>
        <pt x="20" y="-2" on="0"/>
        <pt x="132" y="-2" on="1"/>
        <pt x="152" y="-2" on="0"/>
        <pt x="241" y="-9" on="0"/>
        <pt x="255" y="-10" on="1"/>
        <pt x="288" y="84" on="0"/>
        <pt x="393" y="650" on="0"/>
        <pt x="396" y="663" on="1"/>
        <pt x="211" y="663" on="0"/>
        <pt x="125" y="640" on="1"/>
        <pt x="125" y="688" on="0"/>
        <pt x="189" y="722" on="0"/>
        <pt x="256" y="722" on="1"/>
        <pt x="341" y="722" on="0"/>
        <pt x="443" y="701" on="1"/>
        <pt x="438" y="643" on="0"/>
        <pt x="380" y="254" on="0"/>
        <pt x="357" y="136" on="1"/>
        <pt x="348" y="90" on="1"/>
        <pt x="345" y="72" on="0"/>
        <pt x="321" y="4" on="0"/>
        <pt x="295" y="-36" on="0"/>
        <pt x="249" y="-69" on="0"/>
        <pt x="221" y="-69" on="1"/>
        <pt x="75" y="-69" on="0"/>
      </contour>
    </TTGlyph>
    <TTGlyph name="brokenbar" xMin="79" yMin="-132" xMax="217" yMax="699">
      <contour>
        <pt x="79" y="-132" on="1"/>
        <pt x="109" y="-54" on="0"/>
        <pt x="131" y="199" on="1"/>
        <pt x="153" y="225" on="0"/>
        <pt x="185" y="225" on="1"/>
        <pt x="204" y="225" on="0"/>
        <pt x="204" y="195" on="1"/>
        <pt x="204" y="114" on="0"/>
        <pt x="193" y="0" on="0"/>
        <pt x="166" y="-89" on="0"/>
        <pt x="116" y="-132" on="0"/>
      </contour>
      <contour>
        <pt x="137" y="282" on="1"/>
        <pt x="145" y="388" on="1"/>
        <pt x="150" y="456" on="0"/>
        <pt x="155" y="530" on="0"/>
        <pt x="164" y="623" on="0"/>
        <pt x="172" y="681" on="0"/>
        <pt x="177" y="699" on="1"/>
        <pt x="217" y="683" on="0"/>
        <pt x="217" y="627" on="1"/>
        <pt x="217" y="607" on="0"/>
        <pt x="211" y="434" on="0"/>
        <pt x="211" y="380" on="1"/>
        <pt x="211" y="333" on="0"/>
        <pt x="177" y="310" on="1"/>
      </contour>
    </TTGlyph>
    <TTGlyph name="bullet" xMin="61" yMin="113" xMax="187" yMax="230">
      <contour>
        <pt x="61" y="158" on="1"/>
        <pt x="61" y="182" on="0"/>
        <pt x="103" y="230" on="0"/>
        <pt x="129" y="230" on="1"/>
        <pt x="154" y="230" on="0"/>
        <pt x="187" y="199" on="0"/>
        <pt x="187" y="177" on="1"/>
        <pt x="187" y="156" on="0"/>
        <pt x="136" y="113" on="0"/>
        <pt x="109" y="113" on="1"/>
        <pt x="89" y="113" on="0"/>
        <pt x="61" y="138" on="0"/>
      </contour>
    </TTGlyph>
    <TTGlyph name="c" xMin="-6" yMin="-56" xMax="376" yMax="338">
      <contour>
        <pt x="-6" y="76" on="1"/>
        <pt x="-6" y="174" on="0"/>
        <pt x="134" y="338" on="0"/>
        <pt x="216" y="338" on="1"/>
        <pt x="256" y="338" on="0"/>
        <pt x="295" y="298" on="0"/>
        <pt x="295" y="238" on="0"/>
        <pt x="266" y="187" on="0"/>
        <pt x="245" y="187" on="1"/>
        <pt x="226" y="187" on="0"/>
        <pt x="214" y="206" on="1"/>
        <pt x="246" y="228" on="0"/>
        <pt x="246" y="281" on="1"/>
        <pt x="246" y="298" on="0"/>
        <pt x="227" y="298" on="1"/>
        <pt x="178" y="298" on="0"/>
        <pt x="71" y="138" on="0"/>
        <pt x="71" y="70" on="1"/>
        <pt x="71" y="-5" on="0"/>
        <pt x="141" y="-5" on="1"/>
        <pt x="142" y="-5" on="1"/>
        <pt x="201" y="-5" on="0"/>
        <pt x="324" y="94" on="0"/>
        <pt x="356" y="173" on="1"/>
        <pt x="376" y="155" on="1"/>
        <pt x="340" y="64" on="0"/>
        <pt x="190" y="-56" on="0"/>
        <pt x="113" y="-56" on="1"/>
        <pt x="59" y="-56" on="0"/>
        <pt x="-6" y="11" on="0"/>
      </contour>
    </TTGlyph>
    <TTGlyph name="caron" xMin="-13" yMin="402" xMax="214" yMax="558">
      <contour>
        <pt x="-13" y="518" on="1"/>
        <pt x="-13" y="545" on="0"/>
        <pt x="14" y="558" on="1"/>
        <pt x="38" y="512" on="0"/>
        <pt x="91" y="466" on="1"/>
        <pt x="157" y="489" on="0"/>
        <pt x="193" y="520" on="1"/>
        <pt x="214" y="513" on="0"/>
        <pt x="214" y="496" on="1"/>
        <pt x="214" y="467" on="0"/>
        <pt x="118" y="402" on="0"/>
        <pt x="64" y="402" on="0"/>
        <pt x="-13" y="485" on="0"/>
      </contour>
    </TTGlyph>
    <TTGlyph name="ccedilla" xMin="-6" yMin="-240" xMax="376" yMax="338">
      <contour>
        <pt x="-6" y="76" on="1"/>
        <pt x="-6" y="174" on="0"/>
        <pt x="134" y="338" on="0"/>
        <pt x="216" y="338" on="1"/>
        <pt x="256" y="338" on="0"/>
        <pt x="295" y="298" on="0"/>
        <pt x="295" y="238" on="0"/>
        <pt x="266" y="187" on="0"/>
        <pt x="245" y="187" on="1"/>
        <pt x="226" y="187" on="0"/>
        <pt x="214" y="206" on="1"/>
        <pt x="246" y="228" on="0"/>
        <pt x="246" y="281" on="1"/>
        <pt x="246" y="298" on="0"/>
        <pt x="227" y="298" on="1"/>
        <pt x="178" y="298" on="0"/>
        <pt x="71" y="138" on="0"/>
        <pt x="71" y="70" on="1"/>
        <pt x="71" y="-5" on="0"/>
        <pt x="142" y="-5" on="1"/>
        <pt x="201" y="-5" on="0"/>
        <pt x="324" y="94" on="0"/>
        <pt x="356" y="173" on="1"/>
        <pt x="376" y="155" on="1"/>
        <pt x="329" y="36" on="0"/>
        <pt x="226" y="-23" on="1"/>
        <pt x="189" y="-82" on="1"/>
        <pt x="222" y="-70" on="0"/>
        <pt x="243" y="-70" on="1"/>
        <pt x="267" y="-70" on="0"/>
        <pt x="297" y="-96" on="0"/>
        <pt x="297" y="-120" on="1"/>
        <pt x="297" y="-162" on="0"/>
        <pt x="216" y="-240" on="0"/>
        <pt x="165" y="-240" on="1"/>
        <pt x="137" y="-240" on="0"/>
        <pt x="99" y="-214" on="0"/>
        <pt x="99" y="-199" on="1"/>
        <pt x="99" y="-178" on="0"/>
        <pt x="131" y="-156" on="1"/>
        <pt x="144" y="-201" on="0"/>
        <pt x="171" y="-201" on="1"/>
        <pt x="195" y="-201" on="0"/>
        <pt x="252" y="-141" on="0"/>
        <pt x="252" y="-118" on="1"/>
        <pt x="252" y="-102" on="0"/>
        <pt x="236" y="-102" on="1"/>
        <pt x="223" y="-102" on="0"/>
        <pt x="165" y="-139" on="0"/>
        <pt x="149" y="-139" on="0"/>
        <pt x="136" y="-122" on="0"/>
        <pt x="136" y="-114" on="1"/>
        <pt x="136" y="-111" on="0"/>
        <pt x="180" y="-52" on="0"/>
        <pt x="191" y="-42" on="1"/>
        <pt x="197" y="-37" on="1"/>
        <pt x="153" y="-56" on="0"/>
        <pt x="113" y="-56" on="1"/>
        <pt x="59" y="-56" on="0"/>
        <pt x="-6" y="11" on="0"/>
      </contour>
    </TTGlyph>
    <TTGlyph name="cedilla" xMin="13" yMin="-186" xMax="211" yMax="47">
      <contour>
        <pt x="13" y="-145" on="1"/>
        <pt x="13" y="-124" on="0"/>
        <pt x="45" y="-102" on="1"/>
        <pt x="58" y="-147" on="0"/>
        <pt x="85" y="-147" on="1"/>
        <pt x="109" y="-147" on="0"/>
        <pt x="166" y="-87" on="0"/>
        <pt x="166" y="-64" on="1"/>
        <pt x="166" y="-48" on="0"/>
        <pt x="150" y="-48" on="1"/>
        <pt x="137" y="-48" on="0"/>
        <pt x="79" y="-85" on="0"/>
        <pt x="63" y="-85" on="0"/>
        <pt x="50" y="-68" on="0"/>
        <pt x="50" y="-60" on="1"/>
        <pt x="50" y="-57" on="0"/>
        <pt x="94" y="2" on="0"/>
        <pt x="105" y="12" on="1"/>
        <pt x="150" y="47" on="1"/>
        <pt x="103" y="-28" on="1"/>
        <pt x="136" y="-16" on="0"/>
        <pt x="157" y="-16" on="1"/>
        <pt x="181" y="-16" on="0"/>
        <pt x="211" y="-42" on="0"/>
        <pt x="211" y="-66" on="1"/>
        <pt x="211" y="-108" on="0"/>
        <pt x="130" y="-186" on="0"/>
        <pt x="79" y="-186" on="1"/>
        <pt x="51" y="-186" on="0"/>
        <pt x="13" y="-160" on="0"/>
      </contour>
    </TTGlyph>
    <TTGlyph name="cent" xMin="60" yMin="-162" xMax="400" yMax="722">
      <contour>
        <pt x="60" y="241" on="1"/>
        <pt x="60" y="328" on="0"/>
        <pt x="186" y="482" on="0"/>
        <pt x="266" y="505" on="1"/>
        <pt x="282" y="587" on="0"/>
        <pt x="294" y="670" on="1"/>
        <pt x="296" y="682" on="0"/>
        <pt x="303" y="698" on="0"/>
        <pt x="331" y="717" on="0"/>
        <pt x="355" y="722" on="1"/>
        <pt x="317" y="512" on="1"/>
        <pt x="356" y="512" on="0"/>
        <pt x="400" y="469" on="0"/>
        <pt x="400" y="429" on="1"/>
        <pt x="400" y="401" on="0"/>
        <pt x="377" y="358" on="0"/>
        <pt x="355" y="358" on="1"/>
        <pt x="337" y="358" on="0"/>
        <pt x="322" y="377" on="1"/>
        <pt x="331" y="381" on="0"/>
        <pt x="345" y="417" on="0"/>
        <pt x="345" y="435" on="1"/>
        <pt x="345" y="450" on="0"/>
        <pt x="325" y="470" on="0"/>
        <pt x="309" y="470" on="1"/>
        <pt x="266" y="234" on="0"/>
        <pt x="252" y="166" on="1"/>
        <pt x="317" y="179" on="0"/>
        <pt x="369" y="224" on="1"/>
        <pt x="391" y="200" on="1"/>
        <pt x="319" y="135" on="0"/>
        <pt x="243" y="117" on="1"/>
        <pt x="210" y="-33" on="0"/>
        <pt x="143" y="-162" on="0"/>
        <pt x="75" y="-162" on="1"/>
        <pt x="119" y="-115" on="0"/>
        <pt x="177" y="110" on="1"/>
        <pt x="125" y="112" on="0"/>
        <pt x="60" y="181" on="0"/>
      </contour>
      <contour>
        <pt x="138" y="236" on="1"/>
        <pt x="138" y="173" on="0"/>
        <pt x="190" y="162" on="1"/>
        <pt x="218" y="271" on="0"/>
        <pt x="255" y="449" on="1"/>
        <pt x="205" y="416" on="0"/>
        <pt x="138" y="291" on="0"/>
      </contour>
    </TTGlyph>
    <TTGlyph name="circumflex" xMin="-1" yMin="405" xMax="211" yMax="550">
      <contour>
        <pt x="-1" y="464" on="1"/>
        <pt x="-1" y="491" on="0"/>
        <pt x="89" y="550" on="0"/>
        <pt x="115" y="550" on="1"/>
        <pt x="140" y="550" on="0"/>
        <pt x="211" y="474" on="0"/>
        <pt x="211" y="444" on="1"/>
        <pt x="211" y="418" on="0"/>
        <pt x="186" y="405" on="1"/>
        <pt x="163" y="444" on="0"/>
        <pt x="114" y="488" on="1"/>
        <pt x="69" y="473" on="0"/>
        <pt x="12" y="436" on="1"/>
        <pt x="-1" y="444" on="0"/>
      </contour>
    </TTGlyph>
    <TTGlyph name="colon" xMin="32" yMin="-10" xMax="186" yMax="308">
      <contour>
        <pt x="32" y="23" on="1"/>
        <pt x="32" y="41" on="0"/>
        <pt x="73" y="70" on="0"/>
        <pt x="97" y="70" on="1"/>
        <pt x="130" y="70" on="0"/>
        <pt x="130" y="39" on="1"/>
        <pt x="130" y="22" on="0"/>
        <pt x="94" y="-10" on="0"/>
        <pt x="72" y="-10" on="1"/>
        <pt x="56" y="-10" on="0"/>
        <pt x="32" y="7" on="0"/>
      </contour>
      <contour>
        <pt x="88" y="261" on="1"/>
        <pt x="88" y="279" on="0"/>
        <pt x="130" y="308" on="0"/>
        <pt x="153" y="308" on="1"/>
        <pt x="186" y="308" on="0"/>
        <pt x="186" y="277" on="1"/>
        <pt x="186" y="260" on="0"/>
        <pt x="150" y="228" on="0"/>
        <pt x="128" y="228" on="1"/>
        <pt x="112" y="228" on="0"/>
        <pt x="88" y="245" on="0"/>
      </contour>
    </TTGlyph>
    <TTGlyph name="comma" xMin="5" yMin="-88" xMax="100" yMax="59">
      <contour>
        <pt x="5" y="-44" on="1"/>
        <pt x="5" y="-12" on="0"/>
        <pt x="45" y="59" on="0"/>
        <pt x="68" y="59" on="1"/>
        <pt x="81" y="59" on="0"/>
        <pt x="100" y="39" on="0"/>
        <pt x="100" y="26" on="1"/>
        <pt x="92" y="17" on="0"/>
        <pt x="78" y="-2" on="0"/>
        <pt x="70" y="-14" on="0"/>
        <pt x="55" y="-40" on="0"/>
        <pt x="52" y="-47" on="0"/>
        <pt x="34" y="-85" on="0"/>
        <pt x="32" y="-88" on="1"/>
        <pt x="5" y="-72" on="0"/>
      </contour>
    </TTGlyph>
    <TTGlyph name="copyright" xMin="88" yMin="100" xMax="610" yMax="620">
      <contour>
        <pt x="88" y="358" on="1"/>
        <pt x="88" y="443" on="0"/>
        <pt x="169" y="566" on="0"/>
        <pt x="283" y="620" on="0"/>
        <pt x="346" y="620" on="1"/>
        <pt x="392" y="620" on="0"/>
        <pt x="484" y="587" on="0"/>
        <pt x="562" y="526" on="0"/>
        <pt x="610" y="424" on="0"/>
        <pt x="610" y="362" on="1"/>
        <pt x="610" y="277" on="0"/>
        <pt x="525" y="154" on="0"/>
        <pt x="408" y="100" on="0"/>
        <pt x="344" y="100" on="1"/>
        <pt x="245" y="100" on="0"/>
        <pt x="91" y="236" on="0"/>
      </contour>
      <contour>
        <pt x="129" y="362" on="1"/>
        <pt x="129" y="265" on="0"/>
        <pt x="247" y="142" on="0"/>
        <pt x="344" y="142" on="1"/>
        <pt x="442" y="142" on="0"/>
        <pt x="569" y="265" on="0"/>
        <pt x="569" y="362" on="1"/>
        <pt x="569" y="456" on="0"/>
        <pt x="444" y="578" on="0"/>
        <pt x="347" y="578" on="1"/>
        <pt x="251" y="578" on="0"/>
        <pt x="129" y="458" on="0"/>
      </contour>
      <contour>
        <pt x="259" y="300" on="1"/>
        <pt x="259" y="429" on="1"/>
        <pt x="259" y="524" on="0"/>
        <pt x="347" y="524" on="1"/>
        <pt x="392" y="524" on="0"/>
        <pt x="440" y="473" on="0"/>
        <pt x="440" y="448" on="1"/>
        <pt x="440" y="424" on="0"/>
        <pt x="418" y="424" on="1"/>
        <pt x="405" y="424" on="0"/>
        <pt x="393" y="442" on="0"/>
        <pt x="391" y="465" on="0"/>
        <pt x="370" y="483" on="0"/>
        <pt x="349" y="483" on="1"/>
        <pt x="303" y="483" on="0"/>
        <pt x="303" y="429" on="1"/>
        <pt x="303" y="300" on="1"/>
        <pt x="303" y="271" on="0"/>
        <pt x="325" y="246" on="0"/>
        <pt x="354" y="246" on="1"/>
        <pt x="375" y="246" on="0"/>
        <pt x="395" y="264" on="0"/>
        <pt x="397" y="287" on="0"/>
        <pt x="407" y="305" on="0"/>
        <pt x="418" y="305" on="1"/>
        <pt x="442" y="305" on="0"/>
        <pt x="442" y="284" on="1"/>
        <pt x="442" y="251" on="0"/>
        <pt x="394" y="206" on="0"/>
        <pt x="353" y="206" on="1"/>
        <pt x="311" y="206" on="0"/>
        <pt x="259" y="252" on="0"/>
      </contour>
    </TTGlyph>
</ttFont>
